{"glyphs":{"0":{"ha":726,"x_min":54,"x_max":802,"o":"m 694 982 q 709 974 704 979 q 720 962 713 968 q 734 949 727 955 q 749 935 742 943 q 771 909 761 922 q 788 878 781 897 q 798 838 795 860 q 802 791 802 815 q 801 742 802 766 q 799 697 800 718 q 787 644 792 670 q 772 590 783 617 q 767 574 769 583 q 762 557 765 566 q 755 528 758 543 q 749 498 753 513 q 740 469 746 483 q 730 439 734 454 q 701 385 713 414 q 674 328 688 355 q 665 312 670 320 q 654 296 659 304 q 646 279 650 288 q 636 263 642 271 q 606 217 623 240 q 575 171 590 194 q 505 115 541 141 q 442 54 469 90 q 414 37 425 45 q 400 20 406 26 q 372 1 381 8 q 355 -11 363 -5 q 317 -26 330 -19 q 292 -34 305 -34 q 257 -26 274 -33 q 225 -16 240 -20 q 211 -10 212 -9 q 208 -11 210 -11 q 164 22 184 4 q 127 62 144 41 q 114 99 119 79 l 102 136 q 97 157 99 146 q 92 178 95 167 q 82 216 85 197 q 75 256 79 236 q 71 267 73 263 q 65 275 68 271 q 62 296 64 292 q 58 302 60 300 q 57 312 57 307 q 56 323 57 317 q 62 373 54 349 q 62 389 61 381 q 64 404 62 396 q 68 416 66 411 q 73 429 71 422 q 77 441 76 435 q 80 452 77 446 q 99 490 92 476 q 113 517 106 505 q 130 566 118 544 q 155 607 141 587 q 182 646 168 627 q 209 686 197 665 q 250 742 231 718 q 288 792 269 766 q 330 838 307 817 q 377 878 353 859 q 393 891 385 884 q 408 905 400 898 q 425 918 416 911 q 442 930 433 925 q 458 939 449 935 q 473 947 467 943 q 495 959 483 952 q 518 970 507 966 q 536 975 526 972 q 553 985 545 978 q 568 987 560 985 q 582 991 575 990 q 599 995 590 994 q 617 997 608 996 q 635 996 627 997 q 652 994 643 996 q 675 993 659 993 q 694 982 690 993 m 674 689 q 675 699 675 694 q 677 708 674 704 q 675 743 670 724 q 682 777 680 761 q 675 799 677 788 q 669 819 674 810 q 646 848 651 838 q 635 869 640 859 q 611 876 625 876 q 587 876 597 876 q 565 876 570 879 q 555 873 560 873 q 528 869 541 871 q 505 864 515 867 q 481 843 492 853 q 460 822 471 833 q 449 809 454 815 q 437 796 444 803 q 424 782 430 789 q 411 768 418 774 q 381 729 396 749 q 351 689 366 709 q 311 637 332 661 q 271 583 289 613 q 250 549 260 567 q 229 513 240 530 q 226 506 227 510 q 222 498 225 502 q 216 488 220 492 q 210 480 213 484 q 208 472 208 476 q 205 464 208 468 q 199 456 202 460 q 195 450 197 453 q 195 444 194 448 q 194 435 195 439 q 189 406 187 415 q 187 388 190 397 q 182 366 182 373 q 182 350 183 358 q 175 275 179 312 q 178 206 171 237 q 186 187 184 198 q 193 167 189 176 q 201 153 198 159 q 215 134 208 140 q 233 118 222 127 q 253 101 247 102 q 270 100 259 100 q 286 100 278 100 q 302 102 294 99 q 323 109 313 104 q 342 119 332 114 q 397 151 369 134 q 450 182 425 167 q 469 212 458 198 q 488 237 479 225 q 497 248 494 243 q 505 255 500 252 q 532 290 517 274 q 559 327 547 305 q 583 370 572 346 q 595 393 590 382 q 602 416 600 404 q 612 437 610 430 q 617 450 614 444 q 621 462 620 457 q 624 473 621 467 q 629 488 629 484 q 629 495 628 492 q 639 522 635 509 q 646 548 643 534 q 658 585 652 566 q 670 624 663 605 q 665 654 659 635 q 674 689 671 673 z "},"1":{"ha":494,"x_min":-16,"x_max":578,"o":"m 220 104 q 267 102 248 103 q 302 100 285 100 q 307 92 305 98 q 313 84 309 87 q 318 54 324 64 q 302 30 312 43 q 296 19 298 23 q 293 5 293 15 q 279 -1 285 5 q 264 -1 274 -8 q 245 -4 254 -4 q 229 -5 236 -4 q 213 -7 213 -8 q 210 -7 213 -7 q 174 -5 191 -4 q 141 -9 157 -5 q 119 -5 122 -4 q 114 -7 115 -5 q 111 -11 113 -8 q 104 -16 110 -14 q 43 -37 69 -22 q 26 -41 37 -35 q 12 -44 16 -39 q -1 -47 7 -49 q -12 -30 -8 -43 q -11 -8 -16 -16 q -12 29 -16 16 q 4 58 -7 42 q 45 77 24 77 q 77 85 65 77 q 115 167 103 130 q 142 247 127 203 q 148 261 144 255 q 155 274 152 267 q 164 301 161 289 q 174 323 167 313 q 179 342 175 331 q 187 366 183 354 q 195 390 191 378 q 203 408 199 401 q 217 418 213 415 q 223 425 221 420 q 228 431 225 429 q 237 454 235 446 q 245 467 239 461 q 269 510 256 494 q 276 528 273 519 q 285 543 279 536 q 288 551 285 549 q 289 560 290 553 q 300 580 296 570 q 309 601 304 590 q 328 649 320 629 q 347 688 336 669 q 357 711 354 700 q 366 730 359 722 q 368 742 366 736 q 373 754 370 747 q 379 764 376 758 q 385 772 382 769 q 411 819 399 799 q 433 861 423 838 q 413 854 420 860 q 395 844 406 849 q 372 830 385 836 q 351 816 361 823 q 330 804 340 808 q 313 802 323 802 q 298 798 304 803 q 269 809 278 795 q 267 838 260 823 q 271 846 269 842 q 274 853 273 849 q 276 863 275 857 q 279 871 277 868 q 286 878 282 876 q 293 884 290 880 q 326 898 316 891 q 343 911 335 905 q 372 925 358 918 q 399 939 385 932 q 431 960 416 949 q 458 978 445 970 q 472 994 463 989 q 491 1006 481 1000 q 500 1013 495 1009 q 507 1023 506 1017 q 515 1027 513 1024 q 522 1028 517 1031 q 538 1023 534 1024 q 544 1023 541 1023 q 547 1019 548 1021 q 545 1013 547 1016 q 541 1006 543 1009 q 544 998 540 1002 q 556 991 547 996 q 568 985 566 987 q 573 968 572 971 q 576 960 574 964 q 576 945 578 954 q 576 929 575 937 q 574 901 578 916 q 572 892 572 895 q 571 884 571 888 q 548 825 562 850 q 522 773 534 799 q 517 761 519 766 q 510 750 514 755 q 497 728 503 739 q 484 707 491 718 q 462 657 475 681 q 437 610 449 633 q 406 555 419 583 q 378 499 393 526 q 350 459 362 476 q 324 423 338 442 q 310 363 321 391 q 289 308 298 336 q 267 251 279 278 q 247 193 255 224 q 230 143 236 165 q 220 104 224 121 z "},"2":{"ha":639,"x_min":3,"x_max":745,"o":"m 164 96 q 210 106 189 103 q 240 117 231 110 q 269 125 258 122 q 292 134 281 129 q 312 135 302 134 q 332 136 321 136 q 363 136 351 136 q 387 134 376 136 q 410 127 397 132 q 437 125 422 122 q 466 128 453 127 q 495 125 479 129 q 505 120 500 122 q 515 115 509 118 q 539 111 526 111 q 566 106 552 111 q 566 97 568 100 q 564 88 564 94 q 566 79 564 83 q 568 71 567 75 q 570 60 570 61 q 568 52 571 58 q 568 20 576 33 q 545 1 560 7 q 496 13 522 7 q 445 19 471 19 q 360 19 404 20 q 279 9 316 18 q 264 5 273 7 q 248 1 255 4 q 220 -7 233 -4 q 191 -16 206 -11 q 165 -22 179 -19 q 136 -30 151 -24 q 122 -34 129 -31 q 109 -37 115 -37 q 81 -35 95 -38 q 61 -22 68 -31 q 37 3 45 -15 q 18 39 28 20 q 14 48 15 45 q 11 57 14 52 q 8 85 3 72 q 20 114 14 98 q 39 144 31 132 q 56 167 47 157 q 65 179 61 174 q 73 191 69 184 q 85 204 79 198 q 94 216 91 210 q 98 224 96 220 q 102 232 99 229 q 108 237 104 235 q 114 241 111 239 q 154 283 134 262 q 197 324 174 305 q 216 347 206 336 q 236 369 225 358 q 280 413 260 389 q 328 453 300 437 q 342 465 335 460 q 355 476 349 469 q 368 491 362 483 q 381 506 373 499 q 399 519 389 513 q 415 533 408 525 q 427 548 422 540 q 439 563 433 556 q 473 605 456 583 q 513 646 491 627 q 555 706 533 677 q 601 765 578 735 q 608 779 604 772 q 616 793 613 785 q 618 820 618 806 q 618 849 617 834 q 613 887 623 873 q 602 917 604 901 q 594 921 600 920 q 586 918 589 922 q 577 924 583 922 q 564 925 571 925 q 549 924 557 925 q 537 920 541 922 q 518 922 526 924 q 503 921 510 921 q 488 920 496 920 q 473 917 480 920 q 462 906 468 911 q 453 894 456 901 q 427 872 439 883 q 400 849 414 861 q 388 836 393 844 q 373 823 382 827 q 349 798 362 808 q 330 768 336 787 q 318 756 321 762 q 311 745 315 750 q 305 739 308 742 q 300 734 302 736 q 298 726 298 731 q 298 715 298 720 q 298 692 297 704 q 296 669 298 681 q 305 652 300 658 q 322 663 313 656 q 339 674 331 669 q 355 685 346 681 q 370 696 363 689 q 406 724 391 709 q 427 742 415 735 q 446 761 439 749 q 452 772 449 766 q 457 784 454 777 q 461 795 460 789 q 465 806 463 800 q 472 817 468 812 q 475 830 476 821 q 494 800 496 826 q 492 789 494 795 q 490 777 490 784 q 492 766 490 772 q 491 755 494 761 q 472 725 477 734 q 461 708 467 716 q 382 637 422 673 q 292 576 343 601 q 269 579 278 574 q 248 587 259 585 q 235 602 241 594 q 221 616 229 610 q 214 628 217 623 q 208 640 210 633 q 192 674 197 659 q 184 704 187 689 q 186 724 184 711 q 187 746 187 736 q 199 788 189 769 q 218 823 209 807 q 222 836 221 829 q 225 848 222 842 q 236 865 229 857 q 273 899 254 884 q 308 930 292 914 q 330 947 326 937 q 344 956 336 949 q 358 967 351 962 q 378 981 368 975 q 399 994 388 987 q 419 1001 411 996 q 438 1009 427 1006 q 452 1014 445 1012 q 464 1020 458 1016 q 489 1024 476 1021 q 517 1027 502 1027 q 555 1026 534 1028 q 594 1025 575 1024 q 653 1012 628 1027 q 697 981 678 997 q 715 967 712 971 q 718 956 719 963 q 717 938 715 941 q 722 930 719 935 q 726 910 726 921 q 732 892 726 899 q 739 865 732 880 q 743 831 745 849 q 735 809 742 818 q 726 787 728 800 q 719 755 723 764 q 712 738 715 746 q 684 682 697 707 q 654 639 671 658 l 633 623 q 622 609 627 616 q 609 598 617 602 q 572 557 591 576 q 536 515 552 538 q 505 475 518 496 q 472 437 491 454 q 460 420 464 429 q 439 407 446 415 q 426 392 431 399 q 415 380 420 385 q 404 370 410 376 q 380 349 393 359 q 357 330 368 339 q 332 309 345 319 q 309 288 320 298 q 263 241 288 263 q 257 234 260 237 q 251 227 254 231 q 227 193 240 214 q 203 157 213 172 q 193 146 198 151 q 184 134 189 141 q 171 109 178 123 l 164 96 z "},"3":{"ha":681,"x_min":0,"x_max":745,"o":"m 732 944 q 742 899 739 924 q 738 850 745 873 q 733 819 735 830 q 728 798 731 808 q 711 771 718 784 q 694 747 705 758 q 674 721 681 732 q 656 699 667 709 q 638 680 643 685 q 628 671 633 675 q 612 656 617 658 q 604 651 608 654 q 598 646 601 648 q 593 640 595 643 q 579 633 586 636 q 535 591 557 612 q 488 552 513 571 q 460 532 472 537 q 442 517 449 526 q 496 524 468 514 q 542 524 519 525 q 581 510 564 522 q 594 498 591 499 q 600 496 597 498 q 608 487 602 492 q 621 476 614 481 q 640 460 631 468 q 651 441 648 452 q 652 432 652 437 q 651 422 651 427 q 656 407 654 415 q 659 391 658 399 q 660 353 662 372 q 655 316 658 335 q 654 303 654 309 q 651 292 654 297 q 640 267 648 279 q 627 243 632 255 q 613 217 620 229 q 595 193 606 205 q 587 180 589 183 q 585 174 586 178 q 569 153 575 163 q 556 133 563 144 q 541 115 548 123 q 525 99 533 106 q 490 81 506 85 q 463 65 475 76 q 439 56 450 58 q 420 46 427 53 q 389 33 404 43 q 355 19 373 23 l 339 15 q 326 9 332 12 q 312 3 319 5 q 298 -3 305 0 q 285 -8 292 -5 q 272 -15 278 -11 q 255 -20 266 -19 q 179 -33 224 -39 q 169 -28 174 -31 q 157 -24 164 -26 q 132 -20 144 -22 q 113 -15 121 -19 q 102 -7 107 -12 q 91 -3 96 -3 q 58 19 72 7 q 27 45 43 31 q 14 54 20 47 q 1 66 8 60 q 1 79 1 73 q 0 92 0 85 q 3 106 1 99 q 7 119 5 113 q 24 149 14 134 q 46 175 35 163 q 65 192 54 184 q 83 212 76 199 q 95 221 91 214 q 107 231 99 228 q 136 251 119 244 q 168 267 153 258 q 178 269 174 266 q 186 275 182 273 q 195 277 190 277 q 205 279 201 277 q 237 275 221 277 q 269 264 254 273 q 278 258 274 262 q 288 252 282 255 q 294 245 290 248 q 304 235 298 241 q 317 222 311 229 q 312 210 323 216 q 275 217 288 210 q 262 227 270 221 q 248 233 255 232 q 236 231 241 235 q 224 227 231 228 q 172 191 197 212 q 123 146 146 170 q 117 138 119 141 q 110 129 114 136 q 104 111 104 122 q 104 85 103 99 q 121 79 111 88 q 137 73 132 71 q 180 66 156 65 q 224 75 205 66 q 246 83 235 81 q 270 91 258 85 q 282 97 277 94 q 294 103 288 100 q 320 117 309 110 q 343 131 338 127 q 355 138 349 134 q 385 159 369 149 q 416 178 401 168 q 467 218 442 199 q 518 258 492 236 q 534 302 528 277 q 538 351 540 328 q 533 369 537 357 q 526 387 529 381 q 523 400 524 393 q 518 414 522 407 q 511 423 514 418 q 502 431 507 429 q 475 444 486 438 q 453 448 465 449 q 408 440 430 445 q 366 429 385 435 q 356 424 358 423 q 351 423 354 425 q 323 416 338 420 q 293 414 309 412 q 274 399 286 403 q 265 403 269 401 q 256 407 262 404 q 241 448 247 429 q 235 469 237 456 q 239 478 235 472 q 245 488 243 484 q 254 500 247 495 q 267 510 260 505 q 277 519 274 517 q 282 526 279 522 q 302 538 298 534 q 309 547 305 543 q 320 555 315 552 q 331 560 326 557 q 351 573 342 566 q 370 586 359 581 q 387 600 378 593 q 403 614 395 608 q 416 626 410 620 q 430 635 423 632 q 448 651 438 644 q 467 667 457 658 q 477 673 473 667 q 487 680 480 678 q 529 715 506 699 q 571 750 552 731 q 578 758 575 753 q 587 765 582 762 q 599 804 597 779 q 610 848 601 829 q 617 866 613 856 q 620 887 621 876 q 609 909 618 898 q 589 925 600 921 q 564 923 581 929 q 540 914 548 917 q 519 903 526 906 q 505 898 511 901 q 460 881 484 888 q 415 863 437 873 q 408 854 412 859 q 401 848 404 850 q 389 824 396 833 q 372 806 381 815 q 365 797 368 802 q 359 789 362 792 q 345 772 347 777 q 340 765 343 768 q 334 758 338 761 q 327 753 330 755 q 319 744 323 749 q 313 736 316 739 q 302 729 308 732 q 294 719 297 726 q 280 715 288 716 q 264 713 273 713 q 247 714 250 718 q 241 707 244 711 q 237 700 239 703 q 232 699 235 697 q 209 711 214 709 q 197 719 203 713 q 184 753 186 732 q 184 793 182 774 q 191 819 179 808 q 213 836 203 829 q 220 844 217 841 q 227 850 222 848 q 240 860 233 856 q 252 871 247 864 q 268 878 262 873 q 281 886 274 883 q 327 916 308 905 q 370 935 346 928 l 444 975 q 454 980 453 979 q 457 982 456 981 q 488 996 472 989 q 524 1009 505 1002 q 541 1015 532 1013 q 560 1019 549 1016 q 594 1024 578 1023 q 629 1023 610 1025 q 642 1018 636 1021 q 654 1012 647 1015 q 668 1008 661 1009 q 682 1004 675 1006 q 696 994 690 1000 q 711 983 703 989 q 721 970 713 975 q 731 958 728 964 l 732 944 z "},"4":{"ha":636,"x_min":75,"x_max":755,"o":"m 583 537 q 618 536 597 534 q 654 536 639 538 q 669 502 670 517 q 665 472 667 487 q 665 454 665 460 q 658 442 665 448 q 627 420 643 425 q 592 411 610 415 q 556 404 574 407 q 526 399 538 400 q 522 387 524 393 q 515 374 519 380 q 507 347 510 357 q 500 324 505 336 q 490 302 491 308 q 486 289 488 296 q 476 264 476 270 q 473 251 476 258 q 470 243 472 247 q 467 235 468 239 q 464 221 465 222 q 463 217 463 220 q 453 189 457 202 q 444 164 449 176 q 429 132 434 140 q 422 115 425 125 q 416 96 419 104 q 410 76 412 87 q 408 67 408 73 q 407 56 408 61 q 396 33 400 46 q 378 19 392 20 q 366 7 372 7 q 355 4 359 7 q 331 -1 338 7 q 308 -15 324 -8 q 248 -50 283 -41 q 237 -54 240 -56 q 231 -53 233 -53 q 221 -37 224 -47 q 229 -5 224 -19 q 241 22 235 8 q 250 51 244 39 q 262 77 256 62 q 281 119 274 98 q 298 163 288 141 q 307 180 302 172 q 317 198 312 189 q 334 224 326 213 q 349 250 342 236 q 363 277 355 264 q 377 305 370 290 q 388 346 385 330 q 399 381 391 362 q 380 382 391 382 q 362 380 369 382 q 335 381 349 381 q 307 378 321 381 q 277 380 293 382 q 241 381 260 378 q 212 381 227 378 q 190 391 198 384 q 176 408 182 397 q 159 420 170 418 q 136 423 146 423 q 117 425 126 423 q 98 433 106 426 q 83 448 91 441 q 77 491 75 477 q 98 510 95 503 q 107 522 106 515 q 133 553 119 532 q 142 560 138 556 q 151 568 145 564 q 198 616 174 591 q 245 663 222 640 q 260 680 252 673 q 275 696 269 688 q 296 728 285 713 q 316 762 308 743 q 333 781 327 769 q 350 799 339 792 q 370 817 358 810 q 389 836 381 825 q 479 919 437 875 q 570 1002 522 963 q 595 1029 586 1020 q 623 1032 605 1038 q 648 1021 633 1029 q 673 1004 662 1012 q 700 991 685 996 q 712 990 707 993 q 722 987 718 987 q 736 975 732 983 q 743 972 742 975 q 750 967 745 968 q 755 928 755 952 q 750 890 754 905 q 741 872 742 876 q 734 865 741 868 q 715 819 724 841 q 696 773 707 796 q 686 746 692 758 q 677 715 680 734 q 645 658 655 681 q 621 612 635 635 q 608 586 614 601 q 597 557 601 571 q 589 549 593 553 q 583 537 586 544 m 637 910 q 621 897 629 903 q 602 884 613 890 q 569 859 587 869 q 534 833 551 849 q 498 806 517 819 q 473 770 480 793 q 435 732 454 751 q 395 693 415 712 q 365 659 377 678 q 344 640 351 652 q 330 613 336 627 q 318 601 323 608 q 305 590 313 594 q 267 543 289 567 q 231 495 245 519 q 286 500 255 499 q 338 503 316 500 q 352 505 345 505 q 365 506 359 506 q 412 511 393 509 q 452 514 430 514 q 465 536 458 525 q 476 559 471 547 q 490 586 484 574 q 503 605 496 598 q 516 629 509 621 q 526 648 524 637 q 572 734 555 690 q 609 819 589 777 q 614 833 613 827 q 617 845 614 838 q 631 877 624 860 q 640 910 639 894 l 637 910 z "},"5":{"ha":648,"x_min":0,"x_max":886,"o":"m 271 529 q 279 531 277 529 q 288 536 282 533 q 308 541 297 540 q 330 547 319 543 q 339 551 335 548 q 350 555 343 553 q 359 557 354 557 q 368 559 363 557 q 378 562 373 560 q 387 564 382 563 q 399 565 393 566 q 411 566 404 564 q 427 570 419 568 q 444 571 435 571 q 460 569 457 568 q 467 570 464 570 q 492 561 481 570 q 515 544 503 552 q 539 532 528 537 q 562 521 551 528 q 570 512 568 514 q 575 510 571 510 q 601 475 590 492 q 616 431 612 458 q 620 406 618 418 q 621 380 621 395 q 619 358 621 369 q 617 336 617 347 q 612 302 617 316 q 603 283 606 292 q 595 263 600 274 q 580 222 589 243 q 560 182 571 201 q 553 170 552 171 q 552 165 553 168 l 540 153 q 526 132 533 142 q 510 115 519 122 q 494 96 506 104 q 476 79 483 88 q 469 70 473 75 q 461 62 465 65 q 454 59 458 60 q 448 56 450 58 q 441 43 446 47 q 431 33 435 39 q 385 15 404 19 q 347 5 366 11 q 314 -6 330 0 q 282 -19 298 -12 q 252 -26 267 -24 q 239 -25 245 -26 q 227 -26 233 -24 q 210 -28 213 -30 q 205 -26 208 -27 q 184 -26 194 -26 q 165 -20 175 -27 q 137 -17 152 -16 q 107 -11 122 -18 q 91 0 102 -8 q 77 9 84 5 q 65 19 69 14 q 44 47 52 39 q 31 64 37 54 q 18 85 23 73 q 8 110 14 98 q 4 119 5 114 q 0 129 3 123 q 1 159 3 144 q 7 189 0 174 q 25 201 18 193 q 43 216 33 210 q 72 197 58 210 q 81 189 79 194 q 90 176 84 183 q 108 151 102 157 q 119 136 114 144 q 148 115 132 125 q 161 104 155 110 q 174 94 167 98 q 191 87 189 90 q 195 84 193 85 q 210 83 209 84 q 213 81 210 83 q 235 80 221 79 q 255 83 250 81 q 296 92 278 81 q 332 111 315 103 q 351 123 343 118 q 368 134 359 129 q 385 149 377 141 q 401 165 393 157 q 417 181 410 172 q 433 197 425 190 q 449 210 441 203 q 463 225 457 217 q 468 237 465 231 q 473 251 471 244 q 481 269 477 262 q 487 288 484 277 q 507 343 500 313 q 506 407 513 373 q 463 435 486 423 q 412 458 439 448 q 382 456 397 460 q 350 450 366 453 q 335 448 339 449 q 327 445 331 446 q 319 443 324 444 q 311 441 315 442 q 262 414 285 430 q 217 387 240 397 q 208 379 213 382 q 195 373 202 376 q 171 378 182 372 q 138 374 156 366 q 128 387 127 381 q 119 400 129 393 q 106 431 109 412 q 109 465 103 449 q 124 486 119 472 q 133 514 129 500 q 155 565 144 540 q 172 617 165 590 q 189 654 180 636 q 208 690 198 671 q 229 734 221 713 q 252 770 237 755 q 262 777 256 773 q 271 784 267 780 q 280 800 281 792 q 288 814 279 807 q 304 844 296 829 q 321 878 313 859 q 327 894 324 884 q 332 911 330 903 q 343 945 339 929 q 358 974 347 962 q 366 978 362 977 q 377 981 370 979 q 438 998 406 997 q 503 998 471 998 q 511 1000 507 998 q 521 1001 515 1001 q 563 1001 541 1000 q 602 1001 585 1002 q 656 1010 629 1008 q 707 1016 684 1012 q 751 1025 730 1019 q 796 1029 773 1031 q 813 1029 804 1029 q 829 1034 822 1028 q 852 1034 840 1034 q 872 1031 864 1035 q 881 1020 876 1025 q 884 1004 886 1015 q 840 968 863 977 q 798 947 817 960 q 775 930 785 933 q 754 921 765 926 q 743 914 747 918 q 732 909 738 910 l 705 906 q 675 903 684 905 q 659 901 667 901 q 645 901 652 899 q 628 899 637 902 q 609 894 613 898 q 572 889 590 892 q 536 883 555 886 q 506 877 521 880 q 475 869 491 873 q 452 864 464 867 q 429 859 441 861 q 409 825 418 842 q 391 791 400 807 q 376 764 384 776 q 362 739 369 753 q 351 711 355 724 q 340 684 347 697 q 302 608 320 646 q 271 529 283 571 z "},"6":{"ha":648,"x_min":56,"x_max":727,"o":"m 724 936 q 708 927 718 929 q 693 918 699 925 q 659 908 675 913 q 625 901 642 903 q 604 894 614 897 q 583 887 594 891 q 563 876 571 882 q 536 853 548 867 q 507 830 525 840 q 461 796 481 811 q 422 764 441 781 q 397 744 407 755 q 373 724 388 732 q 360 709 366 716 q 346 696 354 703 q 321 659 334 677 q 296 623 308 642 q 291 611 293 617 q 285 600 289 605 q 277 589 281 595 q 270 576 273 582 q 261 562 266 570 q 254 545 256 553 q 249 540 251 543 q 245 530 247 537 q 237 519 240 526 q 229 506 235 511 q 226 494 231 499 q 225 481 221 488 q 238 496 233 487 q 254 507 243 505 q 305 541 274 525 q 311 548 307 544 q 320 551 315 552 q 345 564 330 560 q 374 579 357 576 q 399 590 385 586 q 427 598 414 594 q 437 602 431 600 q 450 605 444 604 q 480 602 465 606 q 510 595 495 598 q 529 583 521 589 q 548 571 537 576 q 582 526 566 552 q 610 473 598 500 q 616 460 613 468 q 614 446 618 453 q 625 392 617 418 q 632 340 632 366 q 630 310 633 326 q 624 279 627 294 q 618 252 621 263 l 610 228 q 595 197 602 213 q 579 168 589 180 q 570 156 574 160 q 562 145 566 151 q 555 133 559 140 q 538 117 541 119 q 529 102 533 110 q 517 91 525 95 q 486 57 505 71 q 469 43 479 50 q 449 27 458 35 q 435 14 442 20 q 420 3 427 7 q 400 -9 404 -7 q 393 -11 396 -11 q 382 -17 388 -14 q 370 -23 377 -20 q 358 -34 361 -37 q 346 -39 354 -38 q 332 -43 338 -39 q 315 -42 328 -42 q 304 -44 309 -42 q 293 -46 298 -46 q 282 -43 286 -46 q 274 -37 278 -39 q 263 -37 267 -37 q 252 -39 259 -37 q 212 -27 229 -38 q 179 -5 194 -16 q 165 1 171 -4 q 155 8 160 5 q 144 17 148 14 q 137 23 140 20 q 132 29 134 26 q 126 35 129 33 q 100 81 109 54 q 81 134 92 107 q 66 172 75 153 q 60 214 57 191 q 58 250 61 233 q 56 289 56 266 q 71 387 57 340 q 98 479 84 433 q 115 522 104 502 q 137 562 126 543 q 153 592 148 579 q 165 616 157 605 q 174 631 168 625 q 183 644 179 637 q 194 661 190 652 q 208 677 198 670 q 246 730 228 705 q 292 774 264 755 q 327 812 309 793 q 363 849 345 831 q 392 878 376 865 q 425 903 408 891 q 456 928 441 916 q 484 958 472 941 q 510 977 500 967 q 621 1028 560 1008 q 648 1025 632 1025 q 675 1027 665 1025 q 703 1008 690 1019 q 705 993 707 1000 q 711 979 704 986 q 720 960 713 968 q 724 936 727 951 m 197 129 q 218 105 212 113 q 229 88 224 98 q 241 86 236 85 q 254 84 247 87 q 272 77 263 81 q 292 73 281 73 q 300 76 296 75 q 309 79 304 77 q 326 83 319 81 q 340 85 334 84 q 353 90 347 88 q 366 94 359 91 q 373 95 370 95 q 381 98 376 95 q 398 102 388 100 q 414 107 408 104 q 438 132 425 117 q 449 146 445 138 q 458 160 453 153 q 466 168 461 164 q 473 176 471 172 q 482 193 477 187 q 490 205 487 198 q 497 217 494 212 q 505 229 500 222 q 518 259 511 241 q 526 292 525 277 q 530 334 529 311 q 529 378 530 358 q 528 398 529 387 q 524 416 526 410 q 519 422 522 419 q 514 429 517 425 q 505 445 509 437 q 496 458 502 453 q 488 464 492 463 q 480 468 484 465 q 452 483 465 479 q 423 488 439 487 q 408 483 416 486 q 393 479 400 480 q 377 471 385 473 q 361 465 369 468 q 349 457 354 460 q 338 450 343 454 q 321 437 330 444 q 301 429 312 431 q 286 416 294 420 q 271 404 278 411 q 266 395 267 400 q 262 384 264 389 q 246 357 255 370 q 241 328 237 343 q 235 300 236 311 q 233 283 233 290 q 241 260 235 271 q 251 239 248 250 q 270 223 263 229 q 283 213 277 217 q 291 210 288 210 q 296 203 294 209 q 281 190 297 193 q 255 191 266 187 q 243 201 244 199 q 241 205 243 203 q 229 216 235 209 q 217 227 224 222 q 200 250 205 243 q 191 264 195 256 q 184 278 187 271 q 174 290 180 285 q 174 205 168 247 q 197 129 179 163 z "},"7":{"ha":600,"x_min":34,"x_max":846,"o":"m 844 1023 q 842 1011 846 1016 q 842 1002 838 1006 q 833 951 837 978 q 818 905 829 924 q 802 884 811 894 q 787 864 793 873 q 779 855 781 859 q 773 845 776 852 q 743 806 755 827 q 712 766 730 784 q 697 743 705 754 q 680 722 689 732 q 658 693 670 707 q 633 667 646 680 q 611 631 623 647 q 589 594 600 616 q 582 588 585 591 q 576 581 579 585 q 550 551 562 563 q 528 524 538 538 q 519 512 521 513 q 515 509 517 511 q 504 494 510 499 q 494 481 498 488 q 461 450 479 467 q 430 415 444 434 q 425 409 427 411 q 419 403 422 407 q 401 380 408 393 q 381 361 393 366 q 347 314 362 339 q 312 266 331 289 q 298 240 304 250 q 288 221 293 231 q 258 170 274 195 q 227 119 241 145 q 209 87 217 104 q 190 56 201 71 q 183 47 187 50 q 179 37 179 43 q 168 19 172 28 q 157 1 163 9 q 119 -4 138 -8 q 106 -10 110 -7 q 92 -12 103 -14 q 71 -22 80 -15 q 47 -26 61 -28 q 36 -11 38 -23 q 38 12 34 1 q 46 26 41 19 q 54 39 52 33 q 59 58 57 50 q 65 72 61 65 q 71 83 68 79 q 77 95 75 88 q 96 120 87 107 q 114 144 104 133 q 134 174 125 159 q 152 208 144 189 q 180 254 168 231 q 205 298 191 278 q 274 402 239 353 q 354 491 309 452 q 367 499 361 494 q 380 511 373 505 q 397 530 389 521 q 415 548 406 538 q 424 557 419 553 q 431 568 429 562 l 442 579 q 455 596 450 590 q 463 612 460 602 q 494 656 477 635 q 526 699 510 678 q 568 768 547 732 q 612 834 589 804 q 640 871 627 852 q 665 911 652 890 q 644 912 656 916 q 625 913 632 909 q 597 911 609 911 q 574 911 586 911 q 550 909 563 910 q 521 905 537 907 q 498 899 507 902 q 476 891 490 897 q 463 891 468 888 q 452 891 458 894 q 429 879 435 887 q 418 875 422 876 q 408 871 415 873 q 380 864 393 868 q 351 854 366 860 q 320 850 336 850 q 289 844 304 849 q 259 852 274 845 q 233 869 244 860 q 213 875 217 875 q 206 878 209 875 q 195 882 199 880 q 187 886 191 884 q 174 886 180 887 q 160 887 168 884 q 149 893 153 890 q 138 899 145 897 q 140 907 141 903 q 141 914 138 910 q 171 935 151 930 q 210 943 191 940 q 224 946 217 944 q 237 951 231 948 q 252 953 244 952 q 267 956 259 954 q 294 963 281 959 q 323 970 308 967 q 351 977 335 972 q 381 983 366 982 q 395 983 388 983 q 408 985 401 982 q 423 994 419 990 q 429 1000 426 997 q 437 1006 433 1004 q 457 1003 452 1001 q 469 1008 463 1005 q 482 1009 476 1009 q 496 1012 488 1009 q 524 1017 510 1016 q 551 1019 537 1017 q 578 1025 566 1021 q 606 1028 590 1029 q 626 1026 618 1027 q 640 1025 633 1025 q 654 1024 646 1024 q 674 1024 662 1024 q 715 1027 693 1029 q 758 1027 736 1025 q 793 1029 777 1028 q 825 1029 808 1031 q 833 1025 830 1028 q 844 1023 837 1021 z "},"8":{"ha":635,"x_min":20,"x_max":859,"o":"m 856 1095 q 857 1087 856 1092 q 856 1080 859 1082 q 846 1061 853 1070 q 833 1046 840 1053 q 820 1023 826 1035 q 807 997 814 1010 q 801 970 799 978 q 802 956 803 963 q 798 945 800 949 q 793 936 796 941 q 789 922 791 929 q 783 907 787 914 q 777 892 779 901 q 773 878 774 884 q 762 863 766 871 q 751 849 758 854 q 739 828 747 837 q 722 811 731 819 q 708 793 715 803 q 692 777 701 784 q 664 743 678 760 q 635 709 650 726 q 629 701 632 704 q 623 693 625 699 q 583 650 601 671 q 544 605 564 628 q 493 559 517 583 q 450 509 469 536 q 476 467 461 486 q 499 422 491 449 q 512 400 507 412 q 524 378 517 388 q 531 351 529 362 q 538 330 533 339 q 547 290 541 308 q 553 270 552 279 q 553 247 553 260 q 550 180 553 214 q 533 117 547 145 q 526 102 532 107 q 521 90 521 96 q 482 43 502 61 q 442 9 463 26 q 410 0 426 7 q 380 -14 395 -7 q 351 -20 363 -12 q 324 -31 339 -28 q 298 -39 311 -37 q 277 -46 285 -42 q 239 -48 258 -49 q 203 -50 221 -47 q 166 -45 178 -53 q 141 -33 155 -38 q 134 -23 138 -26 q 129 -15 130 -20 q 104 5 117 -4 q 79 30 91 15 q 71 37 75 33 q 65 46 66 42 q 51 64 56 61 q 43 75 46 68 q 28 134 33 103 q 20 199 23 165 q 34 233 26 220 q 49 264 42 247 q 57 281 52 273 q 68 297 62 290 q 79 313 73 305 q 90 327 84 320 q 106 342 100 334 q 122 357 113 350 q 149 390 136 374 q 176 420 161 406 q 199 441 189 430 q 221 463 209 453 q 266 517 243 491 q 315 567 289 543 q 306 585 312 576 q 294 601 300 593 q 286 621 289 612 q 278 640 282 631 q 270 657 275 650 q 259 675 264 665 q 254 700 255 686 q 250 728 252 713 q 246 745 248 735 q 250 764 244 755 q 254 778 252 770 q 258 792 255 785 q 267 808 262 800 q 273 826 271 817 q 296 871 282 854 q 316 907 309 888 q 328 922 326 911 q 340 933 335 928 q 351 944 345 939 q 377 966 362 955 q 389 979 384 971 q 404 990 395 986 q 456 1017 425 1008 q 519 1019 488 1025 q 526 1016 522 1017 q 533 1012 529 1015 q 607 996 575 1002 q 667 979 639 990 q 679 975 673 978 q 692 972 685 972 q 701 966 697 970 q 711 958 705 962 q 733 979 728 971 q 745 993 738 986 q 751 1002 747 1000 q 761 1010 755 1005 q 773 1027 768 1019 q 787 1042 779 1036 q 793 1046 789 1044 q 800 1050 798 1047 q 825 1073 815 1061 q 846 1101 836 1085 l 856 1095 m 613 922 q 589 926 601 925 q 566 929 576 926 q 513 928 543 926 q 465 920 484 930 q 454 918 458 921 q 442 914 449 914 q 435 906 439 910 q 429 898 431 902 q 410 878 418 888 q 392 859 403 867 q 374 833 382 845 q 359 806 366 821 q 358 799 358 803 q 357 791 358 795 q 351 758 354 774 q 354 727 347 742 q 360 713 357 720 q 366 700 363 707 q 386 661 377 680 q 401 623 395 643 q 410 629 406 624 q 423 633 414 635 q 437 640 426 637 q 445 646 441 643 q 452 651 449 648 q 456 659 454 655 q 461 669 458 662 q 470 681 465 675 q 480 693 475 686 q 503 716 491 705 q 520 739 514 732 q 533 751 526 745 q 546 766 540 758 q 559 783 552 774 q 585 809 572 796 q 613 836 598 822 q 624 850 616 842 q 640 869 631 861 q 654 892 650 878 q 662 906 659 897 q 637 914 650 909 q 613 922 625 920 m 290 71 q 309 72 298 71 q 327 77 319 73 q 339 91 332 80 q 351 103 350 100 q 354 109 351 106 q 374 132 363 121 q 396 157 385 144 q 411 177 404 168 q 425 195 418 186 q 439 248 435 220 q 442 300 444 275 q 440 327 441 315 q 437 351 439 339 q 408 422 426 389 q 374 484 389 456 q 298 418 334 453 q 231 346 263 384 q 178 284 202 319 q 152 199 155 250 q 157 183 155 191 q 161 168 159 175 q 180 133 170 152 q 204 94 191 114 q 233 61 217 73 q 263 64 248 64 q 290 71 278 64 z "},"9":{"ha":571,"x_min":130,"x_max":669,"o":"m 602 544 q 589 515 594 532 q 576 483 583 499 q 559 448 568 467 q 540 411 551 430 q 526 387 533 399 q 515 358 518 374 q 478 292 496 324 q 439 229 460 260 q 415 192 427 210 q 388 157 403 174 q 377 146 382 152 q 368 136 372 140 q 347 117 357 126 q 326 98 336 109 q 321 92 323 95 q 315 85 319 88 q 296 68 301 76 q 281 56 290 60 q 257 33 271 42 q 232 14 243 24 q 227 4 228 7 q 222 -1 225 1 q 210 -7 217 -4 q 197 -15 203 -11 q 185 -23 191 -19 q 174 -30 179 -27 q 164 -30 168 -31 q 156 -34 160 -28 q 146 -31 152 -31 q 137 -26 141 -30 q 133 -13 133 -19 q 134 4 133 -7 q 143 35 136 16 q 153 68 151 53 q 155 76 156 72 q 157 84 155 80 q 165 92 163 87 q 172 103 168 98 q 198 127 183 117 q 224 152 213 137 q 250 177 239 163 q 277 205 262 191 q 297 229 285 220 q 317 254 309 239 q 350 291 338 277 q 373 323 362 305 q 378 330 377 326 q 382 339 380 335 q 396 365 389 351 q 411 393 403 378 q 426 420 419 404 q 439 450 433 435 q 446 464 444 457 q 452 477 449 471 q 430 462 439 471 q 410 446 420 453 q 400 441 406 444 q 392 435 395 438 q 367 423 374 427 q 350 418 359 419 q 326 414 335 412 q 307 418 317 415 q 277 424 292 420 q 250 437 262 427 q 239 446 243 441 q 228 454 235 452 q 201 479 217 469 q 171 503 184 488 q 157 521 165 513 q 144 540 149 529 q 141 550 141 544 q 138 562 141 556 q 134 577 136 568 q 132 597 133 586 q 136 660 130 629 q 148 720 141 690 q 161 752 156 735 q 178 780 167 769 q 201 811 184 798 q 208 822 203 818 q 217 831 213 826 q 231 851 224 842 q 247 868 237 860 q 281 908 266 887 q 315 948 297 929 q 357 981 339 966 q 370 990 363 987 q 389 997 377 993 q 399 1000 395 998 q 408 1005 403 1002 q 443 1013 426 1012 q 477 1012 460 1015 q 503 1012 490 1012 q 522 1005 517 1012 q 570 987 552 1001 q 609 958 589 972 q 623 943 614 949 q 636 926 631 936 q 647 897 643 914 q 656 865 651 880 q 662 835 662 850 q 663 806 662 819 q 667 785 666 795 q 669 765 667 774 q 665 733 669 750 q 659 704 662 716 q 653 678 656 689 q 644 655 650 667 q 637 623 644 639 q 631 594 635 605 q 621 572 627 583 q 609 552 610 557 q 602 544 608 547 m 556 822 q 537 859 544 846 q 526 883 530 872 q 523 892 524 888 q 519 903 522 897 q 509 916 517 911 q 496 929 500 921 q 472 931 483 935 q 449 928 461 928 q 439 920 444 925 q 427 914 435 916 q 398 889 415 899 q 366 864 381 879 q 327 814 346 844 q 312 798 317 807 q 297 780 307 788 q 275 748 288 762 q 251 715 262 734 q 245 683 250 696 q 240 656 241 670 q 239 629 239 643 q 245 606 240 616 q 288 514 255 551 q 304 509 296 517 q 332 508 317 506 q 362 511 347 510 q 403 515 385 514 q 437 525 420 517 q 465 553 450 540 q 494 583 480 567 q 500 591 498 589 q 506 600 503 594 q 511 615 510 614 q 514 618 513 616 q 519 630 517 627 q 522 637 521 633 q 532 651 526 648 q 545 683 537 670 q 557 709 552 696 q 564 728 563 719 q 564 741 566 735 q 563 753 563 746 q 567 778 564 765 q 572 804 570 791 q 566 814 570 810 q 556 822 563 819 z "},"Ð":{"ha":765,"x_min":41,"x_max":863,"o":"m 189 438 q 176 438 182 438 q 163 437 170 438 q 144 434 149 433 q 136 433 140 435 q 123 431 129 431 q 111 429 117 430 q 96 423 104 426 q 79 422 88 420 q 71 425 75 422 q 62 430 66 427 q 50 436 56 434 q 42 444 45 438 q 45 464 45 452 q 57 490 46 476 q 64 498 60 494 q 72 506 68 502 q 79 516 77 513 q 90 525 81 519 q 102 528 96 528 q 114 533 107 529 q 137 532 125 530 q 155 529 149 533 q 193 524 174 528 q 232 522 212 521 q 245 534 243 529 q 251 547 248 540 q 265 572 259 557 q 278 601 271 587 q 300 647 289 628 q 305 656 302 652 q 309 665 308 659 q 319 689 313 677 q 330 712 324 701 q 351 753 340 735 q 373 792 361 770 q 302 766 335 780 q 240 732 270 751 q 224 717 231 726 q 208 701 217 708 q 151 681 180 681 q 136 694 138 688 q 162 740 146 722 q 194 777 178 758 q 221 796 209 787 q 245 817 233 806 q 270 838 258 827 q 296 856 282 849 q 332 874 315 865 q 365 894 349 883 q 420 928 389 913 q 479 956 450 943 q 508 968 494 963 q 537 978 522 974 q 568 983 552 981 q 600 991 585 986 q 641 1001 621 994 q 684 1008 661 1008 q 692 1005 689 1006 q 700 1002 694 1004 q 725 1000 718 1002 q 739 994 732 997 q 764 983 753 989 q 787 970 774 977 q 798 962 793 966 q 807 954 802 958 q 821 943 818 947 q 829 936 825 940 q 842 926 836 929 q 846 913 848 922 q 857 884 852 898 q 863 853 863 869 q 861 840 863 846 q 856 826 859 833 q 852 808 853 817 q 848 793 852 800 q 842 756 845 774 q 836 718 838 738 q 834 703 834 711 q 833 688 834 694 q 823 654 830 670 q 817 624 817 639 q 799 579 808 597 q 779 544 789 562 q 755 501 765 525 q 735 454 746 477 q 732 444 732 449 q 728 435 731 439 q 715 415 716 420 q 711 403 713 410 q 702 382 707 393 q 693 359 697 370 q 685 345 690 355 q 675 328 681 336 q 662 311 669 320 q 617 247 640 277 q 567 189 594 217 q 496 126 533 155 q 422 66 458 98 q 395 44 408 56 q 365 22 381 33 q 351 12 358 16 q 336 1 343 8 q 282 -34 315 -19 q 262 -40 266 -38 q 255 -42 258 -42 q 239 -45 247 -45 q 222 -46 231 -45 q 214 -47 218 -46 q 205 -49 210 -49 q 182 -43 194 -47 q 160 -37 171 -39 q 151 -34 156 -35 q 141 -31 146 -33 q 123 -22 132 -26 q 107 -12 115 -18 q 83 3 87 -7 q 72 20 79 12 q 59 66 64 46 q 47 113 54 87 q 43 130 45 122 q 42 146 41 137 q 47 161 43 153 q 56 178 52 170 q 73 216 66 197 q 90 255 79 236 q 94 262 92 258 q 99 269 96 266 q 106 285 103 277 q 113 300 110 293 q 135 345 123 323 q 160 389 146 368 q 176 418 171 408 q 189 438 182 427 m 499 525 q 498 516 496 519 q 496 507 499 513 q 489 498 494 503 q 480 487 484 494 q 471 468 473 476 q 458 453 468 460 q 429 448 445 450 q 399 444 412 445 q 370 442 388 444 q 338 444 351 441 q 323 445 328 445 q 317 430 320 437 q 303 411 311 419 q 290 393 296 403 q 280 372 285 378 q 273 359 275 366 q 260 336 266 349 q 248 312 255 324 q 242 304 245 308 q 236 294 239 300 q 229 277 232 286 q 222 258 227 269 q 214 240 218 248 q 206 224 209 232 q 197 205 201 214 q 190 187 193 195 q 183 168 186 178 q 176 149 180 159 q 165 124 168 133 q 160 107 163 115 q 154 90 157 99 q 151 73 151 81 q 144 64 145 69 q 142 52 142 58 q 142 40 142 46 q 138 30 142 34 q 173 41 160 33 q 205 52 186 49 q 229 68 218 58 q 258 80 239 79 q 296 109 279 94 q 339 134 313 125 q 382 168 359 152 q 419 206 404 183 q 438 218 426 209 q 454 237 446 228 q 468 258 461 247 q 491 282 481 269 q 515 305 500 296 q 530 328 521 319 q 548 347 540 336 q 568 376 559 361 q 587 403 576 391 q 627 471 606 438 q 665 543 648 503 q 704 618 689 576 q 717 644 713 628 q 734 662 720 659 q 745 700 745 678 q 749 742 746 722 q 749 754 750 749 q 749 765 747 760 q 751 787 749 776 q 750 807 753 798 q 743 821 743 818 q 742 827 743 825 q 738 842 738 833 q 734 858 735 853 q 730 869 734 863 q 720 887 723 879 q 709 902 716 895 q 690 903 699 903 q 670 903 681 903 q 634 896 651 902 q 600 883 617 890 q 576 873 587 879 q 555 863 566 868 q 532 849 543 856 q 511 834 522 842 q 508 827 510 830 q 505 819 506 823 q 482 786 490 804 q 465 751 475 768 q 446 717 454 734 q 427 682 437 700 q 413 656 420 667 q 400 631 406 644 q 377 586 382 602 q 367 568 373 576 q 358 548 361 559 q 353 538 355 543 q 349 528 351 533 q 365 530 357 529 q 382 530 373 530 q 404 530 393 532 q 426 529 415 528 q 452 531 438 529 q 477 533 465 533 q 490 530 484 530 q 499 525 496 529 z "},"ð":{"ha":517,"x_min":-30,"x_max":694,"o":"m 311 245 q 312 266 313 255 q 312 288 311 277 q 300 320 305 302 q 286 351 296 338 q 271 367 273 363 q 266 372 269 370 q 252 378 260 377 q 237 381 244 380 q 201 376 216 385 q 174 359 187 368 q 136 326 152 346 q 127 311 132 319 q 119 294 122 302 q 110 273 114 282 q 103 252 106 264 q 95 230 96 239 q 92 214 94 221 q 87 186 91 201 q 85 161 84 171 q 88 149 85 156 q 94 140 91 142 q 100 125 96 133 q 106 113 103 117 q 123 100 113 103 q 148 94 134 98 q 168 87 163 85 q 176 88 174 88 q 208 103 194 91 q 235 122 221 115 q 261 155 245 138 q 289 191 277 172 q 294 203 292 197 q 300 216 297 210 q 306 231 302 218 q 311 245 309 243 m 692 722 q 692 713 690 716 q 694 705 694 711 q 691 696 693 701 q 686 685 689 692 q 684 666 684 674 q 678 650 685 658 q 653 636 666 643 q 629 625 640 629 q 604 616 618 623 q 575 606 589 610 q 562 604 566 605 q 555 602 559 604 q 540 598 551 601 q 538 583 538 590 q 536 567 537 575 q 530 547 533 557 q 525 525 528 536 q 520 505 522 514 q 515 484 518 495 q 510 472 513 477 q 505 460 507 467 q 502 450 502 454 q 499 441 502 446 q 476 382 486 410 q 463 351 468 362 q 450 320 458 340 q 435 288 445 305 q 419 259 426 270 q 408 239 412 248 q 396 218 403 229 q 380 196 389 209 q 372 178 372 183 q 356 153 362 167 q 339 129 350 138 q 326 106 335 115 q 309 88 317 98 q 283 53 294 68 q 252 27 271 38 q 236 12 245 16 q 225 -1 228 4 q 198 -18 213 -8 q 167 -31 183 -27 q 122 -30 144 -37 q 81 -11 100 -23 q 62 -6 69 -12 q 43 3 54 0 q 11 27 28 16 q -15 57 -7 38 q -21 87 -18 72 q -27 114 -24 102 q -28 140 -30 126 q -27 167 -26 153 q -28 192 -27 182 q -22 217 -28 202 q -11 247 -14 236 q -5 266 -8 258 q 3 281 -1 273 q 12 296 7 289 q 31 320 20 308 q 53 343 42 332 q 68 361 61 354 q 91 382 79 373 q 115 403 103 391 q 130 415 121 411 q 155 429 144 423 q 182 441 167 434 q 203 448 193 446 q 227 453 213 450 q 243 453 236 453 q 256 456 250 453 q 266 471 252 467 q 286 473 279 475 q 308 467 300 473 q 323 453 316 461 q 353 425 338 442 q 359 420 355 422 q 366 416 363 419 q 374 401 372 410 q 382 387 376 393 q 390 396 388 391 q 395 406 392 401 q 429 488 412 446 q 457 566 446 529 q 444 561 450 563 q 427 556 437 559 q 413 548 416 548 q 406 545 410 548 q 395 540 400 543 q 387 534 391 537 q 374 527 381 532 q 359 521 366 522 q 352 521 355 519 q 345 524 349 522 q 332 524 338 524 q 323 528 326 524 q 319 547 321 536 q 323 574 316 559 q 326 581 324 576 q 331 589 328 585 q 334 600 334 595 q 340 612 335 605 q 350 618 346 617 q 359 625 354 620 q 379 631 369 627 q 395 632 389 635 q 429 639 412 637 q 464 647 446 640 q 475 667 475 658 q 476 685 475 677 q 476 721 479 705 q 475 755 473 736 q 472 772 475 761 q 473 792 469 785 q 485 800 477 799 q 499 806 492 802 q 516 804 510 806 q 532 803 522 802 q 534 796 534 800 q 536 788 534 792 q 543 758 541 770 q 542 741 543 750 q 543 724 541 732 q 547 680 547 701 q 570 688 562 684 q 590 696 579 692 q 609 701 600 699 q 629 705 618 703 q 650 713 640 708 q 673 724 661 719 q 683 723 678 722 q 692 722 688 724 z "},"Ł":{"ha":538,"x_min":-39,"x_max":490,"o":"m 453 642 q 452 633 450 636 q 454 624 454 629 q 450 613 453 618 q 445 600 448 608 q 441 579 441 587 q 433 562 441 571 q 406 547 419 555 q 378 536 392 540 q 349 526 366 532 q 317 518 332 521 q 302 515 308 518 q 288 468 294 492 q 270 423 282 444 q 239 351 258 384 q 206 282 221 319 q 197 266 199 279 q 173 214 182 243 q 151 161 164 186 q 133 119 144 141 q 118 76 122 98 q 162 94 141 83 q 209 111 183 104 q 277 115 243 115 q 342 123 312 115 q 401 132 374 129 q 450 122 427 134 q 450 96 453 111 q 444 69 448 80 q 437 50 439 57 q 427 33 434 43 q 413 24 420 27 q 399 18 406 22 q 374 15 385 20 q 355 18 369 20 q 321 12 336 19 q 288 8 305 5 q 264 5 277 5 q 236 1 251 4 q 209 -8 221 -1 q 182 -12 197 -15 q 151 -25 167 -19 q 118 -38 134 -31 q 104 -45 113 -39 q 90 -52 94 -47 q 76 -56 83 -54 q 62 -60 69 -57 q 43 -56 52 -60 q 23 -49 34 -53 q 14 -40 16 -45 q 5 -27 11 -35 q -18 7 -11 -11 q -33 19 -22 11 q -32 58 -39 41 q -18 92 -24 75 q -4 135 -9 113 q 15 172 1 157 q 30 201 19 184 q 43 229 38 214 q 56 258 47 244 q 64 271 60 264 q 73 283 69 277 q 78 292 75 289 q 83 301 81 294 q 104 331 96 313 q 123 362 111 349 q 141 395 134 377 q 159 427 148 412 q 166 448 163 441 q 174 463 170 454 q 153 465 165 471 q 136 458 140 458 q 126 456 132 458 q 106 445 114 450 q 91 437 99 442 q 75 430 83 431 q 66 430 71 429 q 58 433 62 431 q 44 435 50 435 q 34 439 38 434 q 31 461 34 449 q 37 490 28 473 q 41 498 38 494 q 46 509 43 503 q 50 519 49 515 q 58 530 52 524 q 68 538 64 536 q 79 545 72 540 q 101 551 90 547 q 119 553 113 556 q 157 559 138 559 q 195 567 176 560 q 208 571 202 570 q 218 575 213 572 q 225 592 222 583 q 231 609 228 601 q 234 619 231 614 q 235 628 237 624 q 242 644 241 635 q 250 661 243 654 q 256 681 248 670 q 261 692 258 688 q 266 701 264 697 q 281 734 278 724 q 289 753 285 745 q 294 759 292 755 q 300 768 297 762 q 304 783 302 774 q 309 798 307 791 q 313 810 312 804 q 317 819 315 815 q 326 834 327 833 q 327 838 326 836 q 332 849 330 845 q 338 860 335 853 q 363 920 354 897 q 387 966 373 943 q 384 988 387 977 q 387 1009 381 1000 q 408 1022 397 1015 q 430 1032 418 1029 q 440 1027 435 1034 q 449 1019 445 1021 q 471 992 461 1008 q 487 960 481 977 q 489 935 490 949 q 484 911 488 921 q 473 888 480 897 q 473 859 476 871 q 465 836 469 846 q 444 803 452 822 q 430 782 435 793 q 418 760 425 770 q 406 738 412 749 q 395 713 399 727 q 380 691 382 699 q 372 678 378 684 l 346 618 q 363 622 355 621 q 382 625 372 623 q 406 635 393 629 q 429 643 418 640 q 441 643 435 642 q 453 642 448 644 z "},"ł":{"ha":363,"x_min":-98,"x_max":461,"o":"m 362 826 q 345 814 350 823 q 336 792 340 804 q 328 776 331 781 q 326 761 324 770 q 249 614 283 690 q 179 461 214 538 q 230 526 206 488 q 279 591 254 564 q 321 677 298 637 q 357 768 345 718 q 358 797 351 784 q 363 826 365 810 l 362 826 m 328 448 q 328 439 326 442 q 330 429 330 435 q 326 418 328 423 q 320 406 323 412 q 315 385 315 393 q 308 366 315 377 q 281 353 294 359 q 252 342 267 346 q 224 332 241 338 q 193 324 208 327 q 178 322 182 323 q 170 320 174 321 q 153 313 161 317 q 133 305 144 309 q 122 252 127 279 q 110 195 117 224 q 105 176 107 184 q 100 157 103 167 q 99 134 98 146 q 95 111 100 122 q 98 96 98 104 q 103 80 99 87 q 111 72 106 76 q 119 68 115 68 q 130 73 129 73 q 134 73 132 72 q 148 84 141 77 q 160 98 155 91 q 170 102 167 99 q 178 109 174 106 q 185 113 182 111 q 191 117 189 114 q 228 147 210 137 q 256 172 245 157 q 281 187 270 180 q 295 199 289 191 q 311 210 301 206 q 316 217 313 214 q 323 224 319 220 q 354 245 339 235 q 387 267 369 256 q 395 278 389 274 q 406 288 400 282 q 412 295 410 290 q 422 301 415 300 q 428 311 423 308 q 437 320 433 313 q 456 311 452 316 q 461 300 461 305 q 448 280 450 285 q 441 273 446 275 q 399 224 422 245 q 358 178 377 203 q 346 164 351 171 q 334 151 340 157 q 307 127 319 140 q 281 103 294 114 q 268 92 274 96 q 255 81 262 88 q 243 71 248 75 q 231 61 237 66 q 214 42 222 52 q 198 22 206 33 q 171 5 183 15 q 142 -11 159 -4 q 129 -24 136 -15 q 114 -35 122 -33 q 91 -37 103 -39 q 71 -31 79 -35 q 60 -24 64 -26 q 53 -23 56 -23 q 35 16 41 -5 q 23 60 30 37 q 19 74 20 66 q 16 91 18 81 q 14 102 15 96 q 11 114 14 107 q 5 128 8 121 q 1 144 3 136 q -1 176 -1 160 q 3 206 0 191 q 9 236 5 221 q 18 267 14 251 q 9 264 14 264 q 1 262 5 264 q -9 256 -4 259 q -20 250 -15 252 q -34 242 -26 247 q -50 236 -42 237 q -58 236 -54 235 q -68 239 -62 237 q -81 240 -75 240 q -92 244 -87 240 q -95 267 -92 254 q -91 296 -98 279 q -85 303 -88 298 q -79 313 -81 308 q -75 326 -76 321 q -68 336 -73 330 q -57 344 -61 342 q -46 351 -53 346 q -24 357 -35 353 q -5 358 -12 361 q 26 363 9 362 q 58 369 42 365 q 66 394 61 382 q 75 419 71 406 q 84 441 81 429 q 91 465 87 453 q 101 489 95 476 q 110 514 107 502 q 117 541 114 528 q 126 566 121 555 q 146 620 137 594 q 167 671 156 646 q 172 688 170 680 q 180 703 175 696 q 187 717 183 711 q 195 730 191 723 q 200 740 195 736 q 208 749 205 743 q 218 770 214 760 q 228 792 221 781 l 244 812 q 250 823 247 818 q 258 833 252 829 q 290 882 273 857 q 327 933 308 906 q 355 969 339 952 q 385 1002 370 986 q 398 1017 391 1009 q 414 1027 406 1025 q 441 1024 426 1028 q 448 1010 445 1017 q 454 993 452 1002 q 452 911 457 951 q 441 834 446 872 q 439 821 438 827 q 438 808 439 815 q 431 787 435 800 q 425 764 427 774 q 416 730 425 745 q 406 700 408 715 q 401 691 401 697 q 396 682 400 685 q 387 655 393 667 q 377 631 381 643 q 336 576 357 602 q 296 521 315 549 q 261 472 279 495 q 225 423 243 449 q 240 427 232 426 q 256 430 248 427 q 281 441 269 435 q 304 449 293 446 q 317 449 311 448 q 328 448 323 450 z "},"Š":{"ha":652,"x_min":-14,"x_max":987,"o":"m 269 808 q 277 828 275 819 q 285 848 278 837 q 334 884 312 863 q 384 918 355 905 q 414 937 403 932 q 437 949 426 941 q 460 960 449 955 q 487 970 472 966 q 506 977 498 972 q 522 985 514 982 q 560 997 541 991 q 597 1008 579 1002 q 613 1015 604 1010 q 631 1017 623 1019 q 649 1016 646 1015 q 655 1017 652 1017 q 673 1015 666 1019 q 690 1008 681 1010 q 706 1004 699 1005 q 720 1000 713 1002 q 732 992 727 997 q 741 983 736 987 q 751 977 746 981 q 761 968 755 972 q 785 922 772 945 q 799 867 799 899 q 789 854 791 854 q 787 852 788 854 q 765 835 772 842 q 750 819 758 827 l 731 800 q 722 795 727 798 q 715 787 716 793 q 697 773 704 781 q 680 761 690 765 q 650 737 667 746 q 617 718 632 728 q 597 705 602 708 q 589 699 593 703 q 562 685 574 692 q 536 673 551 678 q 523 666 529 670 q 507 663 517 662 q 494 669 500 666 q 481 663 487 673 q 448 669 464 661 q 431 694 433 678 q 422 731 415 708 q 432 753 425 742 q 445 773 439 764 q 457 797 452 785 q 469 819 463 808 q 508 857 488 840 q 557 882 528 875 q 576 887 567 884 q 594 892 586 890 q 602 892 598 890 q 610 892 606 895 q 614 883 616 888 q 613 871 613 878 q 602 863 609 865 q 589 859 595 861 q 578 854 583 857 q 571 842 572 850 q 503 761 533 810 q 514 754 507 758 q 528 749 521 750 q 553 754 538 746 q 575 766 567 762 q 643 814 613 784 q 660 829 651 821 q 673 845 669 837 q 682 859 678 852 q 693 869 686 865 q 690 889 694 882 q 679 904 685 897 q 666 918 673 911 q 656 935 659 925 q 645 944 650 937 q 633 954 640 951 q 622 955 631 954 q 612 956 613 956 q 559 941 578 949 q 521 925 540 933 q 435 868 475 901 q 426 863 431 865 q 418 857 420 860 q 406 844 411 852 q 395 827 401 836 q 380 809 388 818 q 370 789 373 800 q 359 774 362 785 q 350 755 357 762 q 343 736 347 745 q 336 715 339 727 q 355 677 349 690 q 368 650 361 663 q 376 623 369 635 q 391 597 384 612 q 425 531 410 566 q 460 465 441 496 q 475 428 468 446 q 498 396 483 410 q 505 378 500 387 q 514 359 510 369 q 529 324 519 343 q 538 305 533 313 q 547 289 544 297 q 555 258 552 277 q 557 228 559 240 q 556 209 557 214 q 552 200 555 203 q 547 193 549 197 q 541 176 544 189 q 513 137 529 155 q 484 96 496 119 q 467 77 476 85 q 448 61 457 69 q 428 49 438 54 q 410 35 418 43 q 361 6 387 15 q 315 -18 336 -3 q 298 -20 307 -18 q 282 -24 290 -22 q 268 -30 275 -27 q 252 -35 260 -33 q 241 -41 245 -38 q 229 -46 236 -43 q 189 -51 210 -50 q 144 -46 167 -52 q 104 -38 118 -37 q 79 -27 90 -39 q 71 -20 72 -24 q 65 -12 71 -16 q 46 3 50 0 q 38 9 42 5 q 5 47 18 26 q -3 61 1 54 q -8 73 -7 68 q -9 90 -11 81 q -12 107 -7 99 q -12 127 -11 117 q -14 146 -14 138 q -10 171 -14 159 q -11 190 -7 183 q -3 216 -8 208 q 11 236 3 225 q 50 256 34 247 q 81 273 65 264 q 93 278 88 275 q 103 283 98 281 q 129 294 115 290 q 157 305 142 298 q 182 317 170 312 q 208 330 195 323 q 223 334 216 330 q 240 338 231 338 q 247 337 243 338 q 255 336 251 336 q 270 336 262 336 q 285 334 278 336 q 297 326 292 331 q 312 320 302 320 q 328 299 321 311 q 338 275 334 288 q 342 256 340 269 q 345 236 345 244 q 330 205 343 216 q 307 179 317 194 q 264 156 288 172 q 240 151 251 157 q 214 141 229 145 q 199 141 208 140 q 184 140 191 142 q 171 134 178 138 q 157 133 164 130 q 147 144 151 136 q 146 160 144 152 q 170 177 155 174 q 201 189 186 180 q 224 206 214 195 q 245 228 235 217 q 262 244 252 236 q 266 266 271 252 q 238 271 254 275 q 210 262 222 267 q 162 239 186 251 q 115 216 138 227 q 99 206 104 212 q 95 195 96 202 q 91 183 94 189 q 85 142 81 163 q 92 130 88 136 q 96 117 96 123 q 106 106 102 111 q 114 96 110 102 q 121 93 118 94 q 129 91 123 92 q 161 76 142 83 q 186 68 170 73 q 210 62 203 62 q 228 65 217 61 q 247 72 239 69 q 311 103 278 87 q 374 134 343 119 q 395 150 385 141 q 411 170 404 159 q 431 206 423 184 q 444 251 439 228 q 445 261 445 256 q 445 270 445 266 q 437 288 437 285 q 435 294 438 292 q 424 317 426 311 q 419 328 422 323 q 396 354 410 343 q 378 387 382 365 q 367 404 370 393 q 353 418 363 415 q 348 429 350 425 q 343 442 346 434 q 331 463 335 452 q 317 477 323 469 q 305 495 312 486 q 290 511 294 506 q 281 526 285 518 q 271 541 278 534 q 261 553 267 548 q 252 567 255 559 q 235 595 241 579 q 224 629 228 610 q 218 658 227 646 q 214 689 210 670 q 229 727 221 708 q 243 762 237 746 q 251 772 250 765 q 255 787 252 780 l 269 808 m 614 1268 q 648 1249 633 1261 q 685 1230 662 1237 q 696 1216 689 1222 q 709 1204 703 1210 q 723 1193 716 1199 q 732 1179 730 1187 q 760 1194 747 1183 q 789 1210 772 1206 q 860 1248 821 1232 q 886 1251 873 1241 q 913 1265 899 1260 q 926 1280 917 1274 q 945 1291 936 1287 q 977 1282 966 1293 q 983 1256 987 1271 q 977 1244 981 1249 q 975 1234 972 1240 q 960 1221 968 1226 q 940 1211 951 1217 q 907 1197 925 1204 q 873 1181 890 1190 q 853 1170 863 1176 q 831 1158 844 1164 q 808 1147 821 1153 q 784 1134 796 1141 q 754 1118 769 1126 q 723 1100 739 1109 q 684 1113 700 1100 q 650 1134 667 1126 q 644 1141 650 1141 q 639 1147 639 1142 q 613 1159 623 1150 q 589 1172 604 1168 q 581 1183 586 1179 q 576 1195 576 1187 q 556 1215 567 1206 q 543 1238 545 1223 q 568 1279 547 1268 q 580 1295 572 1290 q 594 1299 587 1301 q 610 1281 605 1284 q 614 1268 616 1278 z "},"š":{"ha":423,"x_min":-160,"x_max":571,"o":"m 144 199 q 142 184 146 194 q 134 168 137 175 q 137 159 136 163 q 136 151 138 156 q 148 135 145 144 q 157 117 151 126 q 172 103 164 109 q 186 91 179 98 q 197 95 193 95 q 208 98 201 95 q 227 136 220 114 q 229 148 228 141 q 231 160 231 155 q 220 197 229 179 q 205 233 210 214 q 201 258 199 244 q 201 282 203 271 q 197 293 199 289 q 191 302 194 297 q 189 327 189 313 q 183 350 190 340 q 165 330 178 345 q 140 297 153 315 q 115 264 126 279 q 98 244 103 250 q 83 227 91 235 q 68 210 75 220 q 50 188 62 203 q 23 155 37 172 q -2 121 9 137 q -18 100 -14 106 q -32 80 -20 96 q -58 45 -43 64 q -83 9 -72 26 q -98 -12 -95 -7 q -119 -36 -106 -26 q -149 -46 -132 -46 q -152 -39 -151 -45 q -154 -26 -153 -33 q -157 -13 -155 -19 q -160 -4 -159 -7 q -154 12 -156 4 q -142 27 -152 20 q -126 58 -140 37 q -96 102 -113 79 q -66 145 -80 125 q -46 174 -52 165 q -28 194 -41 179 q -4 226 -16 209 q 20 258 8 243 q 37 279 31 273 q 54 313 41 292 q 84 356 68 334 q 116 399 100 378 q 140 431 132 419 q 151 450 146 442 q 161 468 156 458 q 167 474 164 471 q 171 480 170 477 q 168 496 174 491 q 164 510 163 500 q 188 539 175 532 q 212 562 201 547 q 224 570 218 567 q 237 579 231 572 q 251 585 243 585 q 267 584 259 586 q 280 578 274 582 q 288 572 286 575 q 288 562 289 568 q 285 548 286 555 q 279 526 282 536 q 274 503 277 515 q 269 475 271 488 q 278 449 267 461 q 279 433 277 442 q 283 415 281 423 q 299 329 286 372 q 327 251 312 286 q 329 237 327 244 q 334 224 331 231 q 326 138 338 180 q 302 54 313 95 q 289 23 294 41 q 283 9 286 15 q 275 -3 281 4 q 263 -27 269 -14 q 241 -49 258 -41 q 223 -49 232 -52 q 206 -49 214 -46 q 194 -52 199 -50 q 183 -54 189 -54 q 154 -51 165 -57 q 126 -42 142 -45 q 122 -36 126 -38 q 115 -31 118 -34 q 104 0 110 -9 q 96 20 99 9 q 92 50 92 35 q 85 79 92 64 q 81 94 80 90 q 81 102 81 98 q 79 140 81 119 q 96 175 77 161 q 106 189 103 180 q 118 205 110 198 q 127 208 121 208 q 136 206 133 208 l 144 199 m 198 838 q 231 819 217 831 q 269 800 245 807 q 279 786 273 792 q 293 774 286 780 q 307 763 300 769 q 316 749 313 757 q 343 764 331 753 q 373 780 355 776 q 444 818 404 802 q 470 821 457 811 q 496 836 483 830 q 510 850 500 844 q 529 861 519 857 q 560 852 549 863 q 567 826 571 841 q 560 814 564 819 q 559 804 556 810 q 543 791 552 796 q 524 781 534 787 q 491 767 509 774 q 457 751 473 760 q 437 740 446 746 q 415 728 427 734 q 392 717 404 723 q 368 704 380 711 q 338 688 353 696 q 307 670 323 680 q 267 683 283 670 q 233 704 251 696 q 228 711 233 711 q 222 718 222 712 q 197 729 206 720 q 172 742 187 738 q 165 753 170 749 q 160 765 160 757 q 140 785 151 776 q 126 808 129 793 q 152 849 130 838 q 163 865 156 860 q 178 869 171 871 q 194 851 189 854 q 198 838 199 848 z "},"Ý":{"ha":815,"x_min":5,"x_max":996,"o":"m 585 966 q 582 936 586 948 q 575 911 578 924 q 563 891 568 898 q 553 875 557 884 q 547 864 549 869 q 541 854 544 859 q 532 842 537 848 q 522 830 526 837 q 515 817 518 823 q 507 804 511 811 q 494 785 500 795 q 483 765 488 776 q 477 755 480 760 q 472 745 473 751 q 456 726 465 736 q 442 704 448 715 q 435 688 438 697 q 428 671 431 675 q 422 662 425 666 q 405 640 414 651 q 392 613 396 628 q 377 574 388 590 q 357 538 366 557 q 340 499 349 519 q 324 458 331 479 q 307 411 316 434 q 296 361 298 388 q 321 357 307 350 q 342 373 335 365 q 363 389 355 378 q 406 416 389 400 q 439 450 422 431 q 452 457 448 452 q 463 465 456 463 q 500 512 479 490 q 543 553 521 534 q 551 564 545 560 q 562 574 556 568 q 579 593 571 583 q 598 614 587 604 q 609 625 602 621 q 620 632 616 629 q 626 637 623 635 q 633 643 629 640 q 663 665 647 654 q 693 688 680 677 q 707 705 700 696 q 724 720 715 713 q 738 748 731 735 q 750 776 745 761 q 766 803 761 789 q 795 857 788 834 q 810 899 803 879 q 827 937 818 918 q 852 974 836 955 q 878 991 863 983 q 907 1005 892 998 q 948 1015 926 1013 q 987 1019 970 1016 q 996 1009 996 1016 q 994 991 996 1002 q 989 974 994 982 q 985 959 985 966 q 943 879 963 911 q 933 851 937 864 q 922 823 929 838 q 916 812 920 818 q 910 800 913 806 q 903 791 907 795 q 895 783 898 788 q 890 768 892 774 q 886 755 888 762 q 880 745 883 750 q 875 734 878 739 q 863 711 865 719 q 857 696 860 703 q 846 671 850 685 q 831 646 841 656 q 823 629 823 632 q 821 624 823 627 q 811 608 811 610 q 810 604 811 606 q 790 564 796 581 q 773 532 784 548 q 758 481 765 507 q 741 433 750 456 q 731 393 738 411 q 718 355 724 376 q 703 311 707 331 q 688 282 694 293 q 680 258 682 271 q 661 233 666 247 q 652 224 655 231 q 644 212 648 218 q 639 207 642 209 q 635 198 636 205 q 597 154 614 174 q 564 111 579 134 q 535 80 549 96 q 506 47 521 64 q 477 20 491 34 q 452 -8 463 7 q 423 -31 437 -19 q 397 -53 410 -42 q 359 -83 376 -69 q 324 -109 342 -96 q 285 -132 304 -122 q 247 -156 266 -142 q 228 -163 233 -161 q 216 -168 222 -165 q 201 -172 209 -170 q 189 -175 194 -175 q 179 -172 182 -171 q 174 -172 176 -174 q 161 -169 164 -168 q 156 -170 159 -170 q 144 -165 149 -168 q 133 -159 140 -161 q 121 -155 126 -156 q 111 -151 117 -155 q 89 -134 100 -137 q 68 -123 77 -130 q 62 -117 65 -121 q 54 -111 58 -114 q 46 -102 49 -107 q 41 -91 43 -98 q 38 -79 38 -84 q 35 -66 38 -73 q 18 -9 26 -39 q 9 54 9 22 l 9 80 q 13 92 11 87 q 15 104 15 98 q 13 112 15 109 q 9 119 11 115 q 7 134 8 125 q 8 148 5 142 q 16 158 9 151 q 26 168 22 165 q 50 179 42 172 q 69 190 58 186 q 85 192 79 187 q 99 198 91 197 q 126 182 115 201 q 130 144 137 164 q 125 124 127 134 q 121 103 122 114 q 119 59 118 84 q 122 15 119 34 q 127 -16 125 1 q 134 -46 130 -34 q 170 -90 148 -69 q 179 -88 172 -88 q 190 -90 186 -88 q 210 -79 203 -83 q 224 -73 217 -76 q 273 -33 247 -57 q 323 11 300 -8 q 361 46 345 26 q 378 68 369 57 q 399 90 388 79 q 421 115 410 103 q 444 140 433 127 q 465 166 454 153 q 487 191 476 179 q 509 223 498 210 q 529 252 519 236 q 551 281 541 266 q 571 312 560 297 q 596 355 585 334 q 617 403 608 376 q 627 430 623 418 q 637 456 632 442 q 656 498 646 476 q 673 541 666 519 q 647 522 658 532 q 621 505 636 513 q 602 485 612 494 q 581 468 591 476 q 544 429 564 446 q 505 393 524 412 q 467 354 484 374 q 430 315 450 334 q 416 305 425 313 q 397 291 406 300 q 374 277 388 282 q 368 275 372 275 q 359 273 363 275 q 351 270 354 271 q 340 267 347 269 q 327 262 334 266 q 313 258 320 259 q 283 260 301 256 q 251 269 264 264 q 239 273 244 271 q 228 279 233 275 q 214 297 218 286 q 203 320 210 308 q 195 333 199 327 q 187 346 190 339 q 186 360 189 353 q 184 377 183 368 q 186 389 184 384 q 191 401 189 395 q 194 414 193 408 q 198 427 195 420 q 208 466 202 448 q 221 502 214 484 q 262 588 244 551 q 305 656 279 625 q 319 686 313 674 q 334 709 326 699 q 360 766 347 739 q 392 817 373 793 q 414 871 400 848 q 442 921 429 894 q 416 908 427 918 q 392 891 406 898 q 345 848 362 873 q 301 807 327 823 q 279 789 286 795 q 264 776 271 783 q 241 771 252 776 q 220 762 231 766 q 198 754 210 757 q 171 755 186 751 q 159 753 165 753 q 146 757 153 754 q 137 763 141 760 q 126 766 133 766 q 113 787 117 772 q 115 814 110 802 q 149 830 130 823 q 169 840 160 836 q 189 850 178 845 q 204 858 197 854 q 220 868 212 861 q 267 903 241 886 q 347 964 302 937 q 423 1029 391 991 q 441 1036 434 1031 q 458 1039 449 1042 q 507 1017 490 1028 q 532 1012 519 1019 q 553 1001 544 1005 q 568 996 562 998 q 582 981 574 993 l 585 966 m 928 1279 q 954 1261 933 1265 q 961 1238 956 1251 q 955 1217 966 1225 q 935 1211 939 1213 q 929 1203 930 1208 q 916 1192 920 1202 q 850 1143 880 1169 q 784 1096 819 1116 q 766 1083 769 1085 q 755 1082 762 1081 q 720 1062 741 1072 q 688 1078 700 1062 q 686 1103 685 1092 q 696 1120 686 1114 q 732 1143 716 1130 q 764 1171 749 1157 q 796 1199 780 1185 q 831 1222 812 1213 q 869 1255 849 1240 q 913 1280 888 1270 q 922 1279 918 1280 q 928 1279 925 1278 z "},"ý":{"ha":621,"x_min":-64,"x_max":796,"o":"m 100 107 q 125 114 114 104 q 148 130 136 123 q 161 144 153 137 q 176 157 168 152 q 218 203 195 182 q 240 229 229 217 q 262 255 251 241 q 273 273 269 264 q 282 289 277 281 q 298 311 289 300 q 311 336 307 321 q 325 350 316 345 q 339 363 334 355 q 346 376 343 369 q 354 387 349 382 q 360 393 359 391 q 363 399 361 396 q 374 411 368 406 q 385 423 380 416 q 410 444 400 435 q 430 460 419 453 q 479 465 454 468 q 515 448 505 463 q 520 414 517 430 q 515 374 524 399 q 502 347 510 361 q 490 320 494 334 q 484 312 487 316 q 479 305 481 308 q 450 234 465 269 q 420 164 435 199 q 472 193 454 180 q 510 216 490 205 q 534 232 522 224 q 560 248 547 240 q 585 271 571 262 q 613 289 598 279 q 632 304 623 298 q 652 317 642 311 q 665 328 659 323 q 678 338 671 334 q 688 349 684 343 q 700 358 693 354 q 712 363 707 361 q 724 370 718 366 q 734 377 730 373 q 746 384 739 381 q 755 397 750 389 q 770 401 761 404 q 781 406 773 406 q 792 403 788 406 q 794 395 792 397 q 793 385 796 392 q 781 375 787 380 q 768 368 776 370 q 737 340 750 349 q 716 317 724 332 q 669 271 693 294 q 620 227 644 248 q 605 221 612 227 q 591 218 598 216 q 578 208 583 221 q 541 172 560 189 q 499 141 521 156 q 438 92 472 113 q 377 43 404 71 q 363 -9 374 16 q 345 -58 351 -34 q 329 -99 334 -81 q 315 -133 324 -117 q 301 -176 311 -156 q 281 -214 292 -195 q 267 -243 278 -229 q 250 -273 256 -256 q 243 -286 247 -279 q 236 -298 239 -292 q 229 -312 232 -305 q 222 -326 227 -319 q 217 -332 220 -328 q 212 -338 214 -335 l 195 -366 q 168 -405 184 -389 q 132 -439 151 -420 q 120 -453 125 -446 q 109 -467 115 -460 q 95 -479 102 -473 q 81 -494 88 -486 q 64 -507 71 -498 q 50 -525 57 -515 q 41 -531 45 -528 q 33 -537 38 -534 q 19 -543 22 -541 q 14 -547 16 -545 q -7 -553 4 -552 q -26 -560 -18 -553 q -45 -555 -39 -560 q -57 -543 -52 -549 q -63 -515 -64 -530 q -59 -484 -62 -500 q -52 -452 -56 -468 q -50 -422 -49 -437 q -42 -385 -43 -400 q -37 -358 -41 -370 q -26 -336 -27 -343 q -18 -327 -24 -330 q -14 -313 -16 -319 q -9 -301 -11 -308 q -3 -294 -5 -298 q 5 -288 0 -290 q 26 -241 19 -260 q 43 -203 34 -222 q 50 -183 47 -193 q 57 -165 53 -174 q 75 -136 64 -151 q 98 -106 87 -121 q 111 -88 107 -94 q 117 -79 114 -83 q 127 -68 127 -71 q 127 -66 126 -66 q 144 -50 136 -58 q 163 -34 153 -42 q 179 -16 171 -24 q 198 -1 187 -8 q 214 16 206 8 q 233 31 222 24 q 273 64 255 46 q 311 98 290 83 q 320 132 313 117 q 330 164 327 146 q 339 186 335 174 q 346 209 343 198 q 352 220 350 213 q 357 235 354 227 q 363 258 363 248 q 365 272 365 266 q 368 286 365 278 q 369 305 369 293 q 352 286 359 297 q 338 266 345 275 q 332 260 335 263 q 327 250 328 256 q 317 240 320 241 q 315 236 315 239 q 253 163 283 201 q 191 91 222 126 q 165 70 179 80 q 137 49 152 60 q 111 29 126 41 q 75 24 96 18 q 24 29 43 12 q -7 66 4 46 q -16 81 -12 75 q -18 102 -19 87 q -11 132 -15 117 q -4 167 -7 148 q 1 197 -1 182 q 7 228 3 212 q 18 264 11 247 q 34 294 24 282 q 47 333 41 315 q 60 370 53 351 q 76 412 66 392 q 96 452 85 433 q 109 469 103 461 q 122 484 115 476 q 144 489 136 486 q 160 496 152 492 q 179 501 170 499 q 197 506 189 503 q 216 512 212 513 q 222 515 220 511 q 231 507 225 509 q 237 498 236 505 q 230 475 237 488 q 220 454 222 461 q 209 433 214 445 q 197 411 203 420 q 189 387 194 399 q 180 363 184 376 q 157 330 167 349 q 136 289 146 311 q 130 277 133 282 q 123 264 126 271 q 119 240 121 252 q 114 216 117 228 q 109 201 111 209 q 106 184 107 194 q 102 146 103 165 q 100 107 100 127 m 293 -9 q 245 -48 266 -27 q 203 -91 225 -69 q 184 -112 194 -102 q 167 -134 175 -122 q 153 -159 160 -146 q 134 -183 145 -172 q 114 -207 118 -198 q 106 -222 110 -216 q 96 -243 100 -233 q 84 -263 91 -254 q 72 -290 77 -277 q 60 -317 66 -304 q 45 -364 50 -342 q 41 -410 39 -387 q 41 -420 41 -415 q 45 -427 41 -425 q 65 -422 52 -427 q 86 -403 76 -412 q 106 -382 96 -393 q 126 -360 117 -370 q 146 -339 136 -350 q 180 -292 165 -317 q 206 -236 195 -267 q 220 -204 214 -221 q 233 -174 225 -187 q 264 -90 248 -130 q 294 -9 281 -50 l 293 -9 m 582 780 q 608 762 587 766 q 615 739 610 751 q 609 718 620 726 q 589 711 593 713 q 583 704 585 709 q 570 693 574 703 q 504 644 534 670 q 438 597 473 617 q 420 584 423 586 q 410 583 416 582 q 374 563 395 572 q 342 579 354 563 q 340 604 339 593 q 350 621 340 614 q 387 644 370 631 q 418 672 403 658 q 450 700 434 686 q 486 723 467 713 q 523 755 503 741 q 567 781 543 770 q 576 780 572 781 q 582 780 579 779 z "},"Þ":{"ha":631,"x_min":-35,"x_max":688,"o":"m 407 713 q 457 731 439 727 q 494 742 475 735 q 516 745 505 742 q 538 750 528 749 q 554 751 545 751 q 570 750 563 750 q 604 744 585 747 q 632 732 623 741 q 640 722 636 728 q 650 711 644 716 q 664 690 659 700 q 675 665 669 681 q 680 652 678 658 q 682 639 682 647 q 684 623 684 631 q 686 605 685 614 q 686 591 688 598 q 685 575 685 583 q 686 559 685 567 q 685 544 686 551 q 678 528 682 534 q 673 511 674 522 q 652 460 662 484 q 624 415 642 435 q 589 370 601 388 q 560 340 578 353 q 535 314 549 326 q 510 289 521 302 q 481 268 495 279 q 449 250 467 256 q 443 248 446 248 q 433 245 439 247 q 412 239 422 243 q 392 232 403 235 q 355 229 368 231 q 328 229 343 228 q 317 230 323 229 q 307 228 312 231 q 252 231 281 231 q 199 243 222 232 q 190 229 191 237 q 169 195 175 209 q 156 168 163 182 q 152 150 155 159 q 148 132 149 141 q 142 109 144 115 q 138 96 140 103 q 137 85 137 91 q 134 77 137 80 q 125 50 133 62 q 114 23 118 38 q 107 7 109 16 q 100 -8 106 -1 q 85 -20 90 -11 q 73 -35 80 -28 q 26 -58 49 -57 q -3 -54 1 -58 q -18 -28 -9 -42 q -35 0 -27 -14 q -33 11 -34 7 q -30 22 -31 15 q 5 87 -14 56 q 41 151 23 118 q 54 178 49 170 q 62 195 60 187 q 66 207 65 202 q 71 217 68 212 q 77 229 73 224 q 84 241 80 235 q 102 278 92 260 q 118 316 111 296 q 123 328 121 323 q 129 338 126 332 q 135 347 132 343 q 141 357 138 351 q 149 374 145 365 q 156 391 152 382 q 163 407 159 399 q 170 422 167 415 q 185 463 178 444 q 199 503 193 483 q 212 521 206 515 q 220 531 216 525 q 228 543 225 537 q 237 570 233 562 q 243 587 241 579 q 244 599 244 594 q 248 610 244 604 q 252 625 250 617 q 255 640 255 632 q 254 650 255 646 q 255 661 252 655 q 255 677 255 673 q 286 703 269 693 q 315 728 302 712 q 343 781 334 751 q 368 837 353 810 q 374 853 370 849 q 388 884 381 869 q 401 914 395 899 q 413 945 408 930 q 423 975 418 960 q 419 995 415 985 q 429 1010 423 1005 q 479 1031 452 1021 q 533 1042 506 1040 q 546 1035 540 1039 q 555 1024 552 1031 q 550 996 556 1006 q 538 972 544 985 q 532 966 536 970 q 525 959 528 963 q 515 932 519 940 q 507 917 511 925 q 503 909 505 913 q 500 902 502 906 q 497 892 498 897 q 494 886 496 888 q 482 867 487 875 q 471 848 477 859 q 463 831 468 838 q 457 815 458 823 q 450 804 453 810 q 444 792 448 799 q 431 765 433 773 q 422 751 429 757 q 418 741 420 745 q 414 730 415 736 q 408 720 410 722 q 407 713 407 718 m 296 326 q 315 324 305 326 q 332 324 324 323 q 343 325 340 326 q 349 324 346 324 q 373 334 365 331 q 388 340 381 338 q 433 361 411 351 q 471 387 456 372 q 497 420 483 404 q 526 453 511 435 q 532 466 529 460 q 534 479 534 472 q 551 524 545 500 q 560 574 557 548 q 560 595 562 585 q 556 613 559 606 q 526 637 540 624 q 490 646 511 650 q 463 642 476 643 q 439 635 450 640 q 418 623 427 631 q 400 609 410 616 q 389 605 393 609 q 378 597 384 601 q 363 587 369 591 q 350 575 357 582 q 343 569 347 572 q 336 563 339 566 q 330 543 330 553 q 326 524 331 533 q 323 507 327 514 q 315 491 319 500 q 311 478 312 484 q 308 465 311 472 l 292 433 q 286 419 289 426 q 277 407 282 412 q 260 370 270 388 q 240 335 250 351 q 267 326 251 327 q 296 326 282 324 z "},"þ":{"ha":483,"x_min":-240,"x_max":429,"o":"m 187 387 q 205 395 195 391 q 224 406 214 400 q 234 409 229 408 q 247 412 239 410 q 262 418 254 415 q 277 420 270 420 q 304 422 297 419 q 320 429 312 426 q 328 428 324 429 q 338 427 332 427 q 351 429 345 427 q 362 430 357 430 q 379 424 376 423 q 385 423 382 425 q 391 417 388 420 q 396 411 393 414 q 418 387 412 400 q 427 343 427 365 q 427 330 429 336 q 425 315 426 323 q 423 300 423 308 q 422 285 423 292 q 412 245 419 263 q 399 210 406 227 q 386 186 389 198 q 374 163 382 174 q 358 138 361 145 q 350 123 355 130 q 332 99 334 107 q 325 92 327 96 q 320 83 323 87 q 287 52 305 65 q 248 27 269 39 q 237 9 241 18 q 225 -8 232 1 q 197 -32 210 -19 q 167 -53 183 -45 q 150 -55 159 -50 q 132 -61 141 -60 q 117 -60 122 -60 q 110 -61 113 -61 q 99 -57 103 -60 q 90 -53 95 -54 q 77 -43 79 -47 q 40 -12 52 -34 q 15 33 28 9 q 10 26 12 30 q 5 20 8 23 q 1 4 4 11 q -7 -9 -3 -3 q -16 -26 -12 -19 q -23 -47 -20 -34 q -28 -60 -26 -54 q -34 -73 -31 -66 q -41 -100 -38 -87 q -49 -126 -43 -113 q -57 -140 -52 -133 q -65 -155 -62 -146 q -75 -184 -72 -168 q -81 -214 -77 -199 q -96 -273 -90 -244 q -111 -331 -103 -302 q -115 -344 -114 -338 q -118 -355 -115 -350 q -129 -366 -122 -361 q -142 -378 -136 -372 q -161 -394 -152 -388 q -184 -397 -170 -400 q -208 -391 -201 -391 q -220 -389 -214 -392 q -233 -368 -229 -385 q -232 -324 -240 -349 q -217 -290 -227 -308 q -212 -281 -214 -285 q -208 -271 -210 -277 q -202 -256 -205 -258 q -199 -254 -199 -255 q -195 -241 -197 -247 q -190 -229 -193 -236 q -186 -217 -187 -222 q -182 -205 -184 -212 q -174 -188 -179 -195 q -165 -172 -168 -180 q -151 -137 -157 -148 q -137 -115 -144 -126 q -131 -94 -133 -104 q -123 -72 -129 -83 q -111 -43 -117 -57 q -99 -15 -106 -30 q -92 7 -96 -4 q -80 30 -87 18 q -71 58 -75 43 q -57 80 -66 72 q -39 118 -49 99 q -20 160 -30 137 q -16 174 -18 167 q -12 189 -15 182 q -9 197 -11 193 q -4 208 -7 202 q -2 226 -1 216 q 0 247 -3 236 q 6 269 3 259 q 12 289 9 278 q 34 311 23 300 q 56 332 45 321 q 77 370 66 350 q 99 406 87 389 q 104 422 100 414 q 111 438 107 431 q 123 473 117 456 q 137 507 130 491 q 149 534 144 521 q 159 560 153 547 q 172 585 165 574 q 186 610 179 597 q 198 635 193 623 q 212 661 203 648 q 235 685 222 674 q 264 704 248 696 q 275 718 270 711 q 286 734 281 724 q 301 744 296 736 q 316 753 307 751 q 335 742 330 754 q 334 719 340 730 q 338 707 336 712 q 339 694 340 703 q 332 677 338 686 q 323 656 327 667 q 313 638 316 647 q 304 620 309 629 q 286 588 296 604 q 269 555 277 572 q 229 470 250 513 q 187 387 209 427 m 258 345 q 233 338 240 343 q 221 330 227 334 q 183 303 202 316 q 146 279 164 290 q 111 231 123 260 q 81 175 98 202 q 75 159 77 164 q 69 149 72 155 q 64 136 66 142 q 60 125 61 130 q 62 108 58 115 q 68 94 65 100 q 70 84 69 90 q 73 76 71 79 q 96 58 80 62 q 125 52 111 54 q 153 62 140 56 q 178 77 167 68 q 193 102 184 90 q 209 125 201 114 q 221 140 214 132 q 232 156 228 149 q 233 163 233 159 q 236 172 233 168 q 245 186 239 179 q 254 201 251 194 q 260 216 258 208 q 267 232 263 224 q 277 250 270 243 q 288 267 283 258 q 295 285 292 275 q 300 302 298 294 q 304 330 302 317 q 298 349 305 342 q 278 350 288 353 q 258 345 269 347 z "},"Ž":{"ha":720,"x_min":-46,"x_max":932,"o":"m 846 986 q 840 982 845 983 q 833 979 834 981 q 836 944 840 964 q 821 908 833 924 q 800 878 808 892 q 781 860 789 869 q 765 841 773 850 q 744 822 754 833 q 722 804 734 811 q 707 791 716 796 q 692 772 700 780 q 678 755 685 764 q 663 739 671 747 q 646 724 655 731 q 606 678 624 699 q 570 639 589 658 q 552 615 563 625 q 534 589 541 605 q 511 564 517 572 q 499 547 506 555 q 491 538 496 541 q 483 530 486 534 q 475 520 479 525 q 469 511 472 515 q 439 477 454 494 q 410 442 425 460 q 380 408 395 425 q 351 374 366 391 q 311 320 332 347 q 270 267 290 293 q 231 217 251 236 q 216 192 225 206 q 196 163 206 178 q 176 134 186 148 q 160 111 167 121 q 153 106 156 110 q 148 100 151 103 q 248 110 202 102 q 330 119 293 118 q 356 123 342 121 q 385 126 370 125 q 399 125 392 126 q 412 125 406 125 q 435 125 423 125 q 457 126 446 125 q 481 122 469 123 q 506 118 494 121 q 528 114 517 115 q 551 110 540 113 q 557 106 555 107 q 564 103 560 104 q 572 102 567 102 q 581 99 576 102 q 602 94 590 96 q 621 84 613 91 q 631 73 624 77 q 646 61 639 68 q 653 47 652 54 q 643 33 654 39 q 621 23 632 28 q 595 19 610 18 q 568 9 582 8 q 536 8 555 11 q 511 -4 526 0 q 488 7 495 -8 q 456 9 473 12 q 422 9 438 7 q 379 13 395 15 q 349 9 363 11 q 294 5 320 8 q 240 0 267 3 q 197 -6 221 -5 q 153 -11 172 -7 q 114 -14 134 -11 q 73 -19 94 -16 q 37 -26 52 -22 q 9 -33 22 -31 q -14 -28 -4 -34 q -30 -14 -24 -23 q -36 5 -33 -1 q -42 20 -39 12 q -31 72 -46 50 q -3 110 -16 94 q 7 125 1 118 q 19 138 12 133 q 41 170 30 155 q 64 195 52 184 q 96 233 77 218 q 130 267 115 247 q 168 312 155 293 q 198 346 182 331 q 216 366 208 359 q 235 393 225 381 q 255 416 244 406 q 266 427 258 422 q 315 493 289 463 q 363 556 340 524 q 418 607 395 583 q 454 663 441 631 q 475 686 465 675 q 496 707 484 697 q 504 712 500 709 q 510 718 507 715 q 521 731 517 724 q 532 746 525 738 q 551 768 541 757 q 571 789 562 779 q 577 796 574 792 q 585 803 581 800 q 593 814 587 810 q 601 826 598 818 q 631 865 617 844 q 661 905 646 887 q 625 903 643 907 q 587 895 606 899 q 551 888 568 892 q 515 880 533 884 q 501 875 509 878 q 486 871 494 872 q 470 872 477 871 q 456 872 463 873 q 436 872 445 872 q 418 875 427 872 q 408 877 412 876 q 399 878 404 878 q 380 880 388 880 q 365 884 372 879 q 349 892 357 891 q 328 892 340 892 q 296 893 312 892 q 266 902 279 894 q 246 914 250 911 q 240 922 243 917 q 234 945 232 936 q 241 956 236 954 q 264 959 258 956 q 277 964 270 962 q 323 972 305 970 q 357 977 340 974 q 427 988 392 983 q 495 1004 461 993 q 534 1010 514 1004 q 620 1010 581 1010 q 703 1008 659 1010 q 719 1009 709 1010 q 738 1006 728 1008 q 783 1006 757 1005 q 830 998 808 1008 q 846 986 845 989 m 559 1282 q 592 1263 578 1275 q 629 1244 606 1251 q 640 1230 633 1236 q 654 1218 647 1223 q 667 1206 661 1213 q 677 1192 674 1200 q 704 1208 692 1196 q 734 1223 716 1219 q 804 1261 765 1245 q 831 1264 818 1255 q 857 1279 844 1274 q 871 1294 861 1287 q 890 1305 880 1301 q 921 1295 910 1306 q 928 1270 932 1284 q 921 1258 925 1263 q 920 1248 917 1253 q 904 1235 913 1240 q 884 1225 895 1230 q 852 1211 869 1218 q 818 1195 834 1203 q 798 1183 807 1190 q 776 1172 788 1177 q 753 1160 765 1166 q 728 1147 741 1154 q 699 1131 713 1139 q 667 1114 684 1123 q 628 1126 644 1114 q 594 1147 612 1139 q 589 1155 594 1154 q 583 1161 583 1156 q 557 1173 567 1164 q 533 1185 548 1181 q 526 1196 530 1192 q 521 1208 521 1200 q 500 1228 511 1219 q 487 1252 490 1237 q 513 1293 491 1282 q 524 1309 517 1303 q 538 1313 532 1314 q 555 1295 549 1298 q 559 1282 560 1291 z "},"ž":{"ha":433,"x_min":-320,"x_max":571,"o":"m 190 241 q 222 247 205 244 q 258 248 239 250 q 275 250 267 248 q 294 250 283 252 q 303 248 298 248 q 311 247 308 248 q 316 243 313 245 q 324 237 319 240 q 349 201 343 220 q 354 168 355 183 q 352 153 354 161 q 347 137 350 145 q 344 119 346 129 q 339 99 342 109 q 325 65 334 80 q 305 35 316 50 q 292 14 298 24 q 278 -3 286 4 q 256 -42 267 -24 q 232 -77 244 -60 q 210 -109 218 -92 q 187 -140 201 -125 q 176 -155 182 -148 q 164 -168 171 -161 q 153 -182 157 -175 q 141 -197 148 -190 q 118 -226 130 -212 q 94 -254 106 -240 q 68 -281 80 -269 q 41 -304 56 -293 q 9 -325 23 -311 q -19 -351 -4 -339 q -54 -383 -38 -366 q -88 -415 -69 -400 q -102 -425 -95 -420 q -115 -437 -109 -430 q -153 -460 -138 -453 q -180 -476 -167 -468 q -190 -484 -186 -479 q -198 -491 -194 -488 q -213 -496 -206 -494 q -227 -500 -220 -498 q -239 -505 -231 -503 q -257 -508 -248 -507 q -273 -508 -266 -509 q -285 -503 -281 -507 q -295 -494 -294 -496 q -297 -488 -296 -491 q -307 -475 -302 -481 q -317 -461 -311 -468 q -320 -440 -320 -450 q -312 -425 -320 -430 q -301 -375 -315 -397 q -277 -332 -288 -353 q -231 -286 -254 -309 q -186 -239 -209 -263 q -162 -210 -176 -222 q -134 -183 -148 -198 q -116 -163 -126 -172 q -95 -144 -106 -155 q -79 -130 -87 -137 q -62 -117 -71 -123 q -47 -104 -56 -110 q -31 -91 -38 -99 q -9 -67 -18 -75 q 7 -52 0 -60 q 28 -28 23 -37 q 43 -15 34 -19 q 56 2 50 -7 q 69 19 61 11 q 79 28 73 23 q 90 39 85 33 q 93 54 92 46 q 96 71 94 62 q 107 71 104 75 q 114 65 110 68 q 116 35 119 50 q 102 9 113 20 q 73 -29 85 -12 q 42 -56 61 -46 q 33 -71 37 -62 q 20 -84 28 -80 q 5 -109 12 -98 q -12 -132 -3 -121 q -22 -142 -16 -138 q -30 -156 -27 -146 q -49 -176 -37 -170 q -66 -198 -61 -183 q -113 -243 -92 -224 q -153 -281 -133 -262 q -189 -320 -172 -301 q -217 -354 -205 -339 q -231 -378 -228 -369 q -230 -391 -233 -387 q -219 -394 -227 -395 q -203 -389 -212 -393 q -178 -375 -186 -381 q -160 -361 -171 -369 q -123 -339 -141 -350 q -90 -313 -106 -328 q -58 -283 -72 -300 q -27 -251 -43 -267 q 16 -199 -8 -222 q 64 -153 39 -175 q 104 -94 84 -121 q 146 -45 123 -68 q 153 -36 151 -41 q 159 -24 156 -31 q 184 12 171 -5 q 213 52 198 30 q 234 93 227 72 q 248 141 241 114 q 243 152 244 148 q 239 160 241 156 q 210 173 231 171 q 176 171 190 175 q 163 165 170 168 q 151 168 157 161 q 113 155 132 164 q 76 138 95 146 q 57 131 66 136 q 39 133 47 126 q 28 146 34 137 q 19 163 22 156 q 14 174 16 167 q 14 190 11 182 q 25 207 16 197 q 39 221 34 217 q 50 227 45 225 q 62 232 56 229 q 76 243 69 236 q 90 258 83 251 q 113 275 100 269 q 133 292 126 281 q 166 315 148 302 q 201 345 184 327 q 208 353 205 349 q 216 361 212 357 q 241 391 227 374 q 258 431 255 408 q 249 447 259 438 q 233 457 239 456 q 221 456 227 458 q 210 453 216 454 q 191 448 201 450 q 172 442 182 445 q 165 438 168 441 q 160 433 163 435 q 140 426 144 427 q 129 423 136 425 q 121 412 123 418 q 115 400 119 406 q 108 393 113 395 q 100 387 103 391 q 88 364 94 369 q 76 354 83 359 q 64 350 71 354 q 53 349 58 346 q 29 347 43 342 q 11 361 15 351 q -3 385 8 376 q -16 410 -14 395 q -18 432 -19 420 q -14 457 -16 444 q -5 465 -8 460 q 3 473 -1 469 q 54 494 27 487 q 109 509 80 502 q 137 516 123 511 q 164 524 151 521 q 196 530 180 526 q 229 536 212 533 q 252 535 240 532 q 275 533 264 538 q 282 528 279 532 q 289 521 285 524 q 298 516 293 518 q 307 511 302 514 q 330 493 321 496 q 345 484 338 490 q 350 471 346 476 q 357 460 354 467 q 334 412 357 426 q 296 363 315 387 q 255 317 278 339 q 248 307 252 311 q 240 296 243 302 q 225 283 232 292 q 212 266 218 274 q 200 254 206 259 q 190 241 194 248 m 198 796 q 231 777 217 789 q 269 758 245 765 q 279 744 273 750 q 293 732 286 738 q 307 721 300 727 q 316 707 313 715 q 343 722 331 711 q 373 738 355 734 q 444 776 404 760 q 470 779 457 769 q 496 793 483 788 q 510 808 500 802 q 529 819 519 815 q 560 810 549 821 q 567 784 571 799 q 560 772 564 777 q 559 762 556 768 q 543 749 552 754 q 524 739 534 745 q 491 725 509 732 q 457 709 473 718 q 437 698 446 704 q 415 686 427 692 q 392 675 404 681 q 368 662 380 669 q 338 646 353 654 q 307 628 323 637 q 267 641 283 628 q 233 662 251 654 q 228 669 233 669 q 222 675 222 670 q 197 687 206 678 q 172 700 187 696 q 165 711 170 707 q 160 723 160 715 q 140 743 151 734 q 126 766 129 751 q 152 807 130 796 q 163 823 156 818 q 178 827 171 829 q 194 809 189 812 q 198 796 199 806 z "},"½":{"ha":837,"x_min":-57,"x_max":991,"o":"m 739 307 q 726 283 735 290 q 712 266 718 277 q 704 262 708 264 q 699 252 700 259 q 665 229 680 241 q 633 205 650 216 q 609 182 627 190 q 581 164 591 175 q 574 156 576 160 q 568 148 571 152 q 548 128 556 134 q 536 117 540 122 q 517 85 525 102 q 500 50 509 68 q 509 47 502 43 q 526 50 517 50 q 558 56 537 54 q 591 58 579 58 q 605 60 598 60 q 618 62 612 61 q 636 63 628 64 q 651 65 644 62 q 675 65 665 68 q 696 38 692 47 q 700 18 701 28 q 694 5 699 11 q 685 -4 690 0 q 675 -4 680 -3 q 663 -4 670 -5 q 604 -16 627 -8 q 556 -30 581 -24 q 540 -26 549 -26 q 513 -32 519 -28 q 496 -31 506 -35 q 442 1 454 -28 q 421 15 423 9 q 416 27 419 20 q 422 42 419 34 q 430 57 425 50 q 439 85 434 72 q 452 109 444 99 q 465 136 454 123 q 486 160 475 148 q 519 195 500 178 q 553 228 537 212 q 592 258 572 244 q 628 288 612 271 q 646 298 640 294 q 658 307 651 301 q 668 319 665 312 q 675 335 671 327 q 681 342 678 339 q 682 349 684 346 q 676 357 682 353 q 665 366 670 362 q 648 378 658 376 q 633 377 639 380 q 618 365 624 374 q 602 350 613 355 q 594 349 600 349 q 586 346 589 349 q 567 337 575 343 q 548 331 559 331 q 533 330 536 332 q 528 328 530 328 q 515 334 519 327 q 506 347 510 340 q 503 355 505 351 q 502 365 500 358 q 514 391 502 380 q 533 411 517 406 q 568 435 548 426 q 604 458 589 444 q 627 468 616 463 q 650 476 637 473 q 663 473 655 472 q 677 475 670 475 q 701 465 688 473 q 722 450 715 457 q 752 413 741 433 q 761 358 764 393 q 760 345 761 351 q 755 331 758 338 q 749 318 751 326 q 739 307 746 311 m 301 918 q 316 940 313 929 q 397 983 365 962 q 471 1020 430 1004 q 490 1002 480 1009 q 503 985 499 994 q 505 975 506 979 q 506 966 505 970 q 508 949 511 952 q 502 944 505 947 q 505 930 503 937 q 503 914 506 922 q 494 901 500 906 q 483 888 488 897 q 467 863 475 878 q 453 837 460 849 q 432 802 438 822 q 416 760 426 781 q 397 712 406 739 q 391 700 393 707 q 384 685 388 693 q 366 643 372 666 q 349 602 361 620 q 349 578 353 591 q 342 552 345 566 q 319 532 330 530 q 304 540 308 533 q 270 525 288 533 q 235 515 252 517 q 228 528 232 522 q 221 540 224 533 q 225 552 224 547 q 229 566 227 557 q 241 581 236 572 q 254 598 247 590 q 279 652 264 629 q 305 707 294 675 q 315 740 308 726 q 330 770 323 754 q 341 791 335 781 q 350 811 347 802 q 357 830 354 821 q 366 848 359 840 q 375 868 372 857 q 382 890 378 879 q 358 879 369 887 q 334 875 347 871 q 321 884 327 878 q 304 890 315 890 q 299 904 301 897 q 300 922 297 911 l 301 918 m 985 1028 q 986 1008 985 1015 q 960 966 978 983 q 926 935 940 947 q 901 909 911 922 q 770 774 833 845 q 733 731 751 753 q 694 689 715 709 q 663 654 680 670 q 632 617 646 637 l 575 556 q 550 532 564 544 q 524 509 536 521 q 507 490 515 499 q 490 472 499 480 q 473 454 481 463 q 457 437 465 445 q 425 408 441 422 q 393 380 408 395 q 370 355 382 368 q 346 331 358 342 q 334 316 342 327 q 315 300 319 305 q 307 292 311 296 q 281 264 294 278 q 258 235 269 251 q 227 201 240 220 q 197 164 213 182 q 165 130 182 145 q 134 98 149 114 q 123 85 127 92 q 113 73 118 79 q 101 62 102 65 q 98 57 100 60 q 85 46 92 52 q 72 34 79 41 q 64 22 68 27 q 53 12 60 16 l 38 3 q 20 -6 28 -3 q 3 -16 11 -9 q -7 -24 -3 -19 q -16 -33 -11 -28 q -34 -37 -31 -37 q -39 -39 -37 -38 q -49 -27 -45 -37 q -56 -11 -53 -18 q -51 20 -57 9 q -38 42 -45 31 q -28 51 -31 46 q -19 61 -24 56 q -2 78 -12 71 q 16 96 8 85 q 48 123 35 111 q 75 148 61 136 q 109 182 92 164 q 144 214 125 199 q 169 241 157 228 q 194 269 180 255 q 214 291 203 279 q 236 313 225 302 q 242 320 239 316 q 247 328 245 324 q 266 342 258 339 q 302 382 283 363 q 340 422 321 401 q 373 458 358 444 q 401 488 388 473 q 426 517 414 503 q 453 544 438 532 q 482 571 472 562 q 503 591 492 581 q 522 613 513 602 q 541 633 530 624 q 548 641 544 639 q 555 650 552 643 q 641 759 604 704 q 722 860 678 814 q 734 878 727 871 q 747 891 741 884 q 789 933 772 914 q 825 968 806 952 q 861 991 842 981 q 894 1017 879 1002 q 939 1038 916 1028 q 986 1050 962 1047 q 991 1042 991 1048 q 985 1028 990 1035 z "},"¼":{"ha":823,"x_min":-57,"x_max":991,"o":"m 301 918 q 316 940 313 929 q 397 983 365 962 q 471 1020 430 1004 q 490 1002 480 1009 q 503 985 499 994 q 505 975 506 979 q 506 966 505 970 q 508 949 511 952 q 502 944 505 947 q 505 930 503 937 q 503 914 506 922 q 494 901 500 906 q 483 888 488 897 q 467 863 475 878 q 453 837 460 849 q 432 802 438 822 q 416 760 426 781 q 397 712 406 739 q 391 700 393 707 q 384 685 388 693 q 366 643 372 666 q 349 602 361 620 q 349 578 353 591 q 342 552 345 566 q 319 532 330 530 q 304 540 308 533 q 270 525 288 533 q 235 515 252 517 q 228 528 232 522 q 221 540 224 533 q 225 552 224 547 q 229 566 227 557 q 241 581 236 572 q 254 598 247 590 q 279 652 264 629 q 305 707 294 675 q 315 740 308 726 q 330 770 323 754 q 341 791 335 781 q 350 811 347 802 q 357 830 354 821 q 366 848 359 840 q 375 868 372 857 q 382 890 378 879 q 358 879 369 887 q 334 875 347 871 q 321 884 327 878 q 304 890 315 890 q 299 904 301 897 q 300 922 297 911 l 301 918 m 985 1028 q 986 1008 985 1015 q 960 966 978 983 q 926 935 940 947 q 901 909 911 922 q 770 774 833 845 q 733 731 751 753 q 694 689 715 709 q 663 654 680 670 q 632 617 646 637 l 575 556 q 550 532 564 544 q 524 509 536 521 q 507 490 515 499 q 490 472 499 480 q 473 454 481 463 q 457 437 465 445 q 425 408 441 422 q 393 380 408 395 q 370 355 382 368 q 346 331 358 342 q 334 316 342 327 q 315 300 319 305 q 307 292 311 296 q 281 264 294 278 q 258 235 269 251 q 227 201 240 220 q 197 164 213 182 q 165 130 182 145 q 134 98 149 114 q 123 85 127 92 q 113 73 118 79 q 101 62 102 65 q 98 57 100 60 q 85 46 92 52 q 72 34 79 41 q 64 22 68 27 q 53 12 60 16 l 38 3 q 20 -6 28 -3 q 3 -16 11 -9 q -7 -24 -3 -19 q -16 -33 -11 -28 q -34 -37 -31 -37 q -39 -39 -37 -38 q -49 -27 -45 -37 q -56 -11 -53 -18 q -51 20 -57 9 q -38 42 -45 31 q -28 51 -31 46 q -19 61 -24 56 q -2 78 -12 71 q 16 96 8 85 q 48 123 35 111 q 75 148 61 136 q 109 182 92 164 q 144 214 125 199 q 169 241 157 228 q 194 269 180 255 q 214 291 203 279 q 236 313 225 302 q 242 320 239 316 q 247 328 245 324 q 266 342 258 339 q 302 382 283 363 q 340 422 321 401 q 373 458 358 444 q 401 488 388 473 q 426 517 414 503 q 453 544 438 532 q 482 571 472 562 q 503 591 492 581 q 522 613 513 602 q 541 633 530 624 q 548 641 544 639 q 555 650 552 643 q 641 759 604 704 q 722 860 678 814 q 734 878 727 871 q 747 891 741 884 q 789 933 772 914 q 825 968 806 952 q 861 991 842 981 q 894 1017 879 1002 q 939 1038 916 1028 q 986 1050 962 1047 q 991 1042 991 1048 q 985 1028 990 1035 m 755 420 q 734 395 742 415 q 722 362 730 377 q 704 335 715 347 q 647 201 677 266 q 665 195 655 198 q 682 190 674 191 q 699 174 688 183 q 708 155 711 165 q 703 146 707 148 q 697 137 699 145 q 690 133 693 136 q 682 132 686 130 q 663 137 666 136 q 658 141 661 138 q 620 141 639 145 q 608 118 614 130 q 597 92 601 106 q 593 67 594 79 q 585 45 591 56 q 570 16 578 30 q 552 -11 563 1 q 532 -15 541 -8 q 513 -16 524 -22 q 504 -19 507 -19 q 496 -18 500 -19 q 490 -22 492 -20 q 481 -23 487 -24 q 474 -15 479 -22 q 468 -5 469 -8 q 492 56 480 28 q 515 100 503 84 q 522 115 518 109 q 529 127 526 121 q 511 127 519 127 q 495 123 502 126 q 460 129 472 129 q 437 132 448 129 q 407 148 415 134 q 395 190 395 171 q 404 210 404 201 q 431 226 423 214 q 450 247 439 237 q 476 281 458 269 q 509 309 494 294 q 543 344 524 328 q 582 374 563 359 q 597 396 589 385 q 614 415 605 407 q 633 436 623 425 q 656 453 644 448 q 669 456 662 456 q 681 454 675 457 q 705 460 690 457 q 726 456 719 463 q 749 449 742 456 q 753 435 751 442 q 755 420 755 429 m 644 372 q 632 358 637 365 q 618 346 627 351 q 606 331 613 336 q 593 315 598 326 q 576 297 583 305 q 562 282 568 289 q 549 269 555 275 q 538 254 544 262 q 513 232 524 245 q 491 208 503 218 q 525 195 506 193 q 564 199 544 197 q 583 245 575 221 q 604 288 591 269 q 616 314 609 302 q 631 336 623 326 q 641 353 637 346 q 647 370 644 359 l 644 372 z "},"¹":{"ha":311,"x_min":174,"x_max":463,"o":"m 254 918 q 270 940 267 929 q 350 983 317 962 q 423 1020 382 1004 q 443 1002 434 1009 q 456 985 452 994 q 458 975 458 979 q 458 966 457 970 q 454 944 463 949 q 457 930 456 937 q 456 914 458 922 q 448 901 453 906 q 437 888 442 897 q 419 863 426 878 q 406 837 412 849 q 385 802 391 822 q 369 760 380 781 q 350 712 358 739 q 343 700 346 707 q 336 685 340 693 q 319 643 326 666 q 301 602 313 620 q 301 578 305 591 q 294 552 297 566 q 272 532 282 530 q 256 540 262 533 q 223 525 240 533 q 187 515 206 517 q 180 528 184 522 q 174 540 176 533 q 178 552 176 547 q 182 566 179 557 q 195 581 189 572 q 208 598 201 590 q 232 652 217 629 q 258 707 247 675 q 268 740 260 726 q 282 770 275 754 q 294 791 288 781 q 302 811 300 802 q 309 830 307 821 q 320 848 312 840 q 328 868 326 857 q 335 890 331 879 q 311 879 321 887 q 286 875 300 871 q 273 884 278 878 q 256 890 267 890 q 252 904 254 897 q 252 922 250 911 l 254 918 z "},"¾":{"ha":865,"x_min":-15,"x_max":1034,"o":"m 339 986 q 351 988 346 985 q 362 993 357 991 q 382 1001 378 1001 q 389 1002 387 1001 q 410 1012 400 1006 q 431 1021 420 1017 q 467 1023 450 1021 q 499 1015 484 1024 q 532 978 519 994 q 547 955 540 967 q 556 932 553 943 q 547 916 549 925 q 540 901 545 907 q 534 893 537 897 q 526 886 530 890 l 514 873 q 491 850 503 861 q 463 833 479 840 q 433 816 445 825 q 408 799 420 807 q 393 793 399 798 q 380 784 387 788 q 396 784 387 783 q 414 787 406 785 q 433 784 423 783 q 461 766 448 774 q 483 743 475 757 q 482 720 486 732 q 475 696 479 707 q 471 683 472 689 q 465 674 471 677 q 425 605 457 625 q 404 583 415 593 q 378 567 392 574 q 359 553 369 557 q 338 545 350 549 q 325 539 332 541 q 308 534 317 537 q 297 532 302 533 q 285 529 292 530 q 256 525 262 526 q 243 526 251 524 q 235 530 239 528 q 227 534 231 532 q 205 538 216 537 q 187 543 194 538 q 179 562 180 551 q 180 586 178 574 q 189 609 183 598 q 206 627 195 620 q 236 614 218 613 q 269 614 254 614 q 306 618 288 614 q 339 629 324 623 q 351 631 347 629 q 363 635 355 633 q 392 670 378 646 q 408 718 406 694 q 406 732 408 726 q 403 745 403 738 q 332 732 362 745 q 294 728 312 726 q 270 739 277 730 q 265 758 267 754 q 263 764 263 761 q 271 784 264 776 q 285 799 278 792 q 309 808 297 803 q 331 821 320 814 q 368 839 350 827 q 403 859 385 850 q 420 870 410 865 q 439 882 430 875 q 460 904 452 898 q 464 918 468 910 q 456 926 461 924 q 448 933 450 929 q 443 943 445 937 q 437 951 441 949 q 424 947 431 952 q 411 939 416 941 q 382 926 396 932 q 355 914 368 921 q 319 889 332 895 q 292 883 307 883 q 275 897 281 888 q 263 914 270 906 q 267 932 263 930 q 270 939 271 935 q 283 949 279 944 q 292 960 286 955 q 319 974 308 968 q 339 986 331 979 m 1027 1028 q 1028 1008 1027 1015 q 1001 966 1020 985 q 967 935 982 947 q 941 909 952 922 q 876 844 909 878 q 812 774 844 810 q 775 731 793 753 q 736 689 757 709 q 704 654 720 670 q 674 617 688 637 q 646 587 659 602 q 617 556 632 571 q 591 532 605 544 q 566 509 578 521 q 549 490 557 499 q 532 472 540 480 q 515 454 524 463 q 499 437 507 445 q 466 408 481 422 q 435 380 450 395 q 412 355 423 368 q 388 331 400 342 q 382 324 385 328 q 374 316 378 320 q 357 300 361 305 q 349 292 353 296 q 323 264 336 278 q 300 235 309 251 q 268 201 282 220 q 239 164 254 182 q 208 130 224 145 q 176 98 191 114 q 165 85 170 92 q 155 73 160 79 q 142 62 144 65 q 138 57 141 60 q 127 46 133 52 q 114 34 121 41 q 106 22 110 27 q 95 12 102 16 q 79 3 84 8 q 62 -6 71 -3 q 45 -16 53 -9 q 35 -24 39 -19 q 24 -33 31 -28 q 3 -39 9 -37 q -7 -27 -3 -37 q -14 -11 -11 -18 q -9 20 -15 9 q 4 42 -3 31 q 14 51 11 46 q 22 61 16 56 q 40 78 30 71 q 58 96 50 85 q 90 123 76 111 q 117 148 103 136 q 150 182 133 164 q 186 214 167 199 q 211 241 199 228 q 236 269 222 255 q 256 291 244 279 q 278 313 267 302 q 284 320 281 316 q 289 328 288 324 q 307 342 300 338 q 345 382 326 363 q 382 422 363 401 q 414 458 400 444 q 444 488 429 473 q 468 517 456 503 q 495 544 480 532 q 524 571 514 562 q 544 591 533 581 q 564 613 555 602 q 583 633 572 624 q 589 641 586 639 q 595 650 593 643 q 682 759 644 704 q 764 860 720 814 q 774 878 768 871 q 789 891 781 884 q 831 933 814 914 q 867 968 848 952 q 902 991 883 981 q 936 1017 921 1002 q 981 1038 958 1028 q 1028 1050 1004 1047 q 1033 1042 1034 1048 q 1027 1028 1032 1035 m 798 420 q 774 395 783 415 q 764 362 770 377 q 746 335 757 347 q 718 267 732 300 q 689 201 704 233 q 706 195 697 198 q 724 190 715 191 q 741 174 730 183 q 750 155 753 165 q 745 146 749 148 q 739 137 741 145 q 732 133 735 136 q 724 132 728 130 q 705 137 708 136 q 700 141 703 138 q 661 141 681 145 q 649 118 655 130 q 639 92 643 106 q 635 67 636 79 q 627 45 633 56 q 612 16 620 30 q 593 -11 604 1 q 574 -15 582 -8 q 555 -16 566 -22 q 545 -19 549 -19 q 537 -18 541 -19 q 516 -15 521 -22 q 510 -5 511 -8 q 533 56 522 28 q 557 100 544 84 q 564 115 560 109 q 571 127 568 121 q 552 127 562 127 q 536 123 543 126 q 502 129 514 129 q 477 132 490 129 q 449 148 457 134 q 437 190 437 171 q 446 210 446 201 q 473 226 465 214 q 491 247 480 237 q 518 281 500 269 q 551 309 536 294 q 585 344 566 328 q 624 374 604 359 q 639 396 631 385 q 655 415 647 407 q 675 436 665 425 q 699 453 686 448 q 722 454 711 461 q 746 460 732 457 q 766 456 760 463 q 791 449 784 456 q 795 435 793 442 q 798 420 798 429 m 686 372 q 674 358 680 365 q 659 346 669 351 q 647 331 654 336 q 635 315 640 326 q 618 297 625 305 q 602 282 610 289 q 591 269 595 275 q 581 254 586 262 q 555 232 566 245 q 533 208 544 218 q 567 195 548 193 q 605 199 586 197 q 625 245 616 221 q 646 288 633 269 q 656 314 650 302 q 673 336 663 326 q 683 353 680 346 q 689 370 686 359 l 686 372 z "},"³":{"ha":392,"x_min":165,"x_max":544,"o":"m 327 986 q 340 988 335 985 q 350 993 346 991 q 370 1001 366 1001 q 378 1002 374 1001 q 399 1012 389 1006 q 420 1021 410 1017 q 456 1023 439 1021 q 487 1015 473 1024 q 521 978 509 994 q 535 955 529 967 q 544 932 541 943 q 536 916 537 925 q 529 901 534 907 q 522 893 526 897 q 515 886 518 890 l 503 873 q 478 850 490 861 q 452 833 467 840 q 421 816 433 825 q 397 799 410 807 q 382 793 388 798 q 368 784 376 788 q 385 784 376 783 q 401 787 395 785 q 422 784 412 783 q 450 766 437 774 q 472 743 464 757 q 471 720 475 732 q 464 696 468 707 q 460 683 461 689 q 454 674 460 677 q 414 605 446 625 q 366 567 396 582 q 349 553 358 557 q 327 545 339 549 q 313 539 321 541 q 297 534 305 537 q 286 532 292 533 q 274 529 281 530 q 267 528 271 528 q 258 528 263 529 q 245 525 251 526 q 232 526 240 524 q 224 530 228 528 q 216 534 220 532 q 193 538 203 537 q 175 543 182 538 q 167 562 168 551 q 168 586 165 574 q 178 609 171 598 q 194 627 184 620 q 225 614 208 613 q 256 614 243 614 q 294 618 275 614 q 328 629 313 623 q 340 631 336 629 q 353 635 345 633 q 381 670 368 646 q 396 718 395 694 q 395 732 397 726 q 392 745 392 738 q 321 732 351 745 q 283 728 300 726 q 258 739 266 730 q 253 758 255 754 q 251 764 251 761 q 259 784 251 776 q 274 799 267 792 q 298 808 286 803 q 320 821 309 814 q 356 839 339 827 q 392 859 373 850 q 409 870 399 865 q 427 882 419 875 q 448 904 439 898 q 453 918 456 910 q 445 926 450 924 q 437 933 439 929 q 431 943 433 937 q 425 951 429 949 q 413 947 420 952 q 399 939 406 941 q 371 926 385 932 q 345 914 357 921 q 339 909 342 911 q 331 906 336 906 q 308 889 320 895 q 281 883 296 883 q 263 897 270 888 q 250 914 256 906 q 254 932 251 930 q 258 939 258 935 q 272 949 269 944 q 281 960 275 955 q 307 974 296 968 q 327 986 319 979 z "},"²":{"ha":373,"x_min":153,"x_max":500,"o":"m 475 857 q 463 833 471 841 q 449 817 456 826 q 441 812 446 815 q 437 804 437 810 q 401 780 415 793 q 369 755 387 766 q 345 733 362 742 q 316 713 327 724 q 311 706 313 711 q 304 697 308 701 q 285 680 292 685 q 273 667 278 674 q 253 636 262 652 q 236 601 244 620 q 245 596 237 593 q 263 601 254 600 q 295 607 275 605 q 328 610 315 609 q 341 612 335 610 q 354 614 347 613 q 372 614 363 616 q 388 617 381 613 q 404 617 399 617 q 411 617 408 617 q 415 610 414 614 q 423 605 416 605 q 433 589 427 597 q 437 570 439 581 q 431 557 435 563 q 420 545 426 552 q 410 546 415 548 q 400 547 406 544 q 341 534 363 543 q 292 522 319 525 q 275 522 275 524 q 271 519 274 521 q 249 519 256 522 q 232 519 241 515 q 179 552 189 522 q 158 566 160 560 q 153 578 156 571 q 159 593 156 585 q 167 606 161 601 q 174 635 170 623 q 187 658 179 648 q 202 686 191 673 q 222 711 213 700 q 256 745 237 730 q 289 777 274 761 q 328 808 308 796 q 365 838 349 821 q 383 849 377 845 q 395 857 389 853 q 405 869 401 863 q 411 886 408 876 q 416 892 414 888 q 419 899 419 895 q 412 908 418 903 q 403 917 406 913 q 386 927 396 925 q 370 928 376 929 q 355 916 359 925 q 339 902 350 907 q 332 899 336 899 q 323 898 327 899 q 304 886 312 892 q 286 880 296 880 q 270 880 273 882 q 264 878 267 879 q 250 884 255 878 q 243 899 245 891 q 237 917 237 907 q 251 940 239 930 q 270 963 251 956 q 304 985 283 978 q 340 1008 326 993 q 362 1019 351 1013 q 388 1027 373 1024 q 399 1025 392 1024 q 412 1025 406 1027 q 437 1015 423 1024 q 458 1000 452 1006 q 489 963 477 983 q 498 910 500 943 q 496 895 498 903 q 494 880 495 887 q 484 868 487 875 q 475 857 481 861 z "},"¦":{"ha":327,"x_min":-30,"x_max":476,"o":"m 475 1015 q 473 1006 475 1010 q 472 998 472 1002 q 473 970 476 985 q 464 937 471 956 q 456 921 461 929 q 446 903 450 913 q 441 889 444 895 q 437 876 439 883 q 425 859 431 868 q 414 842 419 850 q 410 833 411 837 q 407 823 410 829 q 374 743 391 784 q 343 663 358 703 q 338 647 339 650 q 335 642 336 644 q 322 612 328 627 q 301 586 316 597 q 290 567 301 575 q 252 564 269 556 q 233 587 236 572 q 248 610 244 598 q 254 636 251 621 q 258 650 256 643 q 264 667 260 658 q 268 678 267 673 q 271 690 269 684 q 299 762 283 726 q 324 833 315 798 q 347 905 331 867 q 378 982 363 943 q 391 994 384 987 q 407 1008 399 1001 q 430 1027 425 1021 q 446 1031 435 1034 q 461 1023 453 1028 q 475 1015 469 1019 m 161 429 q 167 437 164 431 q 172 445 170 442 q 182 448 176 446 q 193 446 189 449 q 214 455 203 453 q 231 449 225 457 q 233 435 233 445 q 231 418 233 425 q 209 370 216 389 q 194 331 202 350 q 187 308 190 320 q 174 273 182 288 q 161 244 167 259 q 159 236 159 240 q 156 227 159 232 q 146 205 152 216 q 136 183 140 194 q 123 149 129 165 q 110 117 118 133 q 98 94 104 106 q 85 72 92 81 q 73 45 79 58 q 57 19 66 31 q 45 7 52 12 q 34 -5 39 1 q 12 -15 20 -9 q 4 -16 8 -14 q -3 -19 0 -18 q -14 -15 -9 -19 q -24 -11 -18 -11 q -28 18 -30 3 q -14 54 -26 34 q -5 68 -11 61 q 5 84 0 76 q 19 107 12 96 q 24 129 26 118 q 41 174 35 149 q 60 218 47 198 q 87 290 72 254 q 118 359 103 327 q 131 392 125 377 q 144 422 137 407 q 153 427 149 425 q 161 429 157 430 z "},"−":{"ha":555,"x_min":83,"x_max":540,"o":"m 540 456 q 538 447 537 450 q 537 438 540 444 q 530 429 534 433 q 522 418 526 425 q 513 399 515 407 q 500 384 510 391 q 470 378 486 381 q 441 373 454 374 q 411 372 429 373 q 380 373 393 370 q 362 374 366 374 q 354 374 358 374 q 311 370 335 374 q 267 365 288 365 q 238 368 252 366 q 205 366 224 369 q 186 364 190 363 q 178 363 182 365 q 165 361 171 362 q 153 359 159 361 q 138 354 146 357 q 121 353 129 351 q 113 355 117 353 q 104 361 110 358 q 92 366 98 363 q 83 373 85 368 q 87 395 85 382 q 99 420 88 407 q 106 427 102 423 q 114 437 110 431 q 121 447 119 444 q 130 456 123 450 q 143 459 137 458 q 156 464 149 460 q 178 463 167 461 q 195 458 190 464 q 234 455 216 458 q 274 453 252 452 q 300 455 288 453 q 330 458 313 457 l 377 458 q 399 460 388 458 q 423 461 411 461 q 446 460 435 463 q 468 458 457 458 q 493 462 479 460 q 519 464 507 464 q 532 460 526 461 q 540 456 537 460 z "},"×":{"ha":536,"x_min":3,"x_max":631,"o":"m 365 419 q 370 401 366 408 q 374 384 374 395 q 389 350 381 362 q 403 323 397 338 q 416 292 408 304 q 427 263 425 279 q 431 249 431 251 q 430 244 430 247 q 415 227 426 233 q 397 220 401 222 q 388 217 392 218 q 370 218 377 216 q 358 224 363 221 q 336 241 336 229 q 330 254 331 247 q 326 270 328 262 q 307 300 317 289 q 297 324 302 312 q 286 349 292 336 q 273 348 277 351 q 263 342 269 345 q 249 330 256 335 q 235 317 241 324 q 181 278 208 296 q 127 239 155 260 q 110 235 118 233 q 95 229 102 236 q 77 212 84 220 q 61 198 69 205 q 45 193 49 193 q 38 191 42 193 q 31 188 34 190 q 24 184 27 186 q 7 206 12 197 q 14 233 3 216 q 21 242 18 237 q 30 250 24 247 q 47 268 37 262 q 65 282 57 274 q 116 325 96 309 q 157 355 136 340 q 170 366 163 361 q 183 374 176 370 q 205 393 198 389 q 220 401 213 396 q 236 414 228 408 q 252 427 244 420 q 244 446 251 438 q 235 460 237 453 q 227 473 233 468 q 218 495 224 486 q 209 515 212 505 q 203 537 208 528 q 194 557 198 547 q 186 572 190 563 q 179 587 182 581 q 184 618 175 598 q 195 638 190 632 q 205 652 199 644 q 211 657 208 655 q 217 662 214 659 q 243 666 236 663 q 254 665 250 669 q 260 643 256 647 q 264 633 263 639 q 270 617 267 628 q 277 600 277 605 q 279 590 278 594 q 283 581 282 585 q 286 571 285 576 q 297 547 293 560 q 305 521 301 533 q 313 503 311 513 q 320 483 315 492 q 368 509 347 494 q 410 540 389 525 q 419 548 416 544 q 427 555 422 552 q 435 560 430 557 q 444 566 439 563 q 450 571 446 568 q 457 576 453 574 q 465 582 461 579 q 471 587 468 585 q 494 606 479 595 q 510 618 503 616 q 518 625 513 621 q 529 632 524 629 q 545 643 540 640 q 568 659 556 652 q 593 673 581 666 q 611 677 602 675 q 625 671 620 678 q 621 647 631 659 q 618 630 621 642 q 605 613 616 618 q 599 604 602 606 q 593 595 595 602 q 567 575 579 585 q 541 555 555 566 q 531 547 536 552 q 521 538 526 543 l 500 526 q 490 517 495 522 q 479 510 484 513 q 456 493 464 500 q 439 480 449 486 q 421 467 430 473 q 403 454 412 461 q 396 448 400 450 q 389 444 392 446 q 365 419 376 426 z "}," ":{"ha":430,"x_min":0,"x_max":0,"o":""},"!":{"ha":426,"x_min":-9,"x_max":576,"o":"m 461 1016 q 480 1010 473 1017 q 507 1010 494 1009 q 536 1008 521 1010 q 545 1008 540 1008 q 552 1006 549 1008 q 570 986 563 1001 q 567 959 576 971 q 567 941 570 948 q 563 924 564 933 q 539 878 549 901 q 514 837 529 856 q 506 819 509 825 q 500 807 503 814 q 493 795 498 800 q 486 784 488 791 q 473 760 479 770 q 460 736 467 749 q 433 689 448 712 q 408 639 418 666 q 395 615 401 628 q 382 591 389 602 q 370 568 376 581 q 357 544 363 556 l 336 513 q 332 500 334 506 q 327 487 330 494 q 317 461 321 473 q 305 437 312 449 q 292 412 298 423 q 279 391 286 401 q 268 366 273 378 q 252 345 263 354 q 244 324 250 332 q 235 305 239 316 q 207 250 222 277 q 176 197 191 224 q 158 184 167 191 q 134 176 149 176 q 123 177 127 175 q 114 182 119 179 q 97 191 100 186 q 91 199 94 197 q 92 214 91 206 q 88 225 92 221 q 110 290 99 256 q 136 354 121 323 q 150 380 142 368 q 164 406 157 392 q 175 432 171 418 q 187 457 179 446 q 208 512 201 484 q 229 563 216 540 q 248 608 237 586 q 266 652 258 631 q 282 682 277 680 q 283 692 281 686 q 289 703 286 699 q 297 726 292 716 q 311 766 304 747 q 330 803 319 785 q 336 823 332 814 q 342 842 339 831 q 347 860 345 852 q 354 876 350 868 q 361 905 357 890 q 370 935 365 920 q 386 970 378 954 q 404 997 393 986 q 414 1006 408 1001 q 426 1012 419 1010 q 444 1013 435 1015 q 461 1016 452 1010 m 83 114 q 110 111 100 117 q 121 104 119 103 q 123 103 122 104 q 146 68 141 94 q 142 24 152 43 q 118 -8 127 3 q 94 -26 109 -19 q 74 -37 83 -33 q 52 -38 65 -41 q 1 -12 11 -33 q -5 31 -9 8 q 1 52 -3 43 q 6 60 4 57 q 11 66 8 62 q 60 107 30 92 q 71 112 66 110 q 83 114 75 114 z "},"\"":{"ha":361,"x_min":178,"x_max":568,"o":"m 233 652 q 221 642 229 650 q 189 640 199 635 q 180 659 178 644 q 189 692 182 671 q 204 735 195 712 q 222 781 213 758 q 236 822 231 804 q 239 836 239 829 q 241 849 239 842 q 269 915 255 884 q 293 971 282 945 q 327 1001 308 990 q 362 1012 346 1012 q 381 1004 369 1006 q 399 996 393 1002 q 404 984 406 989 q 396 964 403 979 q 379 923 389 947 q 357 873 369 899 q 338 840 349 857 q 316 804 327 822 q 275 724 294 764 q 233 652 256 684 m 521 1001 q 568 987 551 1001 q 540 902 557 940 q 503 827 522 864 q 462 745 487 791 q 418 662 437 700 q 410 654 414 658 q 401 647 406 651 q 367 646 378 636 q 358 680 355 656 q 367 711 359 690 q 382 753 374 732 q 405 817 393 788 q 429 880 416 846 q 433 894 431 887 q 441 907 434 901 q 453 947 437 925 q 480 985 469 970 q 501 994 491 991 q 521 1001 511 997 z "},"#":{"ha":864,"x_min":26,"x_max":977,"o":"m 867 986 q 880 989 873 991 q 891 989 886 987 q 897 978 892 982 q 903 966 902 974 q 875 911 887 930 q 853 868 863 891 q 843 846 845 856 q 834 830 841 836 q 827 810 831 819 q 817 791 822 802 q 811 778 814 784 q 811 764 808 772 q 798 741 804 751 q 787 716 791 731 q 821 725 804 715 q 860 734 838 735 q 869 732 865 734 q 879 731 873 731 q 891 731 884 730 q 905 734 898 732 q 918 734 911 735 q 932 735 925 734 q 949 732 945 736 q 959 731 952 728 q 966 722 964 728 q 975 712 968 715 q 971 692 977 697 q 958 675 966 686 q 949 661 952 667 q 943 647 945 654 q 930 640 937 640 q 914 637 922 640 q 876 637 895 640 q 839 630 857 633 q 802 626 821 627 q 766 632 784 625 q 750 632 757 631 q 734 631 743 633 q 706 560 719 598 q 674 494 693 522 q 648 434 663 465 q 623 373 632 403 q 705 373 666 365 q 788 380 745 381 q 808 380 798 380 q 827 378 818 381 q 837 354 838 361 q 832 342 836 347 q 823 334 829 338 q 812 324 818 330 q 792 292 800 308 q 787 281 789 286 q 780 273 785 275 q 741 270 757 274 q 712 266 726 266 q 701 267 705 266 q 689 269 696 269 q 638 267 662 269 q 587 269 614 266 q 574 270 581 269 q 562 269 568 271 q 563 240 562 251 q 556 227 564 229 q 548 209 553 216 q 538 193 543 202 q 528 160 533 176 q 518 126 524 144 q 513 116 515 121 q 511 106 511 111 q 505 75 510 85 q 495 53 499 64 q 484 27 488 39 q 469 7 479 15 q 456 5 463 7 q 439 4 449 3 q 417 16 427 7 q 397 33 407 26 q 378 48 382 41 q 374 62 373 56 q 385 87 377 75 q 397 111 393 99 q 437 194 419 155 q 473 273 454 233 q 410 275 441 275 q 349 274 380 274 q 336 273 342 274 q 323 271 330 271 q 298 270 309 270 q 277 269 288 270 q 266 241 270 255 q 255 213 262 227 q 242 186 250 198 q 228 161 235 174 q 222 146 228 151 q 199 90 212 118 q 179 31 187 62 q 165 16 168 18 q 160 12 163 15 q 130 1 140 -8 q 110 16 121 9 q 98 41 104 31 q 88 60 92 52 q 103 109 91 88 q 125 152 115 129 q 138 186 132 170 q 156 218 145 203 q 170 246 164 240 q 175 263 175 252 q 138 264 156 270 q 102 262 121 259 q 71 269 88 263 q 61 273 65 271 q 54 277 57 274 q 45 276 49 274 q 38 279 42 278 q 28 300 30 290 q 31 324 26 309 q 37 340 34 338 q 46 354 39 343 q 136 354 94 354 q 214 353 178 354 q 227 379 222 365 q 237 408 231 393 q 257 452 245 427 q 278 496 269 477 q 302 557 290 524 q 324 623 313 591 q 285 626 307 628 q 240 623 263 624 q 213 621 227 621 q 186 618 199 620 q 171 618 179 617 q 159 621 163 618 q 151 637 149 629 q 153 656 152 646 q 161 670 156 663 q 165 686 167 677 q 175 703 175 703 q 254 707 210 709 q 336 709 297 705 q 349 709 342 709 q 358 712 355 709 q 368 727 362 715 q 378 743 374 739 q 389 759 385 751 q 396 773 392 766 q 416 804 407 791 q 433 836 426 818 q 443 854 439 844 q 453 872 446 865 q 467 911 464 898 q 477 939 471 925 q 493 964 484 954 q 514 982 502 975 q 547 989 536 990 q 566 978 559 989 q 585 963 582 970 q 584 946 583 955 q 578 935 585 937 q 564 903 571 918 q 551 873 557 888 q 512 793 528 830 q 479 719 496 755 q 519 718 499 719 q 560 716 538 716 q 590 716 575 718 q 621 716 605 715 q 659 719 640 716 q 696 720 677 722 q 715 763 707 742 q 735 804 723 784 q 784 900 760 852 q 836 996 808 948 q 853 993 848 996 q 865 993 859 990 l 867 986 m 637 628 q 628 630 632 631 q 618 628 624 629 q 587 625 604 627 q 560 618 571 623 q 541 621 549 621 q 521 620 532 621 q 471 622 495 618 q 427 623 448 625 q 405 566 414 591 q 388 521 396 540 q 378 506 384 514 q 364 479 370 492 q 350 454 358 467 q 330 414 339 438 q 315 370 321 389 q 348 364 331 362 q 382 366 365 366 q 408 369 400 369 q 423 369 416 369 q 442 372 433 372 q 461 374 452 373 q 494 373 476 374 q 528 373 511 372 q 585 504 555 434 q 646 629 614 574 l 637 628 z "},"$":{"ha":548,"x_min":14,"x_max":692,"o":"m 591 887 q 609 884 600 884 q 625 882 618 884 q 635 877 631 879 q 646 873 639 875 q 656 865 651 872 q 665 856 662 857 q 675 844 677 845 q 674 841 674 844 q 680 834 677 836 q 686 830 684 833 q 683 814 692 822 q 674 799 674 806 q 669 791 671 793 q 661 785 667 788 q 643 779 647 779 q 635 779 639 780 q 613 785 624 779 q 591 789 602 791 q 575 792 585 793 q 562 798 566 791 q 530 795 548 793 q 496 795 511 796 q 450 790 468 793 q 414 783 431 787 q 394 772 399 777 q 385 765 389 768 q 375 757 380 761 q 365 750 370 753 q 351 725 358 739 q 339 697 343 711 q 340 681 338 692 q 347 663 342 670 q 355 639 349 650 q 369 617 362 628 q 395 585 388 597 q 412 567 401 574 q 429 545 422 556 q 448 526 437 534 q 459 509 453 517 q 469 488 465 500 q 494 460 479 473 q 511 426 509 448 q 518 404 514 415 q 521 378 522 392 q 515 343 517 359 q 510 312 514 327 q 505 294 507 302 q 500 277 503 286 q 495 254 498 266 q 484 235 492 241 q 475 218 480 227 q 464 201 469 210 q 438 169 452 183 q 404 142 425 155 q 380 130 391 134 q 359 121 370 125 q 336 113 349 117 q 312 104 324 109 q 298 98 305 102 q 282 96 292 95 q 258 94 271 94 q 235 95 245 94 q 220 69 228 80 q 205 45 212 58 q 189 31 194 41 q 178 15 184 22 q 161 -9 168 0 q 146 -27 155 -19 q 137 -39 144 -37 q 123 -33 130 -41 q 115 -13 119 -26 q 111 8 110 0 q 134 56 123 38 q 149 88 144 73 q 156 102 153 99 q 159 111 159 104 q 61 201 91 132 q 50 218 54 208 q 39 235 46 229 q 35 245 38 241 q 30 255 33 248 q 18 264 23 258 q 14 279 14 271 q 16 300 18 294 q 16 312 14 307 q 35 328 30 319 q 46 343 39 336 q 47 358 45 350 q 62 357 56 361 q 75 351 68 354 q 103 318 95 331 q 119 293 111 305 q 137 270 127 281 q 159 251 146 259 q 171 237 163 243 q 186 225 179 232 q 195 216 190 221 q 209 212 201 212 q 224 203 216 206 q 240 194 233 199 q 273 197 259 194 q 302 208 288 201 q 328 218 320 213 q 338 229 334 224 q 347 239 342 235 q 377 269 362 254 q 403 304 392 285 q 411 375 416 335 q 396 452 406 415 q 363 479 380 467 q 334 511 347 492 q 321 522 330 514 q 300 542 311 532 q 279 564 290 552 q 262 579 273 571 q 248 597 251 587 q 244 612 245 604 q 240 627 243 620 q 235 650 237 639 q 235 673 233 662 q 237 693 235 684 q 236 715 239 703 q 244 758 233 739 q 264 792 255 776 q 277 814 271 803 q 293 834 283 826 q 302 840 298 836 q 309 846 305 844 q 318 850 316 846 q 327 853 320 853 q 352 865 343 863 q 368 873 361 868 q 378 876 373 875 q 385 879 382 876 q 395 879 391 878 q 403 882 399 880 q 425 884 414 884 q 448 884 435 884 q 474 888 461 886 q 502 891 487 891 q 523 939 514 914 q 547 982 532 963 q 553 995 548 989 q 560 1008 557 1001 q 576 1028 567 1023 q 589 1038 583 1040 q 601 1034 595 1036 q 614 1011 610 1025 q 620 983 617 997 q 618 958 621 970 q 609 933 614 945 q 598 909 604 921 q 591 887 593 898 z "},"%":{"ha":831,"x_min":20,"x_max":925,"o":"m 826 979 q 852 998 838 996 q 880 1004 865 1001 q 894 991 890 998 q 897 983 897 987 q 901 974 898 978 q 916 958 907 964 q 921 933 925 951 q 917 922 920 929 q 910 910 914 914 q 901 901 907 905 q 888 890 894 897 q 866 867 878 879 q 844 848 854 856 q 825 827 834 836 q 806 808 815 818 q 780 780 795 791 q 739 730 758 757 q 696 681 719 704 q 647 610 671 642 q 587 544 613 583 q 532 469 560 505 q 521 456 526 463 q 511 441 515 450 q 494 422 502 431 q 477 403 486 412 q 460 387 469 395 q 444 369 452 378 l 422 347 q 408 331 415 339 q 392 313 400 323 q 317 239 353 281 q 306 220 311 231 q 294 199 301 209 q 276 181 283 191 q 258 164 269 171 q 217 117 239 136 q 192 96 205 106 q 168 76 179 87 q 149 66 157 73 q 129 57 140 60 q 116 44 123 50 q 102 31 109 38 q 96 20 98 26 q 88 9 94 14 q 73 1 81 5 q 58 -4 64 -3 q 39 0 46 -5 q 24 9 33 5 q 22 24 23 16 q 20 42 20 33 q 38 62 28 57 q 77 111 56 88 q 119 155 98 133 q 161 199 142 175 q 203 241 180 222 q 230 273 217 258 q 258 302 243 289 q 272 321 264 312 q 286 339 279 330 q 300 357 293 347 q 313 374 307 366 q 355 432 331 408 q 401 483 378 456 q 446 536 423 510 q 490 590 469 563 q 516 621 503 605 q 540 651 529 636 q 585 703 567 681 q 621 746 602 724 q 664 799 640 773 q 707 853 688 825 q 726 872 715 864 q 746 891 738 880 q 708 883 727 887 q 670 872 689 879 q 655 867 661 867 q 645 863 651 865 q 632 860 639 860 q 613 865 623 860 q 597 875 604 871 q 577 870 581 878 q 570 856 574 863 q 551 825 559 837 q 536 800 543 812 q 530 787 533 793 q 525 774 528 781 q 506 749 517 761 q 487 724 495 738 q 461 694 472 709 q 435 663 450 678 q 425 656 430 659 q 416 650 420 654 q 398 632 407 642 q 380 613 389 623 q 347 591 362 602 q 312 571 331 581 q 299 564 305 567 q 286 560 293 560 q 270 550 278 556 q 251 540 262 544 q 210 549 232 544 q 174 566 189 555 q 136 646 145 600 q 142 692 138 669 q 156 736 146 715 q 161 749 159 743 q 167 761 164 754 q 184 798 175 780 q 206 831 193 817 q 257 887 229 861 q 316 933 285 913 q 336 947 327 940 q 357 960 346 954 q 403 983 380 972 q 433 996 418 990 q 463 1008 448 1002 q 494 1015 477 1005 q 532 1023 511 1024 q 583 1005 563 1021 q 599 991 591 998 q 609 972 606 983 q 627 956 618 966 q 646 940 635 945 q 667 937 656 936 q 693 939 678 937 q 730 943 711 941 q 765 949 749 944 q 800 966 785 959 q 826 979 814 974 m 517 947 q 468 930 490 940 q 425 906 446 920 q 376 876 401 891 q 328 844 350 861 q 304 824 315 833 q 283 804 293 815 q 264 777 274 793 q 244 746 255 761 q 231 728 237 738 q 222 705 225 718 q 221 677 221 696 q 227 655 221 659 q 237 653 232 652 q 248 654 241 654 q 269 651 259 651 q 291 659 281 652 q 312 673 301 666 q 340 692 326 680 q 369 712 354 701 q 395 734 384 723 q 408 747 401 741 q 420 760 414 753 q 444 780 433 770 q 464 800 454 789 q 480 833 473 819 q 496 861 487 846 q 505 879 500 871 q 513 894 510 887 q 515 913 515 905 q 517 929 515 921 q 518 938 517 933 q 517 947 519 943 m 777 233 q 749 186 762 209 q 719 140 736 164 q 700 117 711 127 q 686 97 692 106 q 670 77 680 88 q 656 66 663 72 q 642 54 648 61 q 621 36 631 45 q 595 19 610 27 q 584 14 590 16 q 571 8 578 11 q 528 -8 549 -3 q 513 -11 521 -9 q 496 -11 506 -12 q 470 -9 476 -7 q 457 -9 464 -11 q 416 4 430 -7 q 395 35 401 15 q 391 67 393 52 q 389 100 389 83 q 401 164 388 129 q 426 228 414 199 q 440 258 433 243 q 458 283 448 273 q 470 294 465 289 q 480 304 475 298 q 492 315 487 309 q 502 326 496 321 q 515 336 507 332 q 530 347 524 340 q 546 357 537 353 q 562 368 555 362 q 590 391 576 378 q 618 411 604 403 q 652 425 635 420 q 684 441 669 430 q 719 452 705 448 q 747 460 732 457 q 758 463 753 461 q 770 463 764 465 q 785 454 780 460 q 796 441 791 448 q 804 436 800 438 q 811 427 808 434 q 817 412 815 420 q 821 393 818 403 q 825 374 823 384 q 826 354 827 365 q 809 291 822 321 q 777 233 796 260 m 750 387 q 740 381 745 384 q 730 374 735 378 q 693 359 711 370 q 675 351 684 355 q 658 342 667 346 q 647 338 652 339 q 635 334 642 336 q 607 313 620 326 q 582 288 594 301 q 559 258 567 270 q 540 232 551 247 q 527 214 533 222 q 515 194 521 205 q 506 162 509 179 q 498 127 503 145 q 496 100 491 109 q 505 77 500 92 q 508 63 507 71 q 511 49 509 56 q 533 55 521 52 q 556 57 545 58 q 581 75 571 64 q 604 94 591 85 q 621 106 614 100 q 637 119 628 111 q 657 142 648 130 q 677 165 666 155 q 700 198 686 182 q 726 232 713 214 q 753 283 741 255 q 769 339 765 311 q 758 360 760 346 q 750 387 755 374 z "},"&":{"ha":768,"x_min":-14,"x_max":825,"o":"m 621 1020 q 649 1024 637 1025 q 671 1027 661 1023 q 690 1010 685 1013 q 697 1004 694 1006 q 715 979 708 993 q 728 951 722 966 q 730 937 731 944 q 728 924 728 930 q 729 907 728 916 q 728 888 730 899 q 721 864 723 878 q 716 837 719 850 q 707 820 713 829 q 694 803 701 811 q 688 796 692 800 q 680 789 684 792 q 670 777 677 781 q 658 768 663 773 q 646 757 650 758 q 640 753 643 755 q 633 748 636 750 q 628 743 631 746 q 591 715 604 723 q 567 696 578 707 q 540 674 555 684 q 487 620 513 647 q 433 568 461 593 q 436 526 435 548 q 438 483 437 505 q 439 471 438 476 q 439 460 439 465 q 438 447 437 450 q 439 441 439 444 q 439 429 438 431 q 439 423 439 426 q 443 401 439 406 q 449 391 446 396 q 450 381 448 385 q 450 372 453 377 q 461 347 457 361 q 472 323 465 334 q 494 270 479 293 q 519 221 509 247 q 532 200 530 208 q 537 189 533 193 q 581 225 560 206 q 625 259 602 244 q 675 300 654 279 q 720 336 696 320 q 741 370 731 353 q 746 407 750 388 q 720 398 730 399 q 704 392 711 397 q 684 385 692 391 q 665 373 675 380 q 644 357 651 363 q 629 338 636 351 q 604 309 614 327 q 578 277 593 290 q 573 308 570 296 q 583 332 576 320 q 610 365 601 355 q 621 380 621 377 q 624 385 621 382 q 655 415 644 406 q 694 451 678 438 q 728 475 711 464 q 756 479 742 471 q 783 484 770 487 q 798 473 795 476 q 803 465 800 469 q 808 460 806 463 q 814 454 811 457 q 819 447 817 452 q 822 439 821 442 q 823 416 821 425 q 823 398 825 408 q 815 380 821 388 q 787 328 803 342 q 758 296 772 315 q 734 274 745 282 q 713 258 724 266 q 691 235 703 245 q 669 213 680 225 q 634 184 651 198 q 601 156 617 171 q 584 141 591 149 q 568 126 576 133 q 579 105 571 114 q 585 83 587 96 q 591 70 587 76 q 595 57 594 64 q 605 32 604 47 q 612 3 606 16 q 644 -76 623 -42 q 616 -85 628 -91 q 597 -70 608 -75 q 575 -61 587 -65 q 564 -51 566 -50 q 563 -50 563 -52 q 554 -35 556 -43 q 547 -20 552 -27 q 536 -10 543 -14 q 525 -1 530 -7 q 499 32 510 16 q 477 62 488 47 q 465 59 469 62 q 453 54 460 56 q 416 36 431 43 q 387 22 401 28 q 355 5 370 14 q 324 -14 339 -3 q 296 -18 304 -19 q 279 -19 288 -18 q 262 -24 271 -20 q 245 -24 254 -27 q 220 -20 228 -19 q 205 -18 212 -20 q 189 -14 191 -18 q 163 -7 176 -11 q 138 -1 151 -4 q 117 4 122 1 q 107 11 111 7 q 79 31 87 23 q 65 49 71 38 q 34 93 46 69 q 11 140 22 117 q 2 166 5 152 q -8 193 -1 180 q -12 201 -9 197 q -14 213 -14 206 q -12 222 -14 216 q -7 235 -9 228 q -3 245 -5 240 q 0 252 -1 250 q 3 261 1 256 q 4 270 4 266 q 17 295 12 281 q 33 320 22 309 q 43 336 35 331 q 53 349 46 345 q 62 360 56 355 q 75 369 68 365 q 94 391 85 381 q 114 407 103 400 q 142 433 127 423 q 165 456 157 444 q 175 461 170 458 q 183 471 180 464 q 226 511 209 488 q 269 552 243 534 q 311 587 289 570 q 354 623 332 604 q 357 651 359 639 q 357 677 355 663 q 373 764 363 724 q 374 777 370 768 q 378 791 377 785 q 392 826 385 812 q 407 854 399 840 q 423 873 418 861 q 439 892 430 884 q 454 910 449 901 q 465 920 461 914 q 475 929 468 926 q 493 947 481 940 q 515 964 505 955 q 539 984 526 975 q 568 998 552 993 q 592 1013 578 1009 q 621 1020 606 1017 m 180 350 q 166 332 174 340 q 152 313 159 324 q 141 305 142 307 q 141 302 140 304 q 124 284 134 293 q 110 263 114 275 q 108 247 107 255 q 106 232 109 239 q 111 193 107 205 q 114 171 114 182 q 126 137 122 148 q 132 114 130 126 q 140 103 137 106 q 148 102 142 100 q 166 87 159 94 q 182 77 174 81 q 189 75 184 76 q 197 73 194 73 q 220 78 209 76 q 243 81 231 80 q 269 85 255 83 q 296 90 283 88 q 312 92 301 90 q 361 100 343 95 q 395 106 378 104 q 416 117 404 113 q 439 127 427 121 q 431 156 437 142 q 423 184 426 170 q 409 226 414 212 q 400 255 404 240 q 384 305 389 281 q 374 355 378 330 q 373 373 373 363 q 370 392 373 382 q 368 402 369 397 q 366 414 368 407 q 363 460 363 437 q 361 507 363 484 q 292 456 323 486 q 231 400 260 427 q 203 376 214 387 q 184 354 193 365 l 180 350 m 439 700 q 446 707 442 705 q 452 713 449 709 q 480 739 471 734 q 497 755 487 749 q 514 770 507 761 q 540 792 528 784 q 568 819 556 807 q 591 844 579 830 q 600 862 595 857 q 606 872 605 867 q 615 897 612 886 q 617 916 618 909 q 600 929 602 925 q 593 935 598 933 q 581 930 587 935 q 571 925 574 926 q 538 913 553 916 q 532 907 536 909 q 525 901 528 906 q 514 895 515 897 q 510 890 513 892 q 503 884 507 887 q 495 879 498 882 q 485 865 488 872 q 476 849 481 857 q 463 828 469 838 q 452 807 456 818 q 447 784 449 796 q 442 761 445 772 q 439 743 441 751 q 437 726 438 734 q 434 711 435 719 q 437 700 433 703 l 439 700 z "},"'":{"ha":195,"x_min":178,"x_max":406,"o":"m 233 652 q 221 642 229 650 q 189 640 199 635 q 180 659 178 644 q 189 692 182 671 q 204 735 195 712 q 222 781 213 758 q 236 822 231 804 q 239 836 239 829 q 241 849 239 842 q 269 915 255 884 q 293 971 282 945 q 327 1001 308 990 q 362 1012 346 1012 q 381 1004 369 1006 q 399 996 393 1002 q 404 984 406 989 q 396 964 403 979 q 379 923 389 947 q 357 873 369 899 q 338 840 349 857 q 316 804 327 822 q 275 724 294 764 q 233 652 256 684 z "},"(":{"ha":377,"x_min":66,"x_max":614,"o":"m 90 -58 q 83 -50 84 -56 q 81 -38 83 -45 q 75 -3 76 -19 q 74 19 73 8 q 73 42 75 30 q 70 135 66 84 q 83 236 73 186 q 89 262 85 248 q 96 289 92 277 q 104 315 102 302 q 110 339 107 328 q 117 355 113 347 q 123 370 121 362 q 129 396 126 387 q 144 431 136 412 q 159 468 152 449 q 178 518 170 494 q 199 568 187 543 q 216 594 208 582 q 233 621 225 606 q 248 647 241 635 q 264 674 255 659 q 316 745 289 709 q 374 819 343 780 q 469 932 422 876 q 572 1036 515 989 q 585 1036 582 1039 q 595 1028 589 1034 q 608 1021 601 1024 q 612 1008 614 1017 q 604 994 610 1002 q 591 979 598 986 q 559 941 576 959 q 526 903 541 922 q 506 876 515 890 q 486 848 496 863 q 475 833 480 840 q 465 819 469 826 q 448 793 456 804 q 431 766 439 781 q 420 746 425 755 q 411 726 416 736 q 401 708 407 716 q 392 693 395 700 q 372 655 381 674 q 354 618 362 636 q 345 605 350 612 q 338 591 340 598 q 323 568 331 581 q 309 543 316 555 q 300 519 304 530 q 290 495 297 507 q 285 486 288 490 q 279 479 282 483 q 270 458 274 469 q 259 438 266 448 q 215 333 236 387 q 180 233 194 279 q 177 225 178 229 q 175 218 176 221 q 171 195 171 205 q 167 171 171 186 q 165 154 164 161 q 163 136 165 146 q 160 113 160 125 q 157 90 160 102 q 157 43 155 62 q 160 1 160 24 q 163 -19 160 -5 q 164 -33 164 -26 q 161 -45 164 -39 q 146 -54 156 -52 q 129 -61 137 -56 q 109 -59 117 -62 q 90 -58 100 -56 z "},")":{"ha":384,"x_min":-114,"x_max":434,"o":"m 412 1034 q 417 1025 416 1031 q 419 1015 418 1020 q 422 997 420 1006 q 426 978 425 987 q 427 956 427 967 q 427 935 426 945 q 431 840 434 891 q 418 739 427 789 q 404 686 414 709 q 397 660 400 673 q 392 636 395 647 q 385 621 389 629 q 378 604 381 613 q 374 591 376 597 q 370 579 373 586 q 357 545 365 563 q 343 507 350 526 q 323 457 332 481 q 301 408 313 433 q 286 380 294 393 q 269 354 277 368 q 252 328 259 340 q 237 302 245 316 q 185 231 213 264 q 126 157 157 197 q 32 42 79 98 q -72 -61 -15 -14 q -85 -61 -80 -64 q -96 -53 -90 -58 q -108 -45 -102 -49 q -111 -33 -114 -42 q -103 -18 -109 -26 q -92 -4 -98 -11 q -58 35 -75 16 q -24 72 -41 53 q -5 99 -14 85 q 15 127 4 113 q 26 142 20 134 q 37 157 31 151 q 54 183 46 171 q 69 210 62 195 q 79 230 75 220 q 91 250 84 240 q 101 267 95 259 q 110 282 107 275 q 130 321 121 302 q 148 357 138 339 q 155 370 151 363 q 164 384 160 377 q 178 408 171 396 q 190 433 184 420 q 201 457 197 445 q 212 481 205 469 q 216 488 214 484 q 221 496 218 492 q 231 517 227 506 q 240 537 236 528 q 286 643 264 589 q 321 742 307 697 q 324 750 323 746 q 327 757 326 754 q 330 781 330 770 q 334 804 330 791 q 336 821 336 814 q 339 838 336 827 q 342 862 342 850 q 343 886 342 873 q 344 932 347 913 q 342 974 340 951 q 340 984 342 979 q 339 994 339 989 q 338 1008 338 1001 q 340 1020 338 1016 q 355 1029 346 1027 q 370 1036 363 1031 q 393 1035 384 1038 q 412 1034 401 1032 z "},"*":{"ha":481,"x_min":174,"x_max":665,"o":"m 534 1009 q 529 991 528 1001 q 529 975 530 982 q 509 932 524 951 q 483 891 495 913 q 467 863 475 876 q 453 834 460 849 q 498 843 479 837 q 538 853 518 849 q 570 860 553 856 q 601 869 586 864 q 618 871 609 869 q 633 875 627 873 q 662 867 655 871 q 654 823 665 848 q 632 779 644 798 q 613 779 623 773 q 582 780 597 776 q 551 783 567 784 q 538 784 544 783 q 526 783 533 785 q 488 776 502 774 q 458 774 473 777 q 463 762 464 765 q 464 755 463 758 q 471 747 467 750 q 480 739 476 745 q 491 722 488 728 q 517 711 503 715 q 538 699 532 707 q 554 686 549 686 q 563 682 559 685 q 556 667 559 673 q 547 659 553 662 q 521 625 536 639 q 514 621 518 623 q 506 617 510 620 q 494 604 502 614 q 475 592 484 597 q 458 578 465 587 q 441 580 446 575 q 431 590 435 585 q 424 646 430 620 q 411 700 418 673 q 406 724 408 712 q 395 743 403 736 q 366 712 378 728 q 340 678 353 696 q 296 619 315 648 q 259 562 278 590 q 244 560 252 560 q 236 566 241 564 q 229 574 231 568 q 212 579 217 575 q 199 590 206 583 q 192 602 195 597 q 187 616 189 606 q 182 627 182 623 q 182 633 183 631 q 193 644 194 643 q 194 647 191 644 q 248 677 221 662 q 298 711 275 692 q 357 760 330 730 q 332 761 343 762 q 308 760 320 760 q 286 762 297 761 q 263 761 275 764 q 231 754 247 758 q 197 751 214 750 q 182 745 190 742 q 174 757 174 747 q 178 781 174 766 q 189 808 183 795 q 197 829 193 819 q 209 849 202 840 q 218 859 213 854 q 227 871 224 864 q 243 878 237 876 q 250 874 245 875 q 259 871 254 873 q 271 863 266 868 q 281 856 275 859 q 318 846 307 853 q 345 837 330 840 q 363 830 351 831 q 384 827 374 829 q 389 849 385 838 q 395 872 392 860 q 399 898 397 886 q 404 922 401 910 q 407 956 407 940 q 416 989 407 971 q 441 994 429 994 q 465 994 454 994 q 500 1003 483 996 q 534 1009 518 1010 z "},"+":{"ha":640,"x_min":84,"x_max":628,"o":"m 494 699 q 499 681 499 688 q 500 667 499 674 q 498 659 498 662 q 495 650 498 655 q 482 627 488 637 q 472 605 476 617 q 456 572 465 590 q 435 537 446 555 q 418 499 429 518 q 400 461 408 480 q 441 468 423 467 q 473 468 458 469 q 488 467 480 468 q 503 467 496 467 q 528 466 515 465 q 555 468 541 467 q 586 467 571 469 q 616 465 601 465 q 624 438 628 450 q 609 412 620 426 q 578 406 590 410 q 555 401 566 401 q 536 397 545 397 q 518 395 528 397 q 509 390 514 392 q 499 385 503 388 q 473 384 480 382 q 460 385 467 385 q 434 387 446 387 q 407 387 422 387 q 397 386 401 387 q 388 385 392 385 q 374 385 381 384 q 359 382 366 385 q 334 319 349 351 q 308 256 319 288 q 297 229 304 240 q 289 212 294 222 q 284 195 286 202 q 279 179 282 187 q 273 166 277 172 q 266 153 270 160 q 252 142 259 148 q 237 134 244 137 q 219 131 228 134 q 203 132 210 127 q 188 130 189 127 q 184 134 187 132 q 178 145 178 140 q 178 153 178 151 q 178 163 176 157 q 180 175 179 170 q 216 245 199 210 q 220 258 218 252 q 225 269 222 263 q 229 283 228 277 q 232 296 229 289 q 252 334 239 315 q 274 380 266 354 q 194 374 231 376 q 122 381 157 372 q 94 391 102 382 q 88 412 85 400 q 87 425 84 420 q 94 435 91 429 q 103 444 102 445 q 106 445 104 444 q 127 450 123 454 q 152 454 138 452 q 178 456 165 456 q 198 454 189 454 q 214 453 208 453 q 263 456 241 456 q 308 457 285 457 q 316 476 313 467 q 326 498 319 486 q 337 517 331 507 q 349 537 343 526 q 368 582 359 560 q 391 621 377 604 q 406 648 401 637 q 419 670 411 659 q 431 682 425 677 q 444 694 438 688 q 459 703 452 699 q 473 711 467 707 q 495 712 487 713 l 494 699 z "},",":{"ha":184,"x_min":-43,"x_max":88,"o":"m -34 -54 q 1 -23 -15 -43 q -24 -14 -11 -22 q -41 12 -37 -5 q -39 52 -43 30 q -23 83 -34 75 q -15 93 -20 88 q -5 102 -9 98 q 35 113 12 119 q 47 111 42 111 q 57 114 53 111 q 66 109 62 111 q 75 103 71 106 q 83 83 77 92 q 88 61 88 73 q 81 31 88 46 q 72 1 75 16 q 61 -14 64 -3 q 53 -35 58 -24 q 33 -54 42 -45 q 15 -75 23 -64 q -5 -84 4 -77 q -11 -92 -9 -88 q -16 -96 -12 -96 q -23 -94 -19 -96 q -30 -88 -27 -91 q -33 -75 -30 -79 q -35 -68 -35 -71 l -34 -54 z "},"-":{"ha":555,"x_min":83,"x_max":540,"o":"m 540 456 q 538 447 537 450 q 537 438 540 444 q 530 429 534 433 q 522 418 526 425 q 513 399 515 407 q 500 384 510 391 q 470 378 486 381 q 441 373 454 374 q 411 372 429 373 q 380 373 393 370 q 362 374 366 374 q 354 374 358 374 q 311 370 335 374 q 267 365 288 365 q 238 368 252 366 q 205 366 224 369 q 186 364 190 363 q 178 363 182 365 q 165 361 171 362 q 153 359 159 361 q 138 354 146 357 q 121 353 129 351 q 113 355 117 353 q 104 361 110 358 q 92 366 98 363 q 83 373 85 368 q 87 395 85 382 q 99 420 88 407 q 106 427 102 423 q 114 437 110 431 q 121 447 119 444 q 130 456 123 450 q 143 459 137 458 q 156 464 149 460 q 178 463 167 461 q 195 458 190 464 q 234 455 216 458 q 274 453 252 452 q 300 455 288 453 q 330 458 313 457 l 377 458 q 399 460 388 458 q 423 461 411 461 q 446 460 435 463 q 468 458 457 458 q 493 462 479 460 q 519 464 507 464 q 532 460 526 461 q 540 456 537 460 z "},".":{"ha":189,"x_min":-43,"x_max":94,"o":"m 30 119 q 38 115 33 117 q 46 110 43 114 q 60 110 53 113 q 73 104 66 107 q 88 84 77 95 q 93 56 92 69 q 88 30 94 42 q 73 9 77 20 q 60 -9 69 -3 q 44 -20 53 -16 q 26 -31 35 -24 q -3 -32 8 -37 q -24 -19 -15 -27 q -41 12 -38 -7 q -38 51 -43 31 q -23 87 -33 71 q -3 111 -14 104 q 12 116 5 114 q 30 119 19 118 z "},"/":{"ha":526,"x_min":-126,"x_max":804,"o":"m 804 1005 q 752 936 779 972 q 694 863 726 899 q 606 766 654 814 q 526 673 559 719 q 511 647 519 659 q 495 623 503 635 q 473 593 479 601 q 461 575 468 585 q 395 498 430 537 q 328 418 359 458 q 260 338 296 377 q 191 259 225 298 q 146 205 168 232 q 103 153 125 178 q 74 117 88 134 q 49 84 60 100 q 5 41 27 64 q -41 5 -16 18 q -56 -1 -47 3 q -73 -8 -64 -5 q -91 -15 -80 -11 q -106 -18 -102 -19 q -114 -6 -111 -7 q -119 -3 -117 -5 q -125 7 -126 3 q -111 27 -123 12 q -102 40 -106 34 q -94 50 -98 46 q -65 79 -80 65 q -35 109 -50 94 q -6 141 -20 123 q 20 175 8 159 q 62 229 42 202 q 107 288 83 256 l 156 349 q 178 380 167 363 q 201 411 190 396 q 233 445 218 427 q 279 496 256 468 q 323 545 302 524 q 361 591 342 568 q 400 639 380 614 q 477 728 437 682 q 553 817 518 773 q 573 840 564 827 q 591 863 582 852 q 614 886 602 875 q 635 910 625 898 q 661 943 650 926 q 690 977 673 959 q 697 982 693 979 q 707 989 701 985 q 717 1000 712 994 q 727 1008 722 1005 q 734 1013 730 1010 q 746 1020 739 1016 q 760 1028 755 1025 q 770 1031 764 1031 q 782 1030 774 1031 q 792 1028 789 1029 q 793 1021 795 1025 q 793 1010 791 1016 l 804 1005 z "},":":{"ha":251,"x_min":-71,"x_max":237,"o":"m 1 119 q 9 115 4 117 q 18 110 15 114 q 32 110 24 113 q 46 104 39 107 q 52 94 49 99 q 60 84 56 90 q 64 56 64 69 q 60 30 65 42 q 46 9 50 20 q 33 -9 42 -3 q 16 -20 24 -16 q -1 -31 7 -24 q -31 -32 -19 -37 q -53 -19 -43 -27 q -68 12 -66 -7 q -66 51 -71 31 q -52 87 -61 71 q -31 111 -42 104 q -15 116 -22 114 q 1 119 -8 118 m 175 510 q 183 506 178 507 q 191 500 189 505 q 205 500 198 503 q 218 495 212 498 q 233 475 225 481 q 237 446 236 460 q 233 419 237 433 q 220 399 224 411 q 206 381 216 388 q 188 370 197 374 q 172 359 179 366 q 142 359 155 354 q 121 370 129 363 q 104 401 106 382 q 106 440 102 420 q 121 477 111 460 q 142 502 132 494 q 158 507 151 505 q 175 510 165 509 z "},";":{"ha":254,"x_min":-71,"x_max":240,"o":"m 178 510 q 186 506 180 507 q 194 500 191 505 q 208 500 202 503 q 221 495 214 498 q 236 475 228 481 q 239 446 239 460 q 236 419 240 433 q 222 399 227 411 q 209 381 218 388 q 191 370 199 374 q 175 359 182 366 q 144 359 157 354 q 123 370 132 363 q 106 401 109 382 q 109 440 104 420 q 125 477 114 460 q 146 502 136 494 q 161 507 153 505 q 178 510 168 509 m -61 -54 q -42 -40 -50 -47 q -26 -23 -34 -33 q -52 -14 -39 -22 q -68 12 -64 -5 q -66 52 -71 30 q -52 83 -61 75 q -43 93 -49 88 q -34 102 -38 98 q -15 113 -24 110 q 7 113 -5 117 q 19 111 14 111 q 30 114 24 111 q 39 109 35 111 q 47 103 43 106 q 55 83 50 92 q 60 61 60 73 q 54 31 60 46 q 45 1 47 16 q 34 -14 37 -3 q 24 -35 31 -24 q 5 -54 14 -45 q -12 -75 -4 -64 q -34 -84 -23 -77 q -39 -92 -38 -88 q -45 -96 -41 -96 q -57 -81 -57 -81 q -61 -62 -64 -65 q -61 -54 -58 -58 z "},"<":{"ha":689,"x_min":81,"x_max":804,"o":"m 106 435 q 123 450 123 446 q 133 456 122 454 q 146 463 146 461 q 149 465 146 464 q 190 483 172 475 q 222 502 208 491 q 262 517 244 509 q 307 532 281 526 q 327 543 315 537 q 382 573 357 559 q 438 600 407 587 q 461 610 449 605 q 484 620 473 614 q 493 625 488 623 q 505 629 498 628 q 558 654 529 643 q 613 681 587 666 q 639 690 629 684 q 689 704 665 697 q 745 713 713 711 q 758 713 751 713 q 765 709 765 712 q 789 702 784 708 q 800 690 793 696 q 791 673 804 681 q 764 659 779 666 q 713 635 738 647 q 667 618 689 624 q 616 597 637 608 q 567 581 594 587 q 550 573 557 578 q 533 563 543 568 q 501 545 521 553 q 463 529 481 537 q 416 510 438 519 q 368 491 395 500 q 346 484 353 487 q 334 479 339 481 q 313 473 321 476 q 294 467 305 469 q 267 454 283 458 q 240 441 251 449 q 236 431 237 434 q 233 422 235 427 q 244 419 241 419 q 248 418 247 419 q 278 385 255 400 q 321 355 301 370 q 328 351 324 353 q 338 347 331 349 q 372 320 358 335 q 415 296 387 305 q 429 283 426 290 q 442 277 439 282 q 458 268 450 274 q 467 255 465 262 q 462 228 465 237 q 457 209 458 218 q 454 191 456 199 q 446 174 452 182 q 434 174 441 175 q 426 176 427 172 q 401 172 406 168 q 389 178 396 175 q 361 188 368 184 q 349 194 355 191 q 332 206 338 199 q 316 218 327 213 q 288 235 302 227 q 263 252 274 243 q 236 277 248 266 q 212 300 224 289 q 186 317 193 309 q 176 329 182 324 q 168 338 171 334 q 155 359 165 357 q 137 365 145 361 q 128 372 130 368 q 123 378 126 376 q 104 393 107 389 q 98 401 102 397 q 87 411 94 406 q 83 420 81 416 q 106 435 85 431 z "},"=":{"ha":642,"x_min":83,"x_max":629,"o":"m 456 559 q 476 560 467 562 q 496 559 486 559 q 533 560 521 562 q 560 559 545 559 q 579 559 575 560 q 589 556 583 557 q 600 555 595 556 q 609 553 604 555 q 619 553 614 553 q 627 551 624 553 q 629 541 629 548 q 624 528 628 534 q 616 519 621 524 q 606 511 612 514 q 597 508 602 509 q 586 505 593 507 q 580 502 583 503 q 572 498 576 500 q 559 492 564 495 q 545 483 553 488 q 535 480 540 483 q 526 476 530 477 q 517 475 522 475 q 507 476 513 476 q 494 476 500 476 q 480 477 487 476 q 451 478 467 477 q 422 481 435 479 q 406 484 414 484 q 389 484 397 483 q 363 488 376 486 q 336 483 351 490 q 320 484 330 483 q 304 484 311 484 q 281 483 293 486 q 256 479 269 480 q 244 479 250 479 q 232 479 239 480 q 220 477 220 476 q 217 477 220 477 q 189 476 198 475 q 176 480 180 477 q 163 489 168 483 q 165 510 159 495 q 178 528 170 521 q 194 543 187 536 q 209 554 206 553 q 214 559 212 555 q 229 559 221 557 q 245 562 236 562 q 272 564 266 566 q 285 562 278 563 q 312 563 305 562 q 326 563 319 564 q 339 562 335 562 q 346 562 343 563 q 371 560 359 559 q 393 562 382 562 q 413 560 404 560 q 430 560 422 560 q 444 561 437 560 q 456 559 450 562 m 545 415 q 547 393 547 396 q 541 385 547 391 q 522 363 532 373 q 502 349 511 354 q 477 336 484 340 q 464 328 471 331 q 456 325 461 326 q 449 324 452 324 q 426 323 438 323 q 403 323 414 323 q 376 323 389 323 q 350 324 362 324 q 328 323 339 324 q 305 323 316 323 q 293 323 298 323 q 281 323 288 324 l 217 323 q 199 322 209 323 q 183 321 190 321 q 172 322 174 323 q 168 321 171 321 q 151 321 160 320 q 132 321 141 321 q 111 322 121 321 q 94 327 100 323 q 87 335 91 330 q 83 345 83 340 q 85 354 83 349 q 90 366 88 359 q 102 386 100 381 q 107 395 104 391 q 131 404 125 403 q 144 404 137 404 q 168 408 156 406 q 191 412 180 411 q 211 411 202 414 q 231 407 220 408 q 254 405 241 404 q 277 404 266 406 q 313 406 296 403 q 347 410 330 408 q 361 410 354 410 q 373 411 368 410 q 392 413 381 412 q 410 411 403 414 q 425 414 416 414 q 442 414 433 414 q 458 414 452 414 q 472 412 465 415 q 509 414 488 412 q 545 414 530 415 l 545 415 z "},">":{"ha":661,"x_min":-46,"x_max":677,"o":"m 654 452 q 637 436 636 441 q 625 430 637 431 q 614 423 614 425 q 612 420 614 422 q 570 404 587 411 q 537 385 552 396 q 496 369 514 378 q 452 354 479 359 q 433 343 442 347 q 377 313 403 328 q 323 286 351 298 q 298 277 311 281 q 274 267 285 273 q 267 261 271 264 q 254 256 262 258 q 200 232 229 243 q 148 206 171 221 q 132 201 140 203 q 121 195 125 199 q 71 182 96 189 q 14 171 46 175 q 1 173 7 172 q -7 176 -5 174 q -30 184 -26 178 q -41 195 -34 190 q -33 214 -46 206 q -4 227 -19 221 q 46 250 23 239 q 92 269 69 262 q 144 288 122 278 q 191 305 165 298 q 210 313 202 308 q 225 323 217 317 q 258 341 239 334 q 297 357 278 349 q 342 376 320 366 q 392 395 365 387 q 412 401 406 399 q 425 407 419 404 q 446 413 437 410 q 465 419 454 416 q 492 433 476 427 q 519 446 509 438 q 522 456 521 453 q 526 464 524 458 q 515 467 518 467 q 511 468 513 467 q 481 500 503 486 q 439 530 458 515 q 433 535 437 533 q 422 538 429 537 q 387 566 401 552 q 345 590 373 581 q 330 602 331 597 q 301 618 309 613 q 292 631 293 624 q 297 658 294 648 q 301 677 300 667 q 304 695 302 686 q 312 712 305 704 q 326 712 319 711 q 334 709 332 713 q 358 713 353 716 q 370 708 363 711 q 411 692 399 697 q 427 680 422 686 q 444 669 433 674 q 471 651 457 659 q 496 633 486 643 q 523 609 510 621 q 548 585 536 597 q 572 568 564 578 q 582 558 576 563 q 590 548 587 553 q 604 526 593 529 q 623 521 616 524 q 630 514 628 518 q 635 507 632 510 q 645 502 644 503 q 648 500 646 500 q 654 493 651 498 q 661 484 658 488 q 671 475 666 480 q 675 465 677 469 q 654 452 675 454 z "},"?":{"ha":616,"x_min":53,"x_max":798,"o":"m 137 114 q 144 115 140 117 q 152 111 149 113 q 178 107 167 114 q 189 92 187 95 q 195 83 191 90 q 207 65 202 75 q 205 42 212 56 q 195 22 197 28 q 191 11 194 16 q 175 -4 186 3 q 156 -24 170 -19 q 123 -34 142 -28 q 115 -37 119 -35 q 109 -38 111 -38 q 83 -30 94 -39 q 64 -14 73 -20 q 57 41 53 12 q 66 71 60 57 q 80 96 73 84 q 137 114 113 100 m 540 935 q 429 906 481 922 q 330 867 377 890 q 313 857 323 860 q 301 846 304 854 q 293 831 296 838 q 283 822 290 825 q 277 809 279 811 q 274 804 275 807 q 267 792 270 795 q 263 785 264 789 q 254 771 259 776 q 247 761 250 766 q 243 743 244 754 q 243 724 241 731 q 248 709 244 716 q 258 699 252 703 q 277 696 267 697 q 296 692 286 694 q 317 690 309 688 q 328 696 324 693 q 372 719 349 707 q 411 745 396 731 q 422 766 416 755 q 430 791 429 776 q 431 809 431 800 q 433 827 430 818 q 446 830 445 833 q 450 826 448 827 q 465 788 460 811 q 469 745 471 765 q 465 722 469 735 q 456 703 460 709 q 447 694 453 699 q 435 686 441 690 q 413 672 418 674 q 406 663 408 670 q 337 627 372 644 q 269 595 302 610 q 252 596 260 597 q 237 595 244 595 q 212 602 225 597 q 189 614 198 608 q 174 633 179 618 q 164 658 168 647 q 158 678 161 669 q 155 700 155 688 q 155 724 155 711 q 156 749 156 738 q 165 810 156 785 q 173 827 172 823 q 175 833 174 830 q 191 860 180 849 q 213 880 201 871 q 238 896 225 888 q 263 913 251 903 q 283 921 275 918 q 297 930 292 924 q 311 936 304 933 q 326 941 319 939 q 357 961 342 951 q 391 981 372 971 q 424 994 406 987 q 457 1008 442 1001 q 471 1017 463 1015 q 491 1021 480 1019 q 507 1025 500 1024 q 521 1023 514 1027 q 543 1027 532 1027 q 564 1029 555 1027 q 578 1033 574 1034 q 586 1034 582 1032 q 593 1035 589 1034 q 601 1036 597 1036 q 625 1035 614 1036 q 650 1032 635 1034 q 671 1031 663 1032 q 690 1028 680 1031 q 699 1026 694 1027 q 707 1023 704 1025 q 713 1015 709 1020 q 722 1008 718 1010 q 736 996 730 1001 q 749 983 742 991 q 756 970 754 974 q 761 964 758 967 q 768 948 765 958 q 786 919 776 933 q 793 884 796 905 q 794 857 798 871 q 791 827 791 844 q 785 800 792 810 q 774 783 779 791 q 765 761 769 768 q 757 747 761 754 q 749 724 754 734 q 736 704 743 713 q 717 680 724 688 q 700 665 709 671 q 681 646 692 654 q 656 632 670 639 q 641 625 650 628 q 624 617 632 621 q 608 605 616 612 q 593 591 600 598 q 576 581 585 586 q 559 571 567 576 q 541 562 548 567 q 524 551 533 556 q 504 538 513 544 q 483 525 495 532 q 441 500 463 513 q 401 473 420 488 q 378 454 389 464 q 354 435 366 444 q 342 420 343 423 q 339 412 340 418 q 321 379 328 393 q 307 351 313 365 q 296 322 300 338 q 286 292 292 307 q 281 278 283 285 q 274 263 278 271 q 264 237 269 245 q 258 216 262 229 q 244 203 254 203 q 239 195 243 198 q 232 190 235 193 q 204 179 218 187 q 172 175 190 171 q 155 167 164 168 q 144 172 146 170 q 134 171 141 174 q 122 193 122 178 q 130 218 122 209 q 161 286 146 258 q 194 342 175 315 q 199 349 197 346 q 205 357 202 353 q 208 371 208 363 q 213 384 208 378 q 237 434 222 412 q 263 483 252 456 q 268 490 266 486 q 273 496 270 494 q 276 508 274 506 q 278 513 278 510 q 324 532 298 528 q 373 547 350 536 q 408 569 395 562 q 433 587 420 576 q 459 608 446 598 q 484 628 472 618 q 538 675 510 651 q 589 728 566 700 q 600 745 594 735 q 610 764 605 754 q 621 802 617 779 q 625 840 624 821 q 616 875 627 860 q 602 887 605 883 q 595 894 600 891 q 578 905 581 903 q 572 909 575 907 q 566 912 570 911 q 557 916 562 913 q 552 920 555 918 q 544 922 549 921 l 540 935 z "},"@":{"ha":1078,"x_min":111,"x_max":1092,"o":"m 171 152 q 157 190 160 170 q 141 227 155 210 q 125 277 133 254 q 111 328 118 301 q 113 337 114 332 q 115 346 113 342 q 112 377 113 361 q 113 410 111 393 q 114 423 114 416 q 114 438 114 430 q 147 583 121 513 q 210 711 174 652 q 212 720 210 715 q 218 728 214 726 q 251 777 232 754 q 289 821 270 799 q 304 839 296 829 q 324 857 313 849 q 374 898 349 879 q 405 918 389 909 q 435 936 420 926 q 463 956 448 948 q 494 972 477 964 q 524 986 505 983 q 560 994 543 989 q 576 1001 566 997 q 589 997 586 1005 q 613 1006 600 1004 q 642 1010 627 1008 q 659 1013 648 1012 q 677 1010 670 1015 q 701 1013 689 1013 q 724 1009 713 1012 q 747 1009 735 1012 q 769 1004 758 1006 q 791 1000 780 1001 q 812 997 803 1000 q 850 983 831 990 q 887 971 869 977 q 951 933 922 954 q 1005 886 979 913 q 1008 878 1005 880 q 1012 869 1010 875 q 1036 838 1028 857 q 1053 799 1043 818 q 1073 739 1065 772 q 1083 693 1080 716 q 1089 644 1086 670 q 1090 633 1090 639 q 1090 623 1089 628 q 1091 611 1090 616 q 1092 600 1092 606 q 1088 564 1092 583 q 1080 524 1084 544 q 1069 484 1076 505 q 1055 449 1062 464 q 1046 425 1053 435 q 1034 403 1040 414 q 1010 351 1019 378 q 983 304 1001 324 q 970 281 979 289 q 952 264 962 274 q 933 247 943 254 q 914 229 924 240 q 901 221 906 228 q 888 210 895 214 q 877 203 883 206 q 864 197 871 199 q 835 183 848 186 q 812 175 822 180 q 782 182 796 176 q 755 195 768 189 q 736 210 745 202 q 718 224 728 217 q 678 316 684 263 q 665 299 670 309 q 652 283 661 289 q 640 264 647 273 q 625 247 632 256 q 607 235 616 240 q 590 224 598 231 q 574 217 581 221 q 555 210 567 213 q 538 205 548 209 q 521 199 529 201 q 506 198 514 198 q 491 198 498 198 q 470 200 483 198 q 450 206 457 202 q 433 218 438 217 q 425 224 427 220 q 420 230 422 227 q 416 237 419 233 q 412 243 414 240 q 407 250 410 247 q 387 294 395 269 q 377 347 380 320 q 391 465 380 406 q 399 500 393 481 q 411 538 404 519 q 418 559 414 549 q 426 576 423 568 q 431 586 429 583 q 438 595 433 589 q 450 613 446 610 q 457 620 454 616 q 463 627 460 624 q 468 635 465 631 q 479 650 475 642 q 490 667 484 659 q 511 692 500 678 q 532 716 521 705 q 545 724 538 719 q 556 735 552 728 q 564 739 560 736 q 570 743 567 741 q 593 758 583 747 q 617 773 602 769 q 638 777 628 776 q 661 783 648 779 q 681 784 675 785 q 696 779 689 783 q 711 770 704 774 q 742 746 727 757 q 764 716 757 735 q 770 734 769 726 q 777 749 770 742 q 791 758 784 755 q 804 766 798 760 q 823 768 817 766 q 839 747 831 760 q 849 720 846 735 q 853 711 852 715 q 853 701 854 707 q 850 688 853 694 q 845 677 848 682 q 840 671 842 674 q 836 665 837 667 q 830 646 833 656 q 820 614 825 631 q 810 582 815 598 q 787 526 800 555 q 769 471 773 498 q 757 388 761 430 q 763 332 751 355 q 796 290 774 308 q 818 290 806 285 q 841 298 830 296 q 855 302 849 301 q 868 307 861 304 q 882 319 875 309 q 894 335 890 330 q 907 349 902 342 q 920 363 913 357 q 935 389 926 377 q 948 415 943 401 q 953 425 951 420 q 959 437 955 430 q 964 446 962 442 q 968 456 966 450 q 979 490 975 471 q 985 528 982 509 q 985 587 987 557 q 985 644 982 617 q 983 667 982 655 q 981 690 983 680 q 936 802 971 757 q 861 888 901 848 q 853 904 863 902 q 833 909 844 906 q 812 916 823 911 q 791 922 802 920 q 778 924 784 924 q 765 925 772 925 q 739 930 753 928 q 709 928 724 932 q 675 930 693 933 q 640 921 658 926 q 622 916 631 918 q 602 911 613 914 q 584 903 593 909 q 564 891 575 897 q 550 886 557 888 q 536 880 543 883 q 520 869 528 875 q 503 859 513 863 q 490 852 496 856 q 476 845 483 848 q 458 833 464 838 q 448 826 452 829 q 433 817 439 821 q 419 806 426 812 q 392 785 404 799 q 365 765 380 772 q 359 759 362 762 q 351 753 355 755 q 330 722 340 736 q 308 692 320 707 q 289 666 293 677 q 278 644 285 655 q 271 635 275 640 q 264 625 267 631 q 254 601 258 614 q 245 574 251 587 q 232 536 236 555 q 225 498 228 518 q 222 479 222 487 q 218 461 221 471 q 214 412 214 435 q 216 366 213 389 q 216 344 217 354 q 220 323 216 334 q 224 315 222 319 q 227 307 225 312 q 231 290 229 298 q 235 275 232 282 q 245 245 241 259 q 258 220 254 229 q 269 203 263 210 q 281 188 274 195 q 302 170 289 180 q 320 153 312 161 q 339 136 328 144 q 349 130 343 133 q 359 123 354 127 q 382 110 370 117 q 408 96 395 103 q 421 87 415 92 q 435 79 427 81 q 470 73 452 73 q 507 71 488 72 q 517 68 513 69 q 526 65 521 66 q 536 64 530 64 q 545 64 541 65 q 568 54 559 54 q 579 50 575 52 q 590 47 583 47 q 618 41 602 39 q 652 45 635 42 q 686 52 669 49 q 719 53 704 56 q 734 57 727 56 q 749 56 742 58 q 745 37 750 45 q 735 22 739 28 q 720 14 728 18 q 704 8 712 11 q 683 -1 688 3 q 671 -5 678 -4 q 624 -14 648 -7 q 583 -26 600 -22 q 565 -27 574 -28 q 544 -26 556 -26 l 526 -26 q 511 -23 519 -24 q 494 -22 503 -22 q 473 -22 483 -20 q 453 -22 463 -23 q 423 -15 441 -20 q 389 -7 401 -8 q 359 5 374 -3 q 330 16 345 12 q 309 22 319 19 q 290 27 298 24 q 278 35 282 35 q 270 38 274 35 q 239 69 251 58 q 221 95 227 80 q 197 117 209 104 q 176 144 186 130 l 171 152 m 643 692 q 627 686 632 688 q 616 677 623 684 q 608 672 613 674 q 601 667 604 670 q 591 654 595 661 q 582 640 587 647 q 574 635 578 637 q 567 628 570 632 q 557 608 560 620 q 544 590 555 597 q 526 550 536 567 q 510 511 517 533 q 500 486 506 499 q 487 463 494 473 q 479 431 481 448 q 475 403 477 415 q 474 378 477 392 q 473 353 471 363 q 480 338 476 345 q 487 323 484 331 q 509 309 495 312 q 538 304 524 307 q 551 309 545 307 q 564 312 556 311 q 598 339 582 326 q 625 373 614 353 q 642 390 635 381 q 656 410 650 399 q 664 431 658 420 q 675 452 670 442 q 688 472 684 468 q 696 483 693 476 q 699 494 699 488 q 703 505 700 499 q 707 513 705 509 q 711 522 709 518 q 724 577 718 551 q 738 631 731 604 q 717 629 726 628 q 697 628 708 629 q 686 640 689 632 q 683 659 684 648 q 683 680 682 669 q 682 700 684 690 q 662 699 673 703 q 643 692 651 694 z "},"A":{"ha":814,"x_min":20,"x_max":911,"o":"m 696 989 q 694 979 694 983 q 693 972 694 975 q 710 909 708 945 q 715 837 712 872 q 727 850 722 844 q 738 863 732 856 q 749 876 745 869 q 758 888 753 882 q 766 898 761 894 q 774 906 770 902 q 788 921 781 913 q 802 936 795 929 q 812 948 807 943 q 822 960 817 954 q 844 988 833 974 q 869 1010 854 1002 q 883 1006 882 1008 q 887 1005 884 1005 q 908 989 905 1000 q 911 968 911 978 q 910 952 911 962 q 906 936 909 943 q 899 920 903 928 q 895 906 895 913 q 892 889 894 898 q 884 876 890 880 q 877 845 887 857 q 860 822 867 833 q 850 804 854 815 q 844 791 845 798 q 836 779 842 785 q 824 768 831 773 q 811 758 817 764 q 795 739 799 743 q 788 732 791 735 q 777 715 781 724 q 766 700 773 707 q 758 691 762 694 q 750 684 753 688 q 745 674 747 680 q 741 663 743 669 q 735 654 738 658 q 730 646 732 650 q 726 635 727 640 q 720 624 724 629 q 701 589 709 605 q 694 572 697 581 q 688 555 692 563 q 681 539 685 547 q 674 525 677 532 q 663 493 667 510 q 651 461 658 476 q 642 437 646 449 q 631 414 637 425 q 618 363 624 388 q 604 313 613 339 q 585 257 594 286 q 568 199 576 228 q 558 138 562 167 q 557 77 555 110 q 573 73 566 77 q 589 72 581 69 q 602 79 595 73 q 618 88 609 84 q 630 92 625 91 q 637 98 635 92 q 652 104 646 100 q 665 114 659 107 q 692 127 680 118 q 716 142 704 136 q 730 151 723 146 q 743 159 736 155 q 757 164 750 161 q 769 172 764 167 q 780 180 772 175 q 792 189 788 186 q 814 199 806 193 q 825 208 822 205 q 842 213 830 206 q 860 220 853 220 q 871 216 865 217 q 880 213 876 216 q 880 203 879 208 q 880 194 880 198 q 873 182 880 191 q 863 170 865 172 q 847 155 859 164 q 829 142 836 145 q 809 116 822 127 q 785 94 796 104 q 760 76 772 87 q 738 56 747 65 q 671 13 705 37 q 600 -30 637 -11 q 568 -44 583 -37 q 532 -54 553 -52 q 511 -52 519 -56 q 491 -46 502 -49 q 480 -24 487 -34 q 467 -5 473 -15 q 455 14 460 4 q 450 38 450 24 q 450 47 449 42 q 453 58 452 53 q 454 66 454 62 q 456 76 454 71 q 462 105 458 91 q 468 136 465 119 q 470 174 467 157 q 475 209 473 190 q 465 201 468 206 q 454 194 461 197 q 431 171 444 182 q 401 152 418 160 q 368 126 384 140 q 332 102 351 113 q 270 52 302 75 q 206 5 237 30 q 185 -3 195 1 q 161 -9 175 -8 q 134 -12 146 -18 q 110 1 121 -5 q 96 14 102 8 q 81 26 90 19 q 59 71 66 50 q 38 107 52 92 q 34 119 37 114 q 27 129 31 123 q 22 161 23 146 q 20 193 22 176 q 32 248 22 222 q 49 296 42 274 q 50 304 50 300 q 52 312 50 308 q 55 321 53 316 q 60 332 57 327 q 66 353 62 343 q 73 373 71 362 q 77 384 76 380 q 81 392 79 388 q 92 416 88 404 q 99 441 95 429 q 123 511 110 476 q 155 576 136 545 q 161 584 157 581 q 167 591 164 587 l 195 636 q 227 675 210 656 q 259 712 244 693 q 293 750 278 730 q 327 787 308 770 q 336 800 330 795 q 346 812 343 804 q 367 833 358 821 q 389 853 376 845 q 442 908 415 882 q 496 962 469 935 q 528 979 519 964 q 570 1005 547 991 q 617 1025 594 1019 q 635 1024 624 1028 q 655 1017 647 1020 q 682 1004 675 1013 q 696 989 689 996 m 138 231 q 150 184 145 205 q 163 141 155 164 q 170 134 168 138 q 178 126 171 129 q 194 123 183 123 q 209 123 205 122 q 222 130 216 126 q 243 142 233 136 q 263 153 252 148 q 277 159 270 156 q 290 164 283 161 q 314 172 304 167 q 335 184 324 178 q 389 220 362 199 q 441 256 415 241 q 508 353 476 300 q 551 476 540 406 q 554 503 552 492 q 559 524 556 513 q 564 542 562 532 q 568 559 566 552 q 585 625 579 594 q 600 686 590 656 q 607 709 604 697 q 613 730 610 720 q 621 743 621 739 q 621 750 620 747 q 627 762 624 757 q 632 773 629 766 q 643 806 637 787 q 648 841 648 826 q 642 872 644 864 q 636 891 640 880 q 624 919 632 902 q 605 939 616 936 q 576 927 590 941 q 556 906 563 913 q 549 901 553 903 q 541 895 544 899 q 535 888 538 892 q 528 880 532 884 q 522 873 525 878 q 515 865 518 869 q 504 851 510 859 q 491 836 498 844 q 480 821 484 829 q 469 806 476 812 q 453 788 461 796 q 441 769 445 780 q 412 742 426 758 q 400 726 406 734 q 391 708 395 718 q 374 692 380 703 q 359 674 368 681 q 345 659 347 663 q 340 651 343 654 q 303 600 320 627 q 271 544 286 572 q 270 536 273 540 q 267 526 267 533 q 252 500 259 515 q 243 479 247 490 q 236 458 240 469 q 231 449 233 453 q 227 441 229 445 q 221 425 224 433 q 216 411 218 418 q 209 397 213 404 q 199 384 205 391 q 196 372 197 378 q 193 361 195 366 q 186 349 190 354 q 180 336 183 343 q 176 322 178 330 q 171 308 174 315 q 166 301 168 304 q 161 296 164 298 q 157 287 159 292 q 153 278 156 282 q 140 266 146 271 q 129 251 133 260 q 134 241 132 248 q 138 231 136 235 z "},"B":{"ha":750,"x_min":-42,"x_max":863,"o":"m 529 477 q 545 467 534 469 q 563 460 556 465 q 580 456 574 457 q 593 454 586 456 q 604 445 602 445 q 604 442 605 445 q 636 406 621 426 q 641 391 639 400 q 646 374 643 382 q 649 361 648 368 q 651 347 650 354 q 648 305 654 324 q 640 267 643 286 q 633 248 633 258 q 631 229 633 239 q 627 221 629 225 q 624 212 625 217 q 611 178 620 193 q 595 149 602 164 q 591 132 594 140 q 587 117 589 123 q 581 107 586 111 q 579 98 576 103 q 568 81 568 92 q 561 75 566 79 q 553 65 556 72 q 528 45 534 52 q 515 34 522 39 q 505 26 510 31 q 495 18 500 20 q 486 12 491 15 q 477 7 481 9 q 458 -6 468 0 q 438 -19 449 -12 q 424 -27 430 -23 q 411 -34 418 -31 q 395 -38 404 -37 q 380 -42 387 -39 q 327 -38 353 -46 q 282 -20 301 -30 q 249 -8 267 -14 q 217 8 231 -3 q 186 54 195 26 q 161 106 176 81 q 158 121 163 115 q 149 133 153 126 q 143 144 146 140 q 137 153 140 149 q 130 176 132 174 q 109 158 114 174 q 95 129 103 142 q 90 115 94 121 q 83 102 87 109 q 80 90 80 95 q 75 81 80 84 q 57 73 58 80 q 49 68 56 66 q 45 51 50 58 q 42 34 39 43 q 37 23 41 27 q 31 12 34 19 q 6 5 22 8 q -16 12 -9 3 q -35 19 -28 15 q -42 31 -42 23 q -39 39 -42 37 q -38 49 -35 42 q -15 87 -28 71 q 7 126 -1 104 q 28 165 18 145 q 49 203 38 184 q 72 245 60 227 q 94 288 84 264 q 97 296 96 293 q 95 305 98 300 q 127 378 109 345 q 164 448 146 412 q 183 494 171 472 q 205 541 195 517 q 231 591 220 570 q 255 636 243 613 q 268 660 264 647 q 279 680 271 673 q 286 692 282 686 q 292 704 289 697 q 312 744 302 731 q 324 772 321 757 q 337 790 331 779 q 349 812 343 802 q 356 829 351 819 q 365 849 361 838 q 369 856 368 853 q 372 864 370 859 q 381 880 378 871 q 389 895 384 888 q 366 899 380 905 q 340 887 353 894 q 297 867 317 878 q 258 845 277 856 q 218 830 237 834 q 179 822 198 826 q 165 824 168 829 q 155 823 161 819 q 149 821 152 823 q 138 819 145 819 q 140 829 134 826 q 148 838 146 833 q 213 873 179 857 q 278 907 247 888 q 338 940 312 928 q 389 968 363 952 q 447 992 420 979 q 509 1008 473 1005 q 543 1015 524 1017 q 578 1020 562 1013 q 604 1021 589 1020 q 633 1020 620 1021 q 682 1017 665 1019 q 713 1012 699 1016 q 725 1009 719 1010 q 736 1006 731 1008 q 767 998 751 1001 q 793 987 783 994 q 824 958 814 970 q 838 930 834 947 q 853 897 846 911 q 861 864 860 882 q 862 849 863 857 q 861 831 861 841 q 861 806 860 819 q 861 779 863 793 q 855 746 860 762 q 844 715 850 730 q 835 685 837 700 q 823 658 833 670 q 810 634 815 643 q 800 616 806 625 q 794 610 798 613 q 789 602 791 608 q 761 577 774 590 q 728 556 747 564 q 698 531 715 543 q 665 509 681 519 q 656 503 661 506 q 643 498 651 499 q 625 494 632 495 q 605 490 617 492 q 572 486 589 488 q 541 480 556 483 l 529 477 m 449 532 q 487 549 468 540 q 525 564 506 557 q 545 570 536 567 q 563 576 555 572 q 583 589 578 586 q 594 595 589 591 q 610 606 602 600 q 624 617 617 613 q 640 629 632 624 q 655 640 647 633 q 667 648 661 644 q 678 655 673 651 q 694 675 688 665 q 709 694 700 686 q 722 722 716 708 q 731 750 727 735 q 739 774 735 762 q 746 796 743 785 q 749 815 747 810 q 750 826 751 821 q 747 837 750 831 q 742 846 745 842 q 726 875 735 861 q 708 902 716 888 q 679 920 696 911 q 642 922 662 929 q 632 926 639 925 q 623 924 625 926 q 603 924 613 925 q 582 922 593 924 q 562 919 571 921 q 548 916 552 917 q 543 908 545 913 q 537 899 540 903 q 524 882 530 887 q 511 867 518 878 q 502 854 506 860 q 495 842 498 849 q 486 836 488 840 q 481 827 484 831 q 473 817 475 825 q 467 806 472 808 q 451 778 456 789 q 439 747 446 766 q 420 709 429 727 q 401 671 411 690 q 396 656 399 663 q 391 643 393 650 q 381 630 387 636 q 370 617 376 624 q 345 571 355 594 q 321 526 335 548 q 267 437 292 481 q 261 425 260 431 q 254 415 262 418 q 236 392 243 400 q 231 381 233 387 q 225 369 228 376 q 216 355 221 362 q 209 340 212 347 q 194 311 202 326 q 179 285 186 297 q 174 275 176 279 q 168 267 171 271 q 164 256 165 256 q 161 252 163 255 q 163 241 160 245 q 168 231 165 236 q 170 223 170 227 q 171 216 170 220 q 180 195 176 201 q 189 176 183 189 q 193 167 191 171 q 197 159 194 163 q 201 149 199 153 q 206 138 203 145 q 227 110 214 122 q 250 83 239 98 q 277 76 262 75 q 308 76 293 77 q 336 78 321 81 q 363 75 350 75 q 371 78 368 76 q 378 77 374 80 q 395 85 387 81 q 412 94 404 90 q 437 113 425 104 q 457 136 449 122 q 462 142 460 138 q 467 149 464 145 q 475 163 472 156 q 481 179 479 171 q 505 208 496 194 q 524 235 513 222 q 534 254 526 245 q 544 275 543 262 q 540 314 544 301 q 532 339 536 327 q 529 351 529 345 q 526 362 529 357 q 509 390 515 378 q 495 408 503 401 q 484 411 490 411 q 472 414 477 411 q 442 425 457 419 q 410 433 427 430 q 397 441 403 437 q 385 448 392 445 q 373 457 380 456 q 366 468 373 465 q 357 477 359 471 q 354 492 354 484 q 350 507 354 500 q 366 511 357 511 q 382 517 376 510 q 401 520 393 517 q 420 526 410 524 q 435 526 429 528 q 449 528 442 524 l 449 532 z "},"C":{"ha":716,"x_min":14,"x_max":842,"o":"m 819 996 q 825 984 821 989 q 833 977 829 979 q 835 954 834 966 q 838 932 836 943 q 838 920 838 926 q 842 910 838 914 q 829 832 838 863 q 814 765 821 802 q 810 752 812 758 q 808 739 808 746 q 808 730 807 734 q 807 720 808 726 q 799 703 804 712 q 788 682 793 693 q 740 608 766 643 q 674 553 713 572 q 649 541 659 547 q 624 532 639 534 q 602 520 614 526 q 576 511 589 514 q 566 509 571 509 q 555 507 560 509 q 543 503 548 505 q 534 499 538 500 q 518 496 524 496 q 505 508 509 498 q 500 529 500 518 q 488 538 495 534 q 479 553 481 543 q 473 570 475 568 q 471 574 472 571 q 466 616 464 593 q 476 655 468 640 q 484 665 479 662 q 491 675 490 669 q 510 690 502 682 q 529 704 518 697 q 560 739 543 727 q 594 765 578 751 q 603 774 600 769 q 613 785 606 780 q 623 793 617 789 q 632 799 628 796 q 637 804 635 802 q 643 810 640 807 q 654 812 648 812 q 665 815 659 812 q 684 813 684 818 q 684 803 684 808 q 667 795 677 799 q 648 789 658 792 q 637 773 646 779 q 621 758 628 768 q 612 745 616 751 q 600 736 609 739 q 583 709 593 720 q 563 685 572 697 q 557 660 563 670 q 544 639 551 650 q 538 628 541 633 q 536 620 536 623 q 539 612 537 617 q 544 604 541 608 q 550 597 547 600 q 555 590 553 594 q 619 631 587 610 q 674 680 651 651 q 687 703 681 692 q 700 728 693 715 q 708 754 703 742 q 720 779 713 766 q 732 806 727 792 q 739 834 738 819 q 740 858 741 845 q 743 878 739 871 q 743 896 741 884 q 745 918 746 907 q 726 942 735 939 q 705 948 716 945 q 682 933 694 941 q 659 916 670 925 q 642 899 651 907 q 628 880 633 891 q 600 847 610 861 q 578 818 589 833 q 536 785 555 803 q 494 753 517 768 q 459 725 476 739 q 427 696 442 711 q 399 668 414 681 q 372 640 384 655 q 349 610 361 625 q 324 579 336 594 q 312 564 317 572 q 300 548 307 556 q 287 533 293 541 q 275 518 281 525 q 269 504 271 511 q 262 490 266 496 q 235 456 248 473 q 213 418 222 439 q 188 375 197 396 q 168 334 179 354 q 158 300 165 315 q 148 266 151 285 q 143 248 146 256 q 138 228 140 239 q 136 208 136 218 q 133 190 136 198 q 125 165 125 172 q 118 153 125 157 q 125 134 122 142 q 136 118 129 126 q 144 109 138 113 q 152 99 149 104 q 161 83 157 85 q 170 76 164 80 q 180 69 174 73 q 191 64 186 65 q 205 62 198 61 q 220 61 213 62 q 232 60 227 61 q 244 61 237 60 q 270 67 255 64 q 297 73 285 71 q 334 84 316 79 q 369 96 353 90 q 397 115 387 103 q 422 134 408 127 q 452 161 444 151 q 472 178 461 171 q 483 190 481 190 q 486 191 484 190 q 504 211 495 202 q 522 231 513 220 q 547 248 537 237 q 565 259 557 252 q 581 273 572 266 q 595 285 591 281 q 606 296 601 290 q 616 308 610 301 q 624 314 618 311 q 635 324 629 317 q 640 335 637 328 q 650 342 643 342 q 667 334 658 343 q 677 316 677 326 q 663 293 665 297 q 643 267 654 279 q 621 240 632 255 q 600 215 610 228 q 579 187 589 202 q 558 161 570 172 q 534 136 547 149 q 500 100 517 117 q 468 61 483 84 q 454 48 461 54 q 441 35 448 42 q 428 26 434 31 q 415 18 422 22 q 360 -7 388 8 q 298 -33 332 -23 q 268 -42 283 -37 q 233 -46 252 -47 q 227 -45 231 -45 q 218 -43 222 -45 q 201 -38 210 -42 q 182 -33 193 -34 q 170 -35 175 -33 q 157 -37 164 -37 q 109 -5 127 -18 q 76 26 91 8 q 61 48 65 43 q 52 60 57 53 q 41 77 46 68 q 30 96 35 85 q 26 106 30 102 q 20 115 23 110 q 14 163 14 138 q 15 213 14 189 q 15 226 16 220 q 14 239 14 232 q 18 262 14 250 q 24 285 22 274 q 43 341 33 315 q 66 391 53 368 q 85 422 79 407 q 98 453 91 437 q 111 482 104 468 q 126 511 118 496 q 140 538 133 525 q 160 563 148 552 q 172 588 164 578 q 189 609 180 598 q 216 644 202 628 q 241 681 231 661 q 261 699 252 689 q 278 718 270 708 q 296 737 288 728 q 315 757 305 746 q 325 766 320 761 q 334 774 330 770 q 353 793 343 785 q 373 810 362 802 q 396 825 385 815 q 420 850 408 837 q 444 873 431 863 q 483 911 463 892 q 526 944 503 929 q 559 969 540 959 q 597 989 578 979 q 615 996 608 993 q 632 1005 623 1000 q 654 1015 647 1015 q 665 1021 661 1016 q 693 1026 681 1021 q 720 1027 705 1031 q 730 1023 726 1025 q 738 1020 734 1021 q 774 1012 764 1017 q 795 1002 785 1006 q 819 996 806 997 z "},"D":{"ha":765,"x_min":41,"x_max":863,"o":"m 372 792 q 302 766 335 780 q 240 732 270 751 q 224 717 231 726 q 208 701 217 708 q 151 681 180 681 q 136 694 138 688 q 162 740 146 722 q 194 777 178 758 q 221 796 209 787 q 245 817 233 806 q 270 838 258 827 q 296 856 282 849 q 332 874 315 865 q 365 894 349 883 q 420 928 389 913 q 479 956 450 943 q 508 968 494 963 q 537 977 522 974 q 568 983 552 981 q 600 991 585 986 q 641 1001 621 994 q 684 1006 661 1008 q 692 1005 689 1006 q 700 1002 694 1004 q 725 1000 718 1002 q 739 994 732 997 q 764 983 753 989 q 787 970 774 977 q 798 962 793 966 q 807 954 802 958 q 821 943 818 947 q 829 936 825 940 q 842 926 836 929 q 846 913 848 922 q 857 884 852 898 q 863 853 863 869 q 861 840 863 846 q 856 826 859 833 q 852 808 853 817 q 848 793 852 800 q 842 756 845 774 q 836 718 838 738 q 834 703 834 711 q 833 688 834 694 q 823 654 830 670 q 817 624 817 639 q 799 578 808 595 q 779 544 789 562 q 755 501 765 525 q 735 454 746 477 q 732 445 732 450 q 728 435 731 439 q 715 415 716 420 q 711 403 713 410 q 702 382 707 393 q 693 359 697 370 q 685 345 690 355 q 675 328 681 336 q 662 311 669 320 q 617 247 640 277 q 567 189 594 217 q 496 126 533 155 q 422 66 458 98 q 395 44 408 56 q 365 22 381 33 q 351 12 358 16 q 336 1 343 8 q 282 -34 315 -19 q 262 -40 266 -38 q 255 -42 258 -42 q 239 -45 247 -45 q 222 -46 231 -45 q 214 -47 218 -46 q 205 -49 210 -49 q 182 -43 194 -47 q 160 -37 171 -39 q 151 -34 155 -35 q 141 -31 146 -33 q 123 -22 132 -26 q 107 -12 115 -18 q 83 3 87 -7 q 72 20 79 12 q 59 66 64 46 q 47 113 54 87 q 43 130 45 122 q 42 146 41 137 q 47 161 43 153 q 56 178 52 170 q 73 216 66 197 q 90 255 79 236 q 94 262 92 258 q 99 269 96 266 q 106 285 103 277 q 113 300 110 293 q 135 345 123 323 q 160 389 146 368 q 185 432 175 415 q 210 464 195 449 q 231 505 218 487 q 251 547 243 524 q 265 572 259 557 q 278 601 271 587 q 300 647 289 628 q 305 655 302 651 q 309 665 308 659 q 319 689 313 677 q 330 712 324 701 q 351 753 340 735 q 372 792 361 772 m 670 903 q 634 896 651 902 q 600 883 617 890 q 576 873 587 879 q 555 863 566 868 q 532 849 543 856 q 511 834 522 842 q 508 827 510 830 q 505 819 506 823 q 482 786 490 804 q 465 751 475 768 q 446 717 454 734 q 427 682 437 700 q 413 656 420 667 q 400 631 406 644 q 377 586 382 602 q 367 568 373 576 q 358 548 361 559 q 349 530 354 538 q 342 511 345 521 q 338 496 339 505 q 335 481 338 488 q 326 457 331 469 q 317 430 321 445 q 303 411 311 419 q 290 393 296 403 q 280 372 285 378 q 273 359 275 366 q 260 336 266 349 q 248 312 255 324 q 242 304 245 308 q 236 294 239 300 q 229 277 232 286 q 222 258 227 269 q 214 240 218 248 q 206 224 209 232 q 197 205 201 214 q 190 187 193 195 q 183 168 186 178 q 176 149 180 159 q 165 124 168 133 q 160 107 163 115 q 154 90 157 99 q 151 73 151 81 q 144 64 145 69 q 142 52 142 58 q 142 40 142 46 q 138 30 142 34 q 173 41 160 33 q 205 52 186 49 q 229 68 218 58 q 258 80 239 79 q 296 109 279 94 q 339 134 313 125 q 381 168 359 152 q 419 206 403 183 q 438 218 426 209 q 454 237 446 228 q 468 258 461 247 q 491 282 481 269 q 515 305 500 296 q 530 328 521 319 q 548 347 540 336 q 568 376 559 361 q 587 403 576 391 q 627 471 606 438 q 663 543 648 503 q 687 580 677 560 q 704 618 697 600 q 717 644 713 628 q 734 662 720 659 q 745 700 745 678 q 749 742 746 722 q 749 754 750 749 q 747 765 747 760 q 751 787 749 776 q 750 807 753 799 q 743 821 743 818 q 741 827 742 825 q 738 842 738 836 q 734 858 735 853 q 730 869 734 863 q 720 887 723 879 q 709 902 716 895 q 690 903 699 903 q 670 903 681 903 z "},"E":{"ha":598,"x_min":-60,"x_max":738,"o":"m 681 970 q 703 951 690 958 q 727 933 716 944 q 738 921 735 924 q 732 892 738 906 q 724 863 726 879 q 713 808 722 827 q 707 772 705 788 q 713 746 707 760 q 709 722 720 732 q 695 713 703 715 q 677 708 688 711 q 656 702 666 705 q 635 699 646 699 q 621 701 628 700 q 605 704 613 703 q 599 711 601 708 q 594 722 597 715 q 596 734 597 728 q 597 747 595 741 q 607 782 598 766 q 620 814 616 798 q 624 834 620 826 q 628 853 624 845 q 631 869 632 861 q 637 885 636 876 q 642 905 639 894 q 614 911 629 910 q 589 905 600 911 q 505 877 537 903 q 452 815 472 850 q 431 787 441 803 q 410 757 420 772 q 388 726 396 736 q 373 704 380 715 q 363 687 368 696 q 354 669 359 678 q 345 650 350 659 q 335 631 339 642 q 332 623 334 627 q 330 616 331 618 q 330 607 328 612 q 332 600 331 602 q 334 587 334 593 q 336 575 334 582 q 347 554 345 562 q 354 540 350 547 q 363 528 358 533 q 372 518 368 524 q 399 513 387 515 q 425 509 412 510 q 454 511 439 507 q 481 513 468 515 q 505 511 494 521 q 518 494 515 502 q 517 472 519 484 q 511 453 515 460 q 497 437 506 444 q 481 427 488 431 q 454 422 467 426 q 429 420 442 419 q 360 404 396 412 q 289 385 324 396 q 273 380 275 382 q 263 377 270 377 q 228 362 244 370 q 197 343 212 354 q 178 328 184 332 q 168 315 171 324 q 129 277 151 294 l 92 231 q 85 221 85 224 q 83 212 84 218 q 79 183 83 198 q 75 156 76 168 q 75 126 73 140 q 83 102 76 113 q 89 94 85 99 q 95 83 92 90 q 104 67 100 73 q 119 54 109 61 q 129 49 123 52 q 137 46 134 46 q 144 48 140 46 q 153 52 149 50 q 161 53 157 53 q 168 56 165 53 q 208 75 191 62 q 247 96 225 87 q 258 102 252 99 q 271 109 264 106 q 304 133 288 121 q 343 156 321 145 q 372 172 358 163 q 396 191 385 182 q 410 212 403 203 q 422 232 418 220 q 429 238 427 233 q 435 247 431 243 q 431 258 433 252 q 426 267 430 264 q 401 270 414 266 q 374 271 389 274 q 368 270 372 271 q 359 267 363 269 q 318 254 338 263 q 286 231 298 244 q 281 221 285 224 q 275 214 278 218 q 264 186 269 201 q 250 160 259 172 q 241 164 245 160 q 236 172 237 168 q 237 181 236 175 q 239 191 239 187 q 239 199 240 195 q 239 209 237 202 q 241 228 240 217 q 245 245 243 239 q 256 272 251 264 q 270 282 262 279 q 277 290 273 286 q 289 297 282 293 q 302 307 300 304 q 309 313 305 311 q 325 319 316 316 q 340 324 334 323 q 360 329 350 326 q 382 332 370 332 q 401 328 396 330 q 412 330 407 328 q 422 330 416 331 q 429 329 426 330 q 437 328 433 328 q 452 331 445 330 q 465 326 460 332 q 486 315 477 323 q 502 300 495 308 q 507 293 505 296 q 513 285 510 290 q 516 250 519 269 q 503 217 513 231 q 499 208 502 212 q 494 201 496 205 q 452 144 464 171 q 421 117 434 132 q 391 91 408 102 q 368 74 381 80 q 345 60 355 68 q 318 41 332 50 q 289 24 304 31 q 263 12 277 16 q 229 -5 247 1 q 194 -23 210 -12 q 147 -42 171 -30 q 102 -61 123 -54 q 80 -58 94 -62 q 54 -45 69 -56 q 34 -24 39 -35 q 20 -11 24 -22 q 8 8 15 0 q -1 22 4 15 q -9 39 -5 30 q -27 69 -22 56 q -36 95 -34 90 q -41 107 -38 100 q -47 119 -43 114 q -54 130 -50 125 q -50 184 -60 157 q -30 231 -39 212 q -22 243 -24 237 q -16 256 -19 250 q -3 279 -9 269 q 11 300 4 289 q 22 323 18 311 q 35 346 27 335 q 49 368 39 361 q 68 387 58 376 q 79 393 75 389 q 90 401 84 397 q 146 429 121 415 q 198 453 171 442 q 281 479 239 461 q 264 511 270 491 q 251 552 258 530 q 247 562 250 557 q 243 572 244 567 q 239 589 240 586 q 237 594 239 591 q 236 614 236 604 q 236 635 236 624 q 236 650 236 642 q 239 665 236 658 q 243 682 244 678 q 244 690 243 686 q 248 699 245 696 q 250 708 250 701 q 264 728 256 718 q 278 750 271 739 q 296 776 288 765 q 309 799 304 787 q 328 817 320 806 q 345 836 335 827 q 379 876 362 856 q 418 910 396 895 q 445 926 433 917 q 469 944 457 936 q 496 961 481 955 q 524 977 510 967 q 534 981 530 978 q 544 986 538 983 q 570 996 553 991 q 587 1001 579 998 q 605 1002 594 1004 q 628 999 618 1001 q 644 990 637 997 q 662 983 655 989 q 675 970 669 977 l 681 970 z "},"F":{"ha":583,"x_min":41,"x_max":792,"o":"m 739 972 q 743 956 743 960 q 753 945 746 952 q 765 937 761 937 q 783 936 781 937 q 788 933 785 935 q 789 917 788 918 q 792 913 791 916 q 789 894 792 907 q 780 872 787 883 q 766 850 773 861 q 752 830 760 840 q 738 811 745 821 q 728 793 731 802 q 715 776 726 784 q 696 762 705 769 q 678 747 686 755 l 662 727 q 654 715 659 720 q 647 705 650 711 q 634 681 639 693 q 616 659 629 669 q 572 597 597 625 q 526 536 548 568 q 557 536 541 534 q 591 540 572 538 q 667 544 632 543 q 738 545 703 545 q 745 525 749 537 q 734 522 738 525 q 724 521 731 518 q 718 514 719 518 q 713 507 716 510 q 677 482 705 483 q 627 479 650 481 q 611 477 612 477 q 609 476 610 476 q 559 470 585 473 q 510 464 534 467 q 494 460 503 458 q 479 460 486 463 q 473 453 475 457 q 469 445 472 449 q 457 427 463 435 q 445 410 452 419 q 432 395 438 403 q 420 377 426 387 q 412 368 415 373 q 404 357 408 362 q 381 326 393 342 q 357 296 369 311 q 342 272 350 283 q 327 247 335 260 q 319 230 323 239 q 313 213 316 221 q 304 195 309 202 q 297 178 300 187 q 283 155 290 167 q 270 129 277 142 q 233 71 252 102 q 195 8 213 41 q 186 -9 190 0 q 175 -24 182 -18 q 166 -33 171 -30 q 157 -38 161 -35 q 132 -56 146 -46 q 106 -72 117 -65 q 85 -85 91 -77 q 77 -103 80 -94 q 49 -103 57 -113 q 42 -85 41 -94 q 50 -71 42 -80 q 60 -56 57 -61 l 73 -35 q 79 -20 77 -24 q 84 -12 81 -16 q 89 -4 87 -7 q 91 4 91 -1 q 102 21 98 12 q 111 39 106 30 q 130 65 122 50 q 151 92 138 80 q 157 106 153 100 q 167 117 161 111 q 184 149 175 133 q 197 186 194 164 q 210 218 202 208 q 225 241 218 229 q 231 259 228 251 q 240 274 233 267 q 254 298 248 288 q 266 323 259 309 q 286 361 273 342 q 292 368 289 365 q 297 377 294 372 q 306 395 302 385 q 315 412 309 404 q 323 424 319 419 q 328 439 328 429 q 307 437 316 442 q 269 432 290 435 q 227 429 248 429 q 211 428 220 429 q 194 426 202 427 q 180 420 187 423 q 167 423 174 416 q 159 432 161 431 q 156 435 157 433 q 141 457 149 449 q 138 465 138 461 q 132 471 137 468 q 123 486 127 475 q 160 503 137 503 q 278 522 220 517 q 393 536 336 528 q 399 543 397 538 q 404 552 401 548 q 418 568 411 560 q 430 586 426 575 q 437 593 435 589 q 442 600 438 597 q 448 612 448 606 q 452 620 449 617 q 472 649 467 640 q 484 667 477 658 q 498 684 491 677 q 511 700 505 692 q 521 711 517 707 q 529 722 525 716 q 557 761 540 741 q 582 799 572 779 q 592 806 590 800 q 600 817 594 812 q 616 846 606 833 q 632 875 625 859 q 616 872 625 876 q 595 868 606 868 q 574 863 582 865 q 555 857 566 860 q 512 845 534 854 q 469 830 490 836 q 372 819 418 825 q 278 810 326 814 q 256 807 267 808 q 235 806 245 806 q 191 802 213 806 q 179 802 184 803 q 167 802 174 800 q 146 810 151 807 q 136 812 142 812 q 127 818 130 815 q 122 821 125 821 q 111 836 113 833 q 119 845 110 840 q 142 861 125 859 q 170 869 159 864 q 207 877 189 873 q 245 884 225 880 q 279 892 267 891 q 302 898 292 892 q 341 904 323 899 q 378 913 359 909 q 390 916 384 916 q 400 921 396 917 q 415 924 415 921 q 549 955 484 937 q 686 979 614 972 q 715 979 701 981 q 739 972 730 977 z "},"G":{"ha":821,"x_min":-42,"x_max":1042,"o":"m 1027 1038 q 1033 1010 1042 1027 q 1015 977 1024 993 q 1005 962 1009 970 q 997 952 1001 955 q 979 924 986 932 q 964 906 971 916 q 953 886 958 895 q 940 867 948 876 q 932 851 937 859 q 922 836 926 844 q 915 823 917 825 q 911 818 913 821 q 907 808 909 814 q 902 799 905 803 q 876 764 886 776 q 872 755 873 760 q 867 749 871 751 q 846 713 857 730 q 826 678 836 697 q 821 666 823 671 q 817 654 819 661 q 812 642 814 647 q 807 631 810 637 q 798 617 804 624 q 792 600 792 610 q 764 541 777 571 q 736 480 751 510 q 757 480 747 477 q 776 484 766 483 q 813 488 795 487 q 852 495 831 490 q 880 496 865 492 q 887 499 883 498 q 895 500 891 500 q 907 500 902 502 q 920 499 913 498 q 932 499 928 498 q 939 498 936 500 q 933 490 936 495 q 936 483 930 484 q 909 469 922 471 q 883 464 897 467 q 873 453 880 457 q 856 445 865 449 q 840 440 848 442 q 825 442 833 438 q 807 439 814 439 q 789 437 800 439 q 779 434 784 435 q 770 431 773 433 l 755 431 q 719 425 734 431 q 710 414 712 420 q 704 400 708 407 q 674 318 694 358 q 636 241 654 278 q 600 167 617 203 q 559 99 582 130 q 520 52 544 69 q 472 15 496 34 q 454 1 465 7 q 437 -12 444 -4 q 421 -15 423 -14 q 416 -15 419 -16 q 395 -16 406 -11 q 363 -26 380 -22 q 335 -38 346 -31 q 311 -43 315 -41 q 302 -47 307 -46 q 292 -47 293 -46 q 288 -49 290 -49 q 268 -54 279 -52 q 250 -54 256 -56 q 241 -52 245 -53 q 232 -49 237 -50 q 219 -43 220 -45 q 216 -42 218 -42 q 203 -40 210 -39 q 189 -39 195 -41 q 163 -35 178 -37 q 136 -30 149 -33 q 113 -16 123 -23 q 90 -5 103 -9 q 66 12 77 4 q 45 30 56 19 q 12 62 26 42 q 6 74 9 68 q -3 84 3 80 q -12 101 -7 95 q -19 118 -16 107 q -28 139 -26 126 q -39 159 -30 152 q -41 195 -42 175 q -39 233 -41 214 q -41 246 -39 240 q -42 259 -42 252 q -41 286 -42 271 q -26 304 -39 301 q 9 357 -3 332 q 49 388 22 381 q 95 406 69 399 q 151 415 121 412 q 179 414 165 411 q 208 419 193 418 q 224 421 216 419 q 239 426 232 423 q 248 448 245 435 q 256 469 250 460 q 265 494 259 483 q 274 515 271 505 q 281 532 277 524 q 289 551 285 540 q 336 640 315 591 q 377 735 357 688 q 383 747 380 741 q 385 758 387 753 q 382 767 385 761 q 377 777 380 773 q 366 802 370 789 q 361 827 362 814 q 359 854 358 842 q 359 880 359 867 q 368 939 362 910 q 401 960 385 949 q 437 979 418 971 q 457 974 450 979 q 475 972 471 972 q 486 970 480 972 q 513 951 503 966 q 530 919 524 937 q 538 880 536 901 q 541 842 540 860 q 549 825 543 831 q 563 814 556 819 q 588 822 575 818 q 617 829 601 826 q 633 833 627 830 q 647 833 640 836 q 754 865 703 848 q 846 913 806 883 q 886 941 865 928 q 922 971 906 954 q 943 993 933 982 q 963 1016 952 1004 q 970 1032 967 1028 q 979 1042 975 1040 q 985 1051 983 1044 q 1001 1054 997 1055 q 1024 1062 1021 1061 q 1031 1044 1031 1055 l 1027 1038 m 685 731 q 641 711 665 720 q 587 701 617 701 q 568 700 576 699 q 537 707 553 703 q 507 715 521 712 q 490 728 503 726 q 465 735 476 731 q 446 699 456 716 q 429 663 437 682 q 394 581 411 620 q 355 502 377 541 q 340 472 347 487 q 330 442 334 457 q 376 449 353 445 q 423 456 399 453 q 527 460 472 453 q 633 469 582 467 q 640 483 637 476 q 647 495 642 490 q 656 512 655 507 q 659 521 656 517 q 672 543 666 532 q 685 566 678 555 q 695 589 690 578 q 707 614 700 601 q 721 638 713 627 q 735 662 728 650 q 751 691 743 677 q 766 719 758 705 q 783 743 773 738 q 786 752 783 750 q 789 761 789 754 q 795 768 793 764 q 800 776 798 773 q 806 785 802 781 q 811 792 811 788 q 749 760 777 777 q 685 731 720 742 m 586 403 q 545 399 566 400 q 509 391 524 397 q 442 381 472 385 q 384 370 412 377 q 361 366 366 365 q 350 365 355 366 q 315 357 332 362 q 281 349 298 351 q 264 324 271 338 q 243 304 258 311 q 214 256 228 281 q 184 205 199 231 q 164 206 171 208 q 165 240 161 228 q 174 267 168 252 q 179 280 176 274 q 183 292 182 286 q 187 312 184 307 q 193 324 190 317 q 161 316 178 321 q 133 300 145 311 q 116 290 122 297 q 103 275 110 282 q 96 269 99 271 q 92 262 92 267 q 92 232 95 240 q 85 216 88 224 q 79 198 81 208 q 77 178 76 189 q 95 127 81 146 q 121 90 109 109 q 127 77 125 83 q 134 69 130 72 q 145 65 144 66 q 149 62 146 64 q 193 44 168 52 q 241 39 217 37 q 266 37 248 37 q 314 38 289 37 q 361 42 339 39 q 380 56 370 49 q 397 72 391 62 q 418 87 408 79 q 438 103 427 96 q 452 111 446 109 q 469 125 463 118 q 483 142 475 132 q 506 174 494 157 q 524 212 518 190 q 540 248 533 228 q 557 282 551 263 q 574 316 564 301 q 586 351 581 338 q 597 378 591 363 q 606 391 601 384 q 610 407 610 399 q 597 407 604 408 q 586 403 590 406 z "},"H":{"ha":865,"x_min":-27,"x_max":1025,"o":"m 1002 998 q 1019 981 1015 991 q 1024 954 1023 970 q 1023 934 1024 943 q 1025 914 1023 925 q 1015 899 1021 906 q 1005 880 1008 891 q 976 827 993 850 q 943 777 959 804 q 919 744 928 764 q 902 703 910 724 q 850 612 875 658 q 802 518 825 566 q 840 510 821 514 q 876 498 860 506 q 886 486 883 487 q 887 481 890 486 q 884 456 890 463 q 868 454 879 449 q 853 454 859 452 q 812 446 831 449 q 769 441 793 444 q 753 407 761 423 q 736 373 745 391 q 663 229 696 301 q 601 79 629 156 q 595 56 598 66 q 587 35 593 45 q 579 7 585 19 q 575 -6 576 0 q 571 -19 574 -12 q 559 -35 567 -30 q 548 -50 552 -41 q 535 -50 540 -42 q 528 -64 530 -57 q 507 -57 513 -66 q 500 -37 500 -47 q 488 -31 495 -30 q 473 -24 480 -31 q 453 39 463 15 q 433 85 444 64 q 427 105 430 96 q 422 123 425 114 q 416 137 419 130 q 410 151 412 144 q 407 159 407 155 q 404 167 407 163 q 388 197 397 182 q 370 225 378 212 q 357 245 359 239 q 347 258 354 252 q 339 277 339 274 q 336 283 339 281 q 323 300 327 294 q 313 308 319 305 q 298 315 307 312 q 283 321 290 317 q 269 328 277 324 q 252 334 262 331 q 232 282 240 309 q 208 233 224 255 q 189 196 199 214 q 171 159 179 178 q 161 138 164 149 q 153 115 159 126 q 144 99 149 107 q 133 83 138 91 q 96 41 118 58 q 54 1 73 23 q 29 -14 39 -11 q 8 -11 19 -18 q 1 -10 4 -5 q -5 -18 -3 -15 q -18 -14 -15 -18 q -27 -5 -22 -11 q -18 16 -24 7 q -7 37 -12 26 q 1 47 0 39 q 8 60 3 56 q 18 94 12 79 q 35 122 24 109 q 41 136 38 129 q 47 152 43 144 q 58 164 52 159 q 66 176 64 170 q 85 223 76 206 q 104 258 95 240 q 126 311 114 286 q 152 362 138 336 q 145 375 145 365 q 138 389 145 385 q 118 433 136 419 q 125 450 125 442 q 132 456 127 453 q 144 461 137 458 q 153 466 149 464 q 164 469 157 468 q 185 471 175 471 q 206 475 195 472 q 221 506 216 490 q 237 534 227 522 q 241 543 239 538 q 243 551 244 547 q 262 581 254 564 q 281 612 270 597 q 303 652 290 633 q 327 693 316 670 q 348 732 339 708 q 363 777 357 757 q 366 789 366 784 q 369 799 366 793 q 377 814 372 806 q 387 830 382 822 q 396 848 392 840 q 403 867 400 856 q 390 870 399 875 q 370 860 381 865 q 351 849 359 854 q 332 837 342 844 q 228 769 273 807 q 214 765 221 768 q 198 761 208 762 q 188 769 189 768 q 186 773 187 770 q 199 781 190 777 q 209 792 209 785 q 223 832 208 818 q 254 860 239 846 q 289 880 274 872 q 317 898 304 887 q 352 913 335 905 q 387 930 369 922 q 399 939 393 933 q 412 949 406 944 q 447 971 429 960 q 484 993 465 982 q 496 997 495 996 q 499 1000 496 998 q 519 1007 511 1004 q 533 1015 526 1010 q 554 1024 544 1019 q 576 1028 564 1029 q 597 1019 587 1028 q 595 1000 606 1009 q 606 970 606 989 q 609 932 606 951 q 610 919 609 925 q 610 907 612 913 q 606 895 609 901 q 602 883 602 888 q 594 869 597 876 q 586 854 591 861 q 576 836 583 842 q 566 821 570 829 q 547 803 553 811 q 541 798 541 803 q 537 791 540 793 q 492 760 510 784 q 456 711 473 736 q 418 678 433 696 q 409 663 412 671 q 400 646 406 654 q 377 606 389 628 q 354 564 365 583 q 347 549 351 556 q 340 533 343 543 q 330 513 334 519 q 323 495 326 506 q 369 498 346 495 q 415 503 392 500 q 481 511 450 500 q 544 522 511 521 q 553 524 549 525 q 563 525 557 524 q 623 527 593 526 q 686 525 654 528 q 695 533 692 528 q 701 544 699 538 q 709 556 704 551 q 716 567 713 562 q 724 582 720 578 q 731 593 728 586 q 741 612 739 609 q 746 621 743 616 q 785 688 769 661 q 790 696 788 692 q 795 707 792 701 q 798 719 798 712 q 806 731 799 726 q 819 760 811 745 q 833 789 826 774 q 846 816 840 803 q 860 842 853 829 q 865 855 863 849 q 871 868 868 861 q 888 898 882 883 q 899 914 894 906 q 910 932 905 922 q 925 963 917 949 q 930 973 928 968 q 935 981 933 978 q 936 989 937 985 q 936 998 935 994 q 943 1007 939 1002 q 949 1016 947 1012 q 956 1023 952 1019 q 967 1024 960 1028 q 976 1031 971 1028 q 986 1036 981 1034 q 996 1031 993 1035 q 1004 1025 998 1028 q 1008 1010 1006 1019 q 1002 998 1009 1002 m 600 430 q 591 431 595 431 q 582 431 586 430 q 563 435 572 431 q 507 433 534 437 q 457 431 479 429 q 383 422 420 426 q 311 412 346 419 q 295 409 302 411 q 281 404 288 407 q 277 394 278 399 q 273 382 275 389 q 316 343 292 361 q 352 302 334 321 q 389 264 370 283 q 404 244 400 258 q 417 228 412 237 q 429 209 422 218 q 446 198 442 208 q 457 180 450 189 q 482 145 468 163 q 505 109 496 127 q 510 102 509 106 q 515 96 511 99 q 539 175 529 141 q 564 241 549 209 q 572 260 566 251 q 576 281 578 270 q 608 350 591 316 q 639 420 624 384 q 619 425 628 422 q 600 430 610 427 z "},"I":{"ha":384,"x_min":-98,"x_max":675,"o":"m 675 989 q 667 964 667 971 q 663 951 666 958 q 660 941 661 944 q 656 933 659 939 q 648 926 652 926 q 637 920 644 926 q 631 911 635 916 q 624 905 627 907 q 618 892 620 898 q 609 884 617 887 q 600 884 605 883 q 593 882 595 884 q 568 875 578 876 q 548 872 559 873 q 526 865 532 865 q 515 864 521 865 q 504 861 510 863 q 490 856 498 859 q 471 817 483 833 q 450 777 458 800 q 408 704 426 738 q 374 639 389 670 q 363 623 368 632 q 353 602 358 613 q 345 587 346 589 q 342 583 343 586 q 336 572 339 578 q 331 559 334 566 q 319 541 323 548 q 313 526 316 533 q 305 513 309 519 q 297 498 301 506 q 273 441 283 465 q 256 391 263 418 q 250 369 254 381 q 243 350 247 357 q 190 214 217 283 q 138 75 163 145 q 174 82 160 75 q 210 90 187 90 q 213 49 225 69 q 201 28 202 35 q 197 16 199 22 q 186 3 189 7 q 180 -5 184 -1 q 138 -20 168 -16 q 113 -28 123 -23 q 91 -35 103 -33 q 76 -38 83 -37 q 64 -41 69 -39 q 54 -40 58 -41 q 45 -42 49 -39 q 6 -45 22 -42 q -24 -52 -9 -47 q -45 -58 -35 -54 q -68 -62 -56 -62 q -76 -60 -72 -62 q -85 -58 -80 -58 q -94 -48 -90 -54 q -98 -35 -98 -42 q -96 -22 -98 -28 q -95 -9 -94 -16 q -83 16 -95 7 q -65 35 -72 24 q -29 45 -45 38 q 8 54 -14 52 q 50 168 27 110 q 95 282 73 227 q 104 303 99 293 q 113 324 109 313 q 126 359 119 342 q 141 393 133 376 q 153 416 149 403 q 157 428 156 423 q 160 439 157 433 q 172 461 165 450 q 186 483 179 472 q 205 509 195 496 q 225 536 216 522 q 246 588 235 563 q 269 639 258 613 q 280 677 271 656 q 296 713 289 699 q 309 745 304 728 q 324 777 315 762 q 331 794 327 787 q 338 811 335 802 q 347 829 343 819 q 354 850 350 840 q 344 847 349 848 q 334 845 339 846 q 324 841 330 844 q 312 837 319 838 q 274 837 290 834 q 251 861 256 840 q 256 873 250 872 q 264 883 262 873 q 273 930 263 914 q 297 948 282 945 q 309 951 304 951 q 320 956 315 951 q 348 961 334 960 q 377 964 362 962 q 406 969 392 967 q 431 971 419 971 q 458 979 446 975 q 488 981 471 982 q 506 979 498 981 q 524 977 514 977 q 542 975 533 977 q 562 977 551 974 q 577 982 570 978 q 593 983 585 986 q 621 989 606 986 q 650 991 635 991 q 665 992 665 990 q 669 993 665 994 l 675 989 z "},"J":{"ha":498,"x_min":-156,"x_max":707,"o":"m -15 343 q -14 315 -12 332 q -16 283 -15 298 q -18 258 -16 266 q -22 244 -19 251 q -28 215 -24 231 q -35 183 -33 199 q -36 165 -35 174 q -37 146 -37 156 q -38 122 -37 136 q -34 98 -39 109 q -23 79 -31 91 q -12 58 -15 68 q -2 50 -1 52 q -1 45 -3 47 q 14 31 4 34 q 47 24 27 23 q 83 22 66 26 q 126 37 107 26 q 138 42 132 39 q 148 50 144 45 q 155 66 152 57 q 163 85 159 76 q 171 111 167 95 q 176 137 175 127 q 200 191 191 163 q 218 247 209 220 q 229 277 224 263 q 241 307 235 292 q 252 336 247 321 q 267 362 258 350 q 279 400 271 384 q 296 433 288 416 q 316 473 305 454 q 338 513 328 494 q 361 551 349 532 q 383 595 370 574 q 404 639 396 616 q 416 675 411 658 q 433 708 422 693 q 450 748 444 730 q 468 784 457 766 q 471 796 469 791 q 476 808 473 802 q 456 798 465 806 q 433 785 446 789 q 410 770 422 779 q 389 751 397 761 q 381 731 385 735 q 373 722 377 727 q 358 718 365 720 q 343 715 351 716 q 333 723 335 718 q 327 735 331 728 q 323 754 320 747 q 330 766 327 761 q 336 773 332 770 q 340 780 339 776 q 377 810 358 796 q 414 838 396 823 q 430 855 422 846 q 446 871 438 864 l 483 899 q 507 920 496 909 q 528 942 517 932 q 553 960 538 952 q 589 970 567 967 q 598 972 594 971 q 609 974 602 974 q 617 974 617 975 q 627 975 617 972 q 638 979 633 977 q 650 983 643 981 q 663 987 656 986 q 675 990 670 987 q 684 990 680 991 q 694 987 689 989 q 705 970 703 981 q 704 950 707 960 q 696 930 701 940 q 688 913 692 920 q 677 897 684 905 q 665 884 671 888 q 642 854 654 869 q 620 823 631 840 q 600 791 609 808 q 581 758 591 773 q 560 726 570 742 q 541 692 551 709 q 516 648 530 669 q 491 601 502 627 q 479 568 484 585 q 468 534 475 552 q 463 526 465 530 q 458 517 461 521 q 455 507 456 511 q 450 500 454 503 q 429 452 441 475 q 411 403 418 430 q 407 395 408 400 q 403 388 406 391 q 403 375 404 387 q 399 358 401 363 q 386 335 391 343 q 377 317 381 327 q 350 258 362 289 q 323 195 338 227 q 309 168 315 182 q 296 137 302 153 q 292 121 296 127 q 285 106 288 114 q 277 83 279 94 q 269 61 275 72 q 260 51 264 56 q 254 41 256 46 q 250 29 251 35 q 247 18 250 23 q 237 1 244 9 q 224 -14 231 -7 q 214 -27 217 -20 q 203 -41 210 -34 q 189 -50 195 -45 q 174 -57 182 -54 q 140 -71 156 -66 q 123 -75 127 -73 q 111 -77 118 -77 q 96 -76 102 -77 q 81 -75 91 -75 q 60 -76 71 -79 q 38 -71 49 -73 q 26 -71 33 -71 q 15 -69 20 -71 q -23 -51 -5 -65 q -61 -34 -41 -37 q -113 20 -92 -14 q -149 96 -134 54 q -152 147 -156 121 q -146 201 -148 174 q -142 233 -144 218 q -137 263 -141 248 q -131 281 -134 273 q -125 297 -127 290 q -113 312 -119 305 q -100 328 -106 319 q -79 333 -92 334 q -52 335 -65 332 q -33 342 -42 338 q -15 343 -23 347 z "},"K":{"ha":718,"x_min":-35,"x_max":845,"o":"m 336 496 q 361 515 351 505 q 387 534 372 526 q 406 554 395 545 q 427 574 418 563 q 454 591 442 582 q 475 613 465 600 q 492 625 484 621 q 506 635 499 629 q 558 687 533 659 q 613 739 583 715 q 627 755 620 747 q 642 769 635 762 q 658 783 650 776 q 674 799 666 791 q 685 813 681 806 q 696 829 689 821 q 707 844 701 836 q 716 860 712 852 q 737 892 727 876 q 754 926 747 909 q 763 952 760 947 q 769 964 766 958 q 775 981 773 972 q 783 997 777 990 q 798 1004 788 1002 q 814 1000 807 1006 q 832 999 826 1004 q 842 982 838 994 q 844 968 845 975 q 842 952 842 962 q 840 917 840 935 q 836 883 841 899 q 832 872 834 878 q 827 861 830 867 q 819 846 822 850 q 815 838 817 842 q 811 829 814 833 q 802 819 808 823 q 791 807 796 814 q 755 768 772 788 q 724 728 739 749 q 708 707 711 712 q 701 697 705 703 q 691 685 697 690 q 680 673 685 680 q 675 666 677 670 q 671 659 674 662 q 637 624 655 642 q 605 587 620 606 q 597 574 601 581 q 587 560 593 567 q 578 554 583 557 q 566 544 572 551 q 559 539 563 541 q 551 534 555 537 q 520 516 536 525 q 490 498 505 507 q 465 480 477 488 q 441 464 452 472 q 409 432 420 449 q 370 408 397 415 q 372 376 366 389 q 381 351 378 362 q 386 336 384 345 q 391 317 388 327 q 397 294 395 305 q 406 269 400 282 q 410 258 408 263 q 414 247 411 252 q 418 227 416 236 q 423 206 420 217 q 439 163 429 184 q 452 136 444 148 q 465 114 460 125 q 477 103 472 110 q 487 91 481 96 q 507 65 499 79 q 526 41 514 52 q 545 39 536 39 q 564 42 555 38 q 574 50 570 45 q 585 57 579 54 q 595 66 590 62 q 604 73 601 69 q 648 107 631 88 q 685 146 666 126 q 702 161 694 153 q 718 175 709 168 q 746 184 738 180 q 762 190 754 189 q 781 193 772 193 q 796 190 789 194 q 795 178 793 184 q 793 167 796 172 q 786 151 791 157 q 776 136 781 144 q 753 115 765 125 q 731 95 741 106 q 707 76 718 85 q 686 57 697 66 q 664 38 675 46 q 642 19 652 30 q 602 -22 621 0 q 559 -60 582 -43 q 525 -77 543 -77 q 511 -73 518 -75 q 498 -69 505 -72 q 456 -43 477 -54 q 422 -7 434 -31 q 404 14 411 1 q 389 41 396 26 q 380 50 385 45 q 373 61 376 54 q 364 68 368 64 q 357 77 361 73 q 333 134 345 102 q 313 189 321 165 q 311 197 312 193 q 308 208 309 201 q 304 215 305 212 q 301 222 302 218 q 295 241 297 231 q 290 262 293 251 q 282 283 288 273 q 273 305 277 294 q 264 330 269 317 q 254 353 260 342 q 231 311 235 327 q 220 279 227 294 q 209 258 210 264 q 205 245 208 252 q 191 223 198 235 q 179 198 184 212 q 174 185 176 191 q 170 172 172 179 q 166 158 167 165 q 163 144 165 151 q 157 136 160 140 q 152 129 155 133 q 140 105 145 118 q 130 77 136 92 q 127 41 127 57 q 125 9 127 26 q 112 -3 115 1 q 104 -9 109 -7 q 94 -14 99 -12 q 83 -18 90 -15 q 65 -37 71 -34 q 54 -43 60 -39 q 46 -50 50 -46 q 38 -57 42 -54 q 4 -62 23 -64 q -30 -54 -15 -61 q -33 -45 -33 -47 q -35 -37 -34 -43 q -30 -14 -30 -23 q -9 34 -16 9 q 14 77 -1 58 q 22 90 19 84 q 31 102 26 95 q 50 138 39 119 q 68 176 61 156 q 86 214 80 193 q 100 255 92 236 q 120 304 111 278 q 144 349 129 330 q 159 379 151 363 q 174 410 167 395 q 179 429 176 419 q 186 448 182 438 q 194 464 190 456 q 203 481 198 472 q 216 510 212 495 q 228 540 221 525 q 267 627 247 583 q 307 713 288 670 q 332 779 319 747 q 357 842 346 810 q 349 838 353 842 q 342 830 345 833 q 330 823 335 827 q 317 814 324 819 q 278 780 300 802 q 262 768 271 774 q 245 757 254 762 q 205 743 222 745 q 196 758 195 755 q 195 762 197 760 q 186 770 191 770 q 180 779 182 769 q 179 798 179 788 q 182 814 179 807 q 191 825 184 819 q 203 837 197 831 q 227 860 214 850 q 274 891 248 878 q 294 905 282 898 q 315 917 305 911 q 338 925 326 922 q 358 932 350 928 q 374 949 365 936 q 388 967 382 962 q 411 986 401 982 q 426 997 420 990 q 432 1010 430 1002 q 439 1023 434 1017 q 456 1036 449 1034 q 479 1031 464 1038 q 498 1031 490 1031 q 509 1028 506 1031 q 527 1010 517 1023 q 537 983 537 998 q 533 956 537 970 q 526 929 529 943 q 494 860 510 895 q 463 789 477 825 q 453 768 457 779 q 445 746 449 757 q 442 732 442 739 q 435 722 442 726 q 420 699 425 708 q 410 682 416 689 q 401 665 406 673 q 393 647 397 656 q 388 623 389 635 q 382 597 387 612 q 372 572 380 585 q 359 545 365 559 q 348 521 353 533 q 336 496 343 509 z "},"L":{"ha":538,"x_min":-39,"x_max":490,"o":"m 118 76 q 162 94 141 83 q 209 111 183 104 q 277 115 243 115 q 342 123 312 115 q 401 132 374 129 q 450 122 427 134 q 450 96 453 111 q 444 69 448 80 q 437 50 439 57 q 427 33 434 43 q 413 24 420 27 q 399 18 406 22 q 373 15 387 20 q 355 18 369 20 q 321 12 336 19 q 288 8 305 5 q 264 5 277 5 q 236 1 251 4 q 209 -8 221 -1 q 182 -12 197 -15 q 151 -25 167 -19 q 117 -38 134 -31 q 100 -46 102 -46 q 95 -47 98 -46 q 75 -56 81 -54 q 62 -60 69 -57 q 43 -56 52 -60 q 23 -49 34 -53 q 14 -40 16 -45 q 5 -27 11 -35 q -18 7 -11 -11 q -24 12 -20 9 q -33 18 -28 15 q -32 58 -39 41 q -18 92 -24 75 q -4 135 -9 113 q 15 172 1 157 q 30 201 19 184 q 43 229 38 214 q 56 258 47 244 q 64 271 60 264 q 73 282 69 277 q 78 292 75 289 q 83 301 81 294 q 104 331 96 313 q 123 362 111 349 q 140 395 134 377 q 157 427 146 412 q 166 448 163 441 q 174 463 170 454 q 184 491 179 475 q 195 518 189 507 q 203 538 198 530 q 212 562 209 547 q 222 585 218 571 q 231 609 225 598 q 234 619 231 614 q 235 628 237 624 q 242 644 241 635 q 250 661 243 654 q 256 681 248 670 q 261 692 258 688 q 266 701 264 697 q 281 734 278 724 q 289 753 285 745 q 294 759 292 755 q 298 768 297 762 q 304 783 301 774 q 309 798 307 791 q 313 810 312 804 q 317 819 315 815 q 326 834 327 833 q 327 837 326 836 q 332 849 330 844 q 338 860 335 854 q 363 920 353 897 q 387 966 373 943 q 384 988 387 977 q 387 1009 381 1000 q 408 1022 397 1015 q 430 1032 418 1029 q 440 1027 435 1034 q 449 1019 445 1021 q 471 992 461 1008 q 487 960 481 977 q 489 935 490 949 q 484 911 488 921 q 473 888 480 897 q 473 859 476 871 q 465 836 469 846 q 444 803 452 822 q 430 782 435 793 q 418 760 425 770 q 406 738 412 749 q 395 713 399 727 q 380 691 382 699 q 372 678 378 684 q 343 612 355 643 q 316 553 331 582 q 313 543 317 547 q 311 533 309 540 q 291 477 297 509 q 270 422 285 446 q 239 351 258 382 q 206 282 221 319 q 197 266 199 279 q 173 214 182 243 q 151 161 164 186 q 133 119 144 141 q 118 76 122 98 z "},"M":{"ha":1226,"x_min":20,"x_max":1297,"o":"m 20 -54 q 29 -28 23 -39 q 38 -5 35 -18 q 65 45 50 23 q 73 64 68 56 q 83 79 77 72 q 96 115 91 98 q 110 149 100 132 q 143 214 126 180 q 176 279 160 247 q 192 310 184 294 q 209 340 199 326 q 214 362 212 351 q 221 384 217 373 q 222 397 220 392 q 228 407 225 401 l 232 423 q 243 450 236 438 q 254 475 250 461 q 260 483 258 477 q 266 494 263 488 q 288 552 277 524 q 309 612 298 581 q 321 638 316 629 q 330 661 327 647 q 357 722 343 692 q 385 784 370 753 q 404 825 395 807 q 416 846 410 836 q 426 865 423 856 q 426 883 429 873 q 399 873 411 882 q 373 857 388 865 q 358 848 366 853 q 351 840 353 841 q 346 837 349 840 q 321 820 334 830 q 294 803 308 810 q 269 781 282 792 q 243 758 255 769 q 225 742 237 749 q 212 727 218 735 q 199 712 206 719 q 191 679 198 694 q 178 648 184 663 q 174 637 175 642 q 171 628 172 633 q 181 630 176 625 q 191 633 186 635 q 224 654 210 642 q 252 677 237 666 q 277 702 266 688 q 300 731 289 716 q 315 747 312 743 q 324 750 317 750 q 332 741 331 743 q 331 735 332 738 q 305 684 317 703 q 282 646 293 666 q 260 618 267 631 q 244 594 254 605 q 231 570 237 582 q 213 552 224 559 q 176 553 189 547 q 153 563 163 559 q 142 566 148 566 q 132 571 137 567 q 122 583 125 579 q 121 591 119 586 q 115 603 118 594 q 113 618 113 612 q 117 634 118 632 q 118 639 117 636 q 121 647 119 643 q 125 655 123 651 q 128 667 127 661 q 132 680 129 673 q 146 707 136 692 q 153 722 149 713 q 159 736 156 730 l 165 753 q 169 764 168 764 q 171 768 170 765 q 180 789 176 784 q 183 802 183 795 q 267 887 217 852 q 307 917 286 902 q 350 945 328 932 q 376 966 361 956 q 406 986 391 977 q 427 999 416 991 q 449 1009 437 1006 q 467 1008 458 1012 q 484 1000 480 1000 q 491 1000 488 1001 q 505 987 499 997 q 513 971 510 978 q 522 952 517 963 q 529 926 526 941 q 531 913 530 920 q 533 899 532 906 q 534 885 533 892 q 536 872 536 878 q 528 848 534 860 q 515 826 521 836 q 498 787 506 807 q 480 749 491 768 q 472 736 472 738 q 471 732 472 734 q 463 713 465 719 q 457 700 460 707 q 443 667 450 684 q 429 631 435 650 q 441 643 435 632 q 448 650 445 646 q 454 661 452 655 q 465 673 463 669 q 474 686 471 680 q 483 697 477 692 q 512 730 498 712 q 540 765 526 747 q 571 804 557 781 q 595 849 585 826 q 611 863 604 856 q 625 879 618 869 q 662 914 647 897 q 694 946 677 932 q 731 968 711 960 q 777 974 751 977 q 789 956 784 966 q 803 940 795 947 q 821 882 814 913 q 827 812 829 852 q 819 790 825 802 q 810 765 812 779 q 805 753 807 758 q 800 741 803 747 q 783 703 795 724 q 768 663 772 682 q 763 653 764 659 q 761 640 762 647 q 753 612 753 623 q 750 593 753 602 q 738 544 743 568 q 727 494 732 519 q 723 479 724 486 q 720 465 722 472 q 715 448 718 457 q 711 431 713 439 q 719 439 715 433 q 727 450 723 445 q 741 472 734 461 q 755 494 749 483 q 776 523 766 509 q 796 551 785 537 q 817 583 810 571 q 831 609 825 595 q 849 631 842 620 q 865 652 856 642 q 883 685 875 671 q 894 707 891 699 q 918 738 906 723 q 944 768 930 753 q 964 786 956 780 q 979 799 971 792 q 1020 841 996 819 q 1065 889 1039 868 q 1115 932 1092 910 q 1138 946 1130 937 q 1154 948 1146 955 q 1179 956 1168 959 q 1194 949 1190 952 q 1214 928 1211 933 q 1218 918 1217 924 q 1222 909 1219 913 l 1230 888 q 1236 876 1233 883 q 1241 863 1238 869 q 1251 837 1246 852 q 1255 807 1256 822 q 1252 792 1253 800 q 1248 774 1251 784 q 1240 755 1244 764 q 1234 738 1237 746 q 1231 726 1232 731 q 1227 715 1230 720 q 1206 665 1219 693 q 1185 620 1192 637 q 1176 598 1184 608 q 1169 576 1173 586 q 1161 556 1165 567 q 1158 543 1158 549 q 1154 530 1157 537 q 1147 516 1152 524 q 1141 502 1143 509 q 1135 481 1138 491 q 1127 461 1133 471 q 1116 433 1122 446 q 1103 408 1111 419 q 1058 311 1076 363 q 1017 212 1040 259 q 1012 195 1016 203 q 1005 179 1008 187 q 995 157 998 171 q 987 132 991 144 q 989 109 983 118 q 998 98 994 100 q 1018 95 1005 94 q 1038 99 1031 96 q 1057 104 1046 102 q 1076 110 1067 107 q 1094 118 1086 114 q 1109 126 1101 122 q 1127 134 1116 132 q 1135 140 1131 138 q 1142 144 1139 141 q 1173 174 1158 157 q 1204 203 1187 190 q 1267 267 1227 240 q 1286 252 1282 259 q 1295 239 1291 245 q 1291 218 1297 225 q 1282 201 1286 210 q 1240 155 1260 179 q 1198 111 1219 132 q 1184 81 1191 96 q 1164 57 1177 65 q 1124 27 1141 41 q 1089 7 1108 14 q 1019 -42 1055 -14 q 985 -60 1005 -52 q 974 -54 975 -54 q 971 -52 972 -53 q 939 -35 949 -49 q 916 -8 929 -20 q 888 42 898 9 q 878 76 883 60 q 876 115 873 92 q 883 144 878 130 q 894 170 888 157 q 944 277 917 221 q 989 384 971 332 q 994 395 993 391 q 996 404 994 400 q 1008 432 1001 418 q 1023 458 1016 446 q 1034 493 1027 477 q 1048 526 1042 509 q 1061 555 1057 538 q 1074 583 1065 571 q 1090 635 1081 606 q 1103 689 1100 663 q 1103 709 1104 700 q 1103 731 1101 719 q 1107 766 1104 747 q 1107 806 1109 785 q 1093 796 1100 800 q 1080 787 1086 792 q 1063 774 1072 780 q 1047 761 1054 768 q 1038 752 1039 753 q 1034 749 1036 751 q 1021 733 1027 736 q 1012 724 1016 730 q 994 699 1001 707 q 979 684 986 692 q 976 671 979 681 q 972 659 972 662 q 932 604 951 623 q 901 560 917 581 q 872 517 886 540 q 846 483 859 495 q 822 454 833 471 q 798 425 808 441 q 772 395 787 408 q 751 366 761 380 q 731 335 741 351 q 719 312 728 328 q 707 289 709 296 q 696 263 700 277 q 685 239 692 250 q 662 202 674 220 q 639 165 650 184 q 631 142 633 153 q 623 127 629 132 q 607 98 616 111 q 591 68 598 85 q 578 54 587 58 q 562 54 570 50 q 544 71 551 58 q 530 91 537 83 q 523 110 528 102 q 518 129 518 118 q 519 141 517 134 q 519 153 521 148 q 519 180 515 170 q 526 198 524 190 q 536 216 532 213 q 541 233 538 225 q 545 251 543 241 q 551 264 548 258 q 556 277 553 270 q 561 289 559 283 q 566 301 563 294 q 567 309 567 307 q 570 317 567 312 q 577 341 572 330 q 587 366 582 353 q 596 388 591 377 q 606 411 601 399 q 615 435 610 423 q 624 453 620 446 q 631 469 627 460 q 639 487 635 479 q 648 505 647 502 q 648 511 648 509 q 649 536 643 521 q 662 568 655 552 q 671 602 669 585 q 680 636 674 620 q 696 689 686 659 q 709 747 707 719 q 711 768 709 758 q 703 779 712 777 q 697 792 700 785 q 689 803 694 799 q 668 794 675 803 q 652 777 661 785 q 621 741 637 757 q 589 703 604 724 q 556 666 574 688 q 528 629 538 644 q 517 614 525 620 q 503 602 509 609 q 487 583 496 594 q 471 562 477 572 q 459 548 465 555 q 446 534 453 541 q 438 523 442 529 q 429 510 434 517 q 412 491 416 498 q 401 479 408 484 q 382 444 392 461 q 361 407 372 426 q 353 397 355 404 q 346 385 350 391 q 337 361 343 370 q 327 340 331 351 q 293 284 307 309 q 266 232 279 259 q 258 216 259 218 q 254 210 256 213 q 245 193 250 201 q 236 176 240 184 q 233 168 233 172 q 228 161 232 164 q 192 81 213 118 q 155 0 171 43 q 151 -7 152 -3 q 146 -16 149 -12 q 127 -28 132 -31 q 115 -26 122 -26 q 106 -30 110 -26 q 94 -34 103 -34 q 79 -37 81 -34 q 68 -43 76 -39 q 54 -52 57 -50 q 47 -50 50 -53 q 42 -54 46 -54 q 35 -60 38 -54 q 28 -57 33 -56 q 20 -54 24 -58 z "},"N":{"ha":825,"x_min":-14,"x_max":882,"o":"m 418 742 q 449 776 442 760 q 468 807 456 792 q 483 821 476 814 q 496 838 490 829 q 532 884 514 861 q 570 929 551 906 q 581 944 575 936 q 593 958 586 952 q 607 964 600 963 q 621 972 614 966 q 669 993 647 982 q 718 1008 690 1004 q 730 996 726 1002 q 742 985 735 990 q 760 970 754 981 q 772 945 766 959 q 781 931 777 935 q 787 922 784 928 q 794 890 792 907 q 803 860 796 873 q 809 854 807 857 q 815 848 811 850 q 817 829 821 840 q 817 808 814 819 q 821 797 819 803 q 823 787 822 791 q 823 745 825 766 q 819 701 821 723 q 819 681 818 690 q 818 661 819 671 q 812 635 815 647 q 806 610 808 623 q 800 585 803 594 q 795 573 798 578 q 792 562 793 568 q 739 472 766 515 q 693 377 712 429 q 685 359 686 365 q 678 349 684 353 q 672 332 675 339 q 663 315 669 324 q 642 274 652 296 q 621 232 632 252 q 608 205 614 218 q 595 178 602 193 q 585 154 590 165 q 575 127 581 142 q 572 117 574 123 q 570 107 570 110 q 574 98 570 103 q 581 90 578 94 q 591 77 586 83 q 602 69 595 72 q 623 71 613 68 q 643 71 633 73 q 653 75 648 73 q 663 79 658 77 q 720 114 693 95 q 774 151 746 133 q 805 174 789 163 q 836 198 821 186 q 858 211 845 202 q 879 210 871 220 q 880 198 879 202 q 879 189 882 194 q 874 180 878 182 q 868 174 871 178 q 865 158 864 167 q 863 140 865 149 q 854 127 860 132 q 846 115 849 122 q 773 58 811 85 q 697 4 735 31 q 687 -1 692 1 q 677 -7 682 -4 q 649 -24 662 -15 q 621 -38 636 -33 q 614 -43 618 -42 q 604 -46 610 -43 q 593 -50 598 -47 q 586 -52 589 -53 q 576 -49 581 -52 q 567 -45 572 -46 q 535 -37 552 -39 q 507 -27 518 -35 q 505 -8 503 -16 q 502 11 507 0 q 491 32 496 22 q 483 53 486 42 q 474 89 475 73 q 475 118 473 104 q 481 146 476 133 q 491 170 486 159 q 502 192 498 180 q 513 216 506 203 q 523 244 519 233 q 530 266 526 255 q 541 286 536 277 q 548 308 545 296 q 576 367 564 336 q 601 427 589 397 q 610 448 605 438 q 620 469 616 458 q 630 500 627 484 q 640 532 633 517 q 644 541 643 536 q 648 552 646 545 q 669 603 659 575 q 692 652 678 631 q 706 690 699 671 q 716 734 713 708 q 717 755 718 745 q 713 776 716 766 q 705 803 705 795 q 697 817 704 811 q 692 829 694 826 q 689 838 690 833 q 682 843 685 841 q 675 848 678 845 q 633 813 652 830 q 590 780 613 796 q 550 746 566 760 q 519 718 534 732 q 507 708 510 708 q 467 655 484 689 q 429 593 448 623 q 396 530 411 563 q 363 471 377 503 q 334 407 349 438 q 323 378 328 392 q 311 354 319 365 q 298 334 305 345 q 285 315 292 324 q 265 291 275 302 q 247 266 255 279 q 238 249 241 258 q 232 233 235 240 q 226 216 229 225 q 218 199 222 208 q 212 184 216 189 q 197 151 205 167 q 182 118 189 134 q 176 98 180 110 q 168 72 172 85 q 158 47 163 58 q 152 27 153 35 q 139 18 145 23 q 126 12 133 14 q 111 3 119 4 q 92 -1 102 3 q 82 -8 87 -4 q 71 -16 77 -12 q 56 -22 64 -20 q 41 -30 47 -23 q 35 -37 37 -33 q 30 -43 33 -41 q 14 -45 19 -41 q -1 -46 8 -50 q -10 -35 -8 -43 q -14 -18 -12 -27 q -6 -1 -8 -4 q -1 5 -4 3 q 2 14 1 9 q 5 20 3 18 q 12 34 8 27 q 20 47 16 41 q 26 59 22 50 q 37 78 31 68 q 46 97 42 88 q 53 109 50 106 q 60 121 57 115 q 68 134 64 127 q 75 147 71 141 q 84 160 80 153 q 91 171 90 171 q 94 174 92 171 q 97 182 96 178 q 100 190 98 187 q 115 216 107 203 q 130 240 123 229 q 139 254 136 247 q 146 270 142 260 q 162 299 153 285 q 178 328 171 313 q 191 359 184 343 q 206 392 198 376 q 221 421 213 407 q 235 453 229 435 q 254 488 245 472 q 270 518 262 503 q 279 539 275 529 q 289 560 283 549 q 296 576 293 567 q 305 591 300 585 q 310 606 308 598 q 317 617 312 613 q 320 627 317 624 q 326 633 323 631 q 338 686 332 659 q 350 739 343 712 q 351 753 349 746 q 354 770 353 761 q 357 802 355 788 q 359 831 358 815 q 361 845 361 838 q 361 857 362 852 q 352 878 359 868 q 339 895 345 887 q 316 886 326 894 q 296 871 307 878 q 277 856 281 860 q 269 849 273 853 q 263 842 266 845 q 245 824 250 833 q 236 808 241 815 q 231 802 233 806 q 225 795 228 798 q 212 780 218 788 q 199 764 206 772 q 194 742 199 753 q 189 718 189 731 q 188 700 187 711 q 190 681 189 689 q 192 669 190 675 q 197 656 194 663 q 201 640 199 646 q 210 631 203 633 q 221 637 217 633 q 229 646 225 642 q 233 652 231 648 q 237 659 235 656 q 242 667 240 662 q 247 674 244 671 q 260 696 254 685 q 269 726 266 707 q 275 774 264 751 q 275 782 274 777 q 275 791 275 787 q 297 776 292 789 q 299 740 300 761 q 297 699 298 719 q 294 673 296 684 q 288 652 293 662 q 273 623 281 639 q 254 597 264 608 q 239 588 245 594 q 225 578 232 582 q 205 564 209 567 q 195 559 202 562 q 177 570 182 564 q 165 579 172 576 q 151 604 159 590 q 137 631 142 618 q 133 644 134 636 q 129 658 132 651 q 120 696 125 675 q 118 741 115 718 q 121 758 118 749 q 126 777 123 768 q 151 823 140 799 q 172 871 161 848 q 197 917 183 897 q 220 963 210 937 q 229 973 227 972 q 231 979 232 974 q 261 998 250 985 q 294 1015 273 1012 q 307 1016 301 1016 q 321 1019 313 1016 q 359 1029 340 1025 q 403 1019 388 1025 q 421 996 418 1001 q 430 981 425 990 q 435 971 433 977 q 439 962 438 966 q 448 922 445 943 q 448 879 450 901 q 444 863 445 871 q 441 848 442 856 q 429 794 437 822 q 418 742 420 766 z "},"O":{"ha":747,"x_min":56,"x_max":907,"o":"m 692 894 q 708 830 699 859 q 720 768 718 802 q 720 751 720 760 q 720 735 719 743 l 720 719 q 718 699 720 708 q 716 678 716 689 q 708 631 715 654 q 705 616 707 616 q 704 614 704 617 q 700 586 701 600 q 696 557 699 572 q 752 551 720 555 q 812 551 784 548 q 825 555 819 552 q 838 560 831 557 q 875 571 861 563 q 907 585 888 579 q 894 567 902 570 q 886 549 890 553 q 879 541 883 544 q 867 532 872 536 q 854 524 861 529 q 820 511 833 511 q 796 506 807 510 q 774 509 787 507 q 751 509 761 510 q 736 513 745 513 q 720 510 728 513 q 699 503 704 505 q 688 498 693 500 q 684 486 685 490 q 682 479 684 481 q 680 450 681 464 q 675 420 680 435 q 670 405 670 408 q 667 396 670 401 q 661 380 663 389 q 655 361 658 370 q 647 345 648 354 q 644 324 646 335 q 637 303 643 313 q 627 283 632 293 q 621 271 624 277 q 614 258 618 264 q 583 214 598 237 q 569 188 576 199 q 555 163 562 176 q 528 130 544 144 q 495 100 511 115 q 479 85 487 94 q 464 71 471 77 q 450 56 457 64 q 435 42 442 49 q 416 28 426 35 q 395 14 406 20 q 352 -9 373 1 q 308 -34 331 -20 q 288 -47 297 -41 q 267 -57 278 -53 q 250 -60 259 -60 q 233 -62 241 -61 q 213 -67 222 -65 q 191 -69 203 -69 q 158 -63 176 -68 q 130 -52 140 -58 q 109 -28 113 -35 q 99 -15 106 -22 q 96 -7 98 -9 q 94 0 94 -5 q 79 27 84 14 q 62 73 66 53 q 60 114 57 92 q 57 163 57 136 q 57 217 57 191 q 56 235 57 227 q 58 251 56 244 q 56 272 57 262 q 58 290 56 282 q 60 311 60 304 q 64 324 61 317 q 70 338 71 331 q 72 351 69 345 q 90 416 77 388 q 98 437 94 427 q 104 458 102 448 q 123 500 113 481 q 142 541 133 519 q 182 614 161 581 q 225 682 203 647 q 235 694 232 686 q 243 705 237 701 q 269 745 254 728 q 298 777 283 761 q 311 789 305 783 q 323 802 316 795 q 332 809 327 806 q 339 818 336 812 q 349 825 345 821 q 358 833 354 829 q 369 841 363 837 q 380 849 374 845 q 399 866 391 857 q 419 882 408 875 q 433 883 430 883 q 435 887 435 883 q 456 907 452 901 q 465 920 461 913 q 484 935 476 926 q 503 951 492 944 q 515 963 511 960 q 522 968 518 966 q 528 975 525 972 q 533 979 532 977 q 545 985 540 982 q 559 991 551 989 q 574 991 568 990 q 586 991 581 993 q 599 985 594 990 q 610 975 604 981 q 635 958 627 972 q 655 937 644 944 q 671 916 662 926 q 686 894 680 906 l 692 894 m 586 635 q 602 618 593 625 q 621 604 612 610 q 625 680 621 639 q 625 757 628 722 q 616 785 621 772 q 609 815 612 799 q 602 826 604 821 q 597 837 600 831 q 590 847 590 845 q 587 852 590 849 q 581 857 585 854 q 575 864 578 860 q 549 858 559 865 q 529 844 538 850 q 528 808 526 825 q 532 777 529 792 q 540 726 536 751 q 553 681 544 700 q 564 659 555 671 q 586 635 574 646 m 404 753 q 391 741 397 746 q 378 727 384 735 q 365 713 370 720 q 353 700 359 707 q 340 687 346 693 q 330 673 335 681 q 323 666 326 670 q 316 658 320 662 q 297 633 302 640 q 289 620 292 627 q 276 606 281 614 q 267 587 271 597 q 252 564 259 576 q 240 540 245 552 q 227 514 229 521 q 222 500 225 507 q 213 479 217 492 q 172 368 190 430 q 165 345 170 355 q 159 323 160 334 q 158 312 157 317 q 159 301 159 307 q 156 275 157 288 q 155 247 155 262 q 155 197 155 220 q 157 149 155 174 q 160 121 157 132 q 170 110 163 115 q 182 100 176 104 q 203 78 193 90 q 233 73 214 66 q 248 73 240 69 q 264 75 256 77 q 278 78 271 77 q 292 81 285 79 q 313 87 302 84 q 332 94 323 91 q 354 101 343 98 q 374 110 365 104 q 414 146 401 133 q 433 163 423 156 q 450 179 442 171 q 464 193 457 186 q 476 212 471 201 q 484 220 480 216 q 490 231 487 225 q 500 248 496 239 q 510 267 503 258 q 529 311 518 290 q 547 353 540 331 q 568 398 559 378 q 581 438 576 418 q 585 448 585 442 q 589 458 586 454 q 600 495 595 477 q 610 534 605 513 q 601 536 605 537 q 593 538 597 536 q 573 553 582 543 q 553 564 564 563 q 545 571 548 568 q 536 576 541 574 q 494 625 514 600 q 463 681 475 650 q 444 732 450 708 q 431 783 437 755 q 417 768 423 774 q 404 753 411 761 z "}}}
